<?xml version="1.0" standalone="no"?>
<!DOCTYPE svg PUBLIC "-//W3C//DTD SVG 1.1//EN" "http://www.w3.org/Graphics/SVG/1.1/DTD/svg11.dtd" >
<svg xmlns="http://www.w3.org/2000/svg" xmlns:xlink="http://www.w3.org/1999/xlink" version="1.1">
<metadata>
Created by FontForge 20150318 at Wed Jul  8 09:19:23 2015
 By uniteet7
Copyright (c) 2010-13 by Vernon Adams
</metadata>
<defs>
<font id="Oswald-RegularItalic" horiz-adv-x="832" >
  <font-face 
    font-family="Oswald"
    font-weight="400"
    font-style="italic"
    font-stretch="normal"
    units-per-em="2048"
    panose-1="2 0 5 3 0 0 0 0 0 0"
    ascent="1638"
    descent="-410"
    x-height="1184"
    cap-height="1658"
    bbox="-174 -598 2468 2247"
    underline-thickness="4"
    underline-position="-13"
    unicode-range="U+0020-FB04"
  />
<missing-glyph horiz-adv-x="748" 
d="M136 68h408v1229h-408v-1229zM68 0v1365h544v-1365h-544z" />
    <glyph glyph-name=".notdef" horiz-adv-x="748" 
d="M136 68h408v1229h-408v-1229zM68 0v1365h544v-1365h-544z" />
    <glyph glyph-name=".null" horiz-adv-x="0" 
 />
    <glyph glyph-name="nonmarkingreturn" horiz-adv-x="682" 
 />
    <glyph glyph-name="space" unicode=" " horiz-adv-x="463" 
 />
    <glyph glyph-name="exclam" unicode="!" horiz-adv-x="424" 
d="M56 0l23 221h215l-24 -221h-214zM163 355l67 1303h215l-208 -1303h-74z" />
    <glyph glyph-name="quotedbl" unicode="&#x22;" horiz-adv-x="773" 
d="M247 1152l53 506h191l-130 -506h-114zM550 1152l53 506h191l-130 -506h-114z" />
    <glyph glyph-name="numbersign" unicode="#" horiz-adv-x="990" 
d="M25 0l147 593h-92l17 159h115l53 209h-138l16 160h161l135 537h212l-135 -537h184l135 537h211l-135 -537h86l-17 -160h-107l-54 -209h132l-17 -159h-154l-148 -593h-212l148 593h-184l-148 -593h-211zM423 752h186l53 209h-185z" />
    <glyph glyph-name="dollar" unicode="$" horiz-adv-x="1000" 
d="M437 -159l15 141q-200 4 -291 132q-83 116 -83 308q0 19 1 39l205 54q-1 -24 -1 -46q1 -48 5 -87q6 -58 26.5 -111.5t63.5 -83t108 -29.5q92 0 145 50.5t63 148.5q2 20 2 38q0 22 -3 44q-6 39 -16.5 67.5t-34 61.5t-42.5 54.5t-54 57.5l-253 250q-75 76 -105 160
q-21 59 -21 135q0 33 4 69q18 174 128 273.5t284 106.5l14 139h70l-14 -140q167 -11 243 -115q73 -101 73 -296v-16l-195 -52q1 23 1 45q0 43 -4 77q-6 52 -25 98t-60 68q-35 19 -85 19q-9 0 -19 -1q-191 -11 -209 -185q-2 -19 -2 -36q0 -49 15 -86q20 -50 73 -105l255 -249
q100 -99 152 -211q41 -88 41 -195q0 -28 -3 -58q-18 -167 -121.5 -270t-259.5 -120l-16 -144h-70z" />
    <glyph glyph-name="percent" unicode="%" horiz-adv-x="1793" 
d="M440 944q49 0 80.5 31.5t44 74.5t18.5 105l17 156q3 38 3 71q-1 16 -1 31q-2 45 -27.5 72t-75.5 27q-38 0 -64.5 -15t-41.5 -45.5t-22.5 -63t-12.5 -79.5l-17 -156q-3 -38 -3 -71v-32q2 -46 28 -76t74 -30zM423 784q-279 0 -279 296q0 39 5 82l14 138q19 185 103 279.5
t250 94.5t231 -91q50 -70 50 -195q0 -37 -4 -78l-17 -154q-19 -182 -104 -277t-249 -95zM1371 150q49 0 80.5 31.5t44 74.5t18.5 105l16 156q4 41 4 75q0 14 -1 27q-2 45 -27 72t-75 27q-38 0 -64.5 -15t-42 -45.5t-23 -63t-12.5 -79.5l-17 -156q-2 -35 -2 -66v-37
q2 -46 27.5 -76t73.5 -30zM1354 -11q-279 0 -279 299q0 37 4 79l15 139q19 185 103.5 279.5t250.5 94.5t230 -92q49 -70 50 -191q0 -38 -5 -81l-16 -155q-38 -372 -353 -372zM526 0l638 1662h183l-637 -1662h-184z" />
    <glyph glyph-name="ampersand" unicode="&#x26;" horiz-adv-x="1240" 
d="M430 -18q-170 0 -256 103q-71 86 -71 217q0 26 3 54q15 143 92.5 259t203.5 220q-11 25 -39 87.5t-41.5 96.5t-30.5 87.5t-21 102.5q-2 23 -3 47q0 26 3 53q17 165 123.5 265.5t268.5 100.5q153 0 243 -83q77 -71 77 -186q0 -19 -2 -39q-8 -76 -44 -154t-94 -149.5
t-111 -125t-121 -113.5l214 -404q78 124 122 339h211q-12 -114 -75.5 -247.5t-138.5 -225.5q26 -38 67.5 -62t88.5 -24l-23 -217q-15 -2 -30 0q-39 1 -73 13t-64.5 37t-48.5 44t-47 53q-7 9 -11 13q-67 -74 -162.5 -118t-209.5 -44zM449 158q123 0 239 124l-218 402
q-62 -67 -101.5 -153t-49.5 -176q-2 -18 -2.5 -36.5t2.5 -36.5q5 -36 18 -63t42 -44t70 -17zM547 941q82 85 146 201.5t75 225.5q1 10 1 20q0 46 -28 76q-34 36 -97 36q-71 0 -113 -55.5t-50 -135.5q-3 -28 -3 -57q0 -58 12 -116q18 -86 57 -195z" />
    <glyph glyph-name="quotesingle" unicode="'" horiz-adv-x="733" 
d="M247 1152l53 506h191l-130 -506h-114z" />
    <glyph glyph-name="parenleft" unicode="(" horiz-adv-x="606" 
d="M456 -391q-71 1 -125.5 23.5t-90 70.5t-59.5 99.5t-33.5 136t-13.5 152.5q-1 25 -1 55q0 54 4 122q7 108 13.5 180.5t18.5 190.5q14 138 24 219t31 204.5t43.5 197.5t60.5 162t84 136t112.5 81t147.5 34l-15 -143q-46 -1 -83.5 -36t-64.5 -99.5t-47.5 -142.5t-36 -181.5
t-27 -199t-23.5 -210.5q-1 -15 -2 -22q-40 -386 -42 -534v-16q0 -295 106 -332q16 -6 33 -6z" />
    <glyph glyph-name="parenright" unicode=")" horiz-adv-x="531" 
d="M-29 -391l15 143q129 3 198 287q40 164 82 560l3 27q1 11 2 17q39 384 41 527v22q0 290 -103 332q-17 6 -36 7l15 142q57 0 103.5 -14.5t80 -46t59 -66.5t40.5 -92.5t25 -106.5t11.5 -125.5t1.5 -133t-7 -145.5t-12.5 -147.5t-15.5 -152.5q-14 -137 -24 -218.5
t-31 -204.5t-43.5 -197t-60.5 -162t-84 -136t-112.5 -81.5t-147.5 -34.5z" />
    <glyph glyph-name="asterisk" unicode="*" horiz-adv-x="810" 
d="M348 963l-118 76l188 228l-233 94l66 135l219 -123l6 283h161l-55 -283l246 123l37 -135l-253 -95l141 -227l-136 -76l-107 257z" />
    <glyph glyph-name="plus" unicode="+" horiz-adv-x="843" 
d="M335 438l34 334h-286l17 160h286l35 332h160l-35 -332h296l-17 -160h-296l-35 -334h-159z" />
    <glyph glyph-name="comma" unicode="," horiz-adv-x="381" 
d="M42 -266l-26 92q58 19 93 65t42 109h-114l24 234h222l-25 -228q-10 -108 -62 -172t-154 -100z" />
    <glyph glyph-name="hyphen" unicode="-" horiz-adv-x="653" 
d="M107 542l17 161h456l-17 -161h-456z" />
    <glyph glyph-name="period" unicode="." horiz-adv-x="385" 
d="M53 0l26 241h214l-25 -241h-215z" />
    <glyph glyph-name="slash" unicode="/" horiz-adv-x="751" 
d="M9 0l624 1658h184l-624 -1658h-184z" />
    <glyph glyph-name="zero" unicode="0" horiz-adv-x="1024" 
d="M480 156q194 0 228 312l75 721q6 42 6 82q0 17 -1 35q-4 56 -18.5 100t-52.5 69.5t-96 25.5q-47 0 -84 -17t-61.5 -45t-42 -69.5t-27 -84.5t-14.5 -96l-75 -721q-6 -38 -6 -75q0 -21 2 -41q5 -56 20.5 -99.5t53 -70t93.5 -26.5zM461 -18q-137 0 -224 64t-117 172
q-20 72 -21 162q0 44 5 92l74 713q24 229 138.5 359.5t322.5 130.5q207 -1 295 -131q69 -102 68 -265q0 -45 -5 -94l-74 -713q-24 -225 -140 -357.5t-322 -132.5z" />
    <glyph glyph-name="one" unicode="1" horiz-adv-x="990" 
d="M412 0l145 1382q-5 -6 -75.5 -22t-142.5 -30t-74 -15l17 162q255 64 355 181h161l-174 -1658h-212z" />
    <glyph glyph-name="two" unicode="2" horiz-adv-x="1024" 
d="M45 0l16 151l493 661q14 19 52 69t52 69.5t41.5 63t39.5 73t24.5 73t17.5 89.5q3 33 3 62q0 189 -148 189q-202 0 -235 -310l-3 -26q-3 -26 -3 -27h-212l5 54q25 235 134 359.5t321 124.5q197 1 285 -111q71 -90 70 -242q0 -36 -4 -76q-8 -73 -26.5 -135t-54 -123.5
t-61.5 -99t-79 -106.5q-9 -11 -13 -17l-445 -587h528l-19 -178h-779z" />
    <glyph glyph-name="three" unicode="3" horiz-adv-x="1024" 
d="M453 -18q-199 0 -289 111q-73 89 -72 237q0 36 4 75l5 54h212q-1 -4 -4 -36q-3 -34 -3 -63q0 -84 25 -134q34 -68 141 -69q111 0 161 77t66 233q3 36 3 67q0 96 -31 156q-42 80 -158 88q-8 1 -33 1l23 211h29q120 5 177.5 63.5t72.5 194.5q3 31 3 59q-1 81 -27 129
q-36 64 -141 65q-109 0 -157.5 -68.5t-65.5 -201.5q-3 -27 -4 -32h-212l6 53q21 201 136 312t315 111q197 0 289 -113q74 -92 75 -242q0 -34 -4 -72q-16 -148 -89 -240.5t-187 -123.5q107 -36 159 -142q39 -80 39 -195q0 -38 -4 -80q-25 -230 -137 -357.5t-323 -127.5z" />
    <glyph glyph-name="four" unicode="4" horiz-adv-x="1024" 
d="M516 0l47 441h-481l25 235l533 983h263l-107 -1017h185l-21 -201h-185l-46 -441h-213zM317 642h266l79 746z" />
    <glyph glyph-name="five" unicode="5" horiz-adv-x="1024" 
d="M468 -17q-214 0 -294 121q-60 92 -60 250q0 50 6 106h212q-6 -42 -6 -82v-31q4 -55 16.5 -98.5t50 -70t96.5 -26.5q53 0 92 20.5t62.5 52t40.5 87.5t25 106.5t16 130.5q9 88 9 155q0 22 -1 42q-4 80 -42 122.5t-118 42.5q-63 0 -116 -39t-87 -98h-181l93 884h709
l-23 -210h-516l-62 -471q97 94 251 94q97 0 163 -36.5t98 -102.5t42 -156q4 -39 4 -80q0 -56 -8 -118q-14 -135 -44.5 -238t-84 -186t-140 -127t-203.5 -44z" />
    <glyph glyph-name="six" unicode="6" horiz-adv-x="1024" 
d="M474 -18q-104 0 -178.5 41.5t-114.5 115.5q-39 75 -53 171q-7 51 -8 107q0 51 6 106l60 570q10 100 31 183.5t58 158.5t88 127t124.5 82.5t164.5 30.5q192 0 284 -104q79 -89 79 -246q0 -26 -2 -53q-2 -12 -2 -25h-212q4 35 4 65q0 80 -26 126q-35 62 -141 62
q-195 0 -233 -356l-27 -258q40 51 106.5 82t151.5 31q101 0 168 -34t100 -96q32 -63 42 -151q4 -37 4 -77q0 -57 -8 -121q-12 -117 -45 -212.5t-88.5 -169.5t-140 -115t-192.5 -41zM493 158q53 0 94.5 23.5t68 67t42.5 97.5t23 122q5 53 7.5 85.5t3.5 76.5v14q0 34 -4 56
q-5 26 -16.5 56t-30 46t-48 26.5t-69.5 10.5q-64 0 -117 -33t-87 -79l-27 -252q-5 -47 -5 -87q0 -230 165 -230z" />
    <glyph glyph-name="seven" unicode="7" horiz-adv-x="1024" 
d="M294 0l459 1491h-501l17 167h713l-11 -129l-473 -1529h-204z" />
    <glyph glyph-name="eight" unicode="8" horiz-adv-x="1024" 
d="M471 -18q-215 0 -298 124q-64 96 -64 256q0 48 6 102q11 111 48 193t85 129t119 88q-153 104 -153 309q0 31 4 65q22 202 129.5 314.5t302.5 112.5q194 1 278 -113q66 -90 66 -235q0 -38 -5 -80q-27 -253 -226 -373q45 -30 76.5 -64t56.5 -82q26 -48 34 -114q4 -32 4 -69
q0 -38 -5 -81q-24 -233 -133.5 -357.5t-324.5 -124.5zM490 150q112 0 165 81.5t69 230.5q4 40 4 74q0 229 -173 233q-57 -1 -100.5 -26.5t-71 -69t-43.5 -96t-22 -115.5q-5 -45 -5 -83q1 -89 27 -147q38 -82 150 -82zM575 970q178 4 208 288q3 27 3 52q0 78 -27 130
q-35 68 -127 68q-93 0 -143 -68t-62 -182q-4 -39 -4 -73q0 -212 152 -215z" />
    <glyph glyph-name="nine" unicode="9" horiz-adv-x="1024" 
d="M462 -18q-194 0 -286 106q-78 89 -79 243q0 28 3 59q2 8 2 19h213q-4 -36 -4 -68q-1 -79 25 -123q36 -62 145 -61q190 0 228 356l27 257q-84 -112 -258 -112q-101 0 -168 34t-99 96q-32 64 -42 152q-4 37 -4 77q0 57 8 121q12 117 45 212t88.5 169t140 115t192.5 41
q104 0 178.5 -41t114.5 -115.5t54 -170.5q7 -49 6 -104q0 -52 -6 -110l-59 -569q-11 -100 -31.5 -183.5t-58 -159t-88 -127.5t-124 -82.5t-163.5 -30.5zM548 819q123 0 205 112l25 250q5 49 5 91q0 228 -162 228q-195 0 -230 -312q-5 -53 -7 -86q-4 -32 -4 -76v-7
q0 -39 5 -63q5 -26 16 -55t30 -45t48.5 -26.5t68.5 -10.5z" />
    <glyph glyph-name="colon" unicode=":" horiz-adv-x="402" 
d="M96 195l25 231h215l-25 -231h-215zM166 850l24 233h215l-24 -233h-215z" />
    <glyph glyph-name="semicolon" unicode=";" horiz-adv-x="440" 
d="M97 -90l-25 93q117 11 131 139h-114l24 230h221l-24 -224q-11 -112 -61.5 -171.5t-151.5 -66.5zM170 912l25 242h215l-26 -242h-214z" />
    <glyph glyph-name="less" unicode="&#x3c;" horiz-adv-x="762" 
d="M604 78l-541 415l23 213l628 418l-23 -214l-457 -310l392 -309z" />
    <glyph glyph-name="equal" unicode="=" horiz-adv-x="847" 
d="M122 573l17 162h627l-17 -162h-627zM159 933l17 162h627l-17 -162h-627z" />
    <glyph glyph-name="greater" unicode="&#x3e;" horiz-adv-x="762" 
d="M77 78l23 214l458 311l-393 307l22 214l543 -415l-22 -213z" />
    <glyph glyph-name="question" unicode="?" horiz-adv-x="994" 
d="M329 415l27 254q91 72 156 132.5t128 135t100 155.5t46 166q2 19 2 36q0 80 -42 134q-51 66 -143 66q-97 0 -149 -57q-47 -51 -47 -131q0 -9 1 -19l3 -74l-201 -37l-6 71q-2 26 -2 50q0 162 104 265q120 118 319 118q193 0 291 -112q80 -92 81 -247q0 -33 -4 -69
q-8 -77 -35.5 -148.5t-63 -126.5t-94 -117.5t-108 -108t-126.5 -112.5q-6 -5 -9.5 -8t-9 -7.5t-9.5 -8.5l-20 -200h-189zM276 0l23 220h213l-24 -220h-212z" />
    <glyph glyph-name="at" unicode="@" horiz-adv-x="1840" 
d="M881 -269q-144 0 -265.5 31.5t-219.5 99.5t-162.5 167t-91.5 241q-16 85 -16 181q0 64 7 133q23 216 85.5 392.5t156.5 302t217 211.5t266 127t304 41q105 0 194.5 -22t157 -62.5t121.5 -97.5t87 -126t54 -148.5t23 -165.5v-35q0 -69 -6 -141q-21 -184 -97.5 -332.5
t-196.5 -235t-260 -86.5q-87 0 -137 51q-44 45 -44 117q0 10 1 20q-67 -174 -217 -187q-14 -1 -27 -1q-81 0 -137 43q-66 51 -90 135q-17 58 -17 126q0 31 3 64q10 93 42.5 188.5t85 180t117.5 151t145.5 105.5t163.5 39q32 0 68 -16t61 -37l23 36h155l-193 -749
q-9 -38 -12.5 -57.5t-3 -43.5t12.5 -34.5t36 -10.5q83 0 159.5 67t130 184.5t70.5 261.5q7 60 7 115q0 74 -12 140q-21 116 -79 206t-165.5 141t-253.5 51q-320 -1 -540.5 -244.5t-264.5 -655.5q-7 -63 -7 -120q0 -106 23 -193q35 -135 116 -218.5t196 -125t262 -41.5
q176 0 378 56l22 -154q-237 -65 -436 -65zM900 371q54 7 104 61.5t80 154.5l123 481q-29 13 -59 13q-82 0 -163.5 -67.5t-139.5 -185.5t-72 -256q-2 -23 -2 -43q0 -68 25 -113q27 -47 79 -47q12 0 25 2z" />
    <glyph glyph-name="A" unicode="A" horiz-adv-x="1004" 
d="M-9 0l528 1658h217l180 -1658h-214l-32 421h-343l-123 -421h-213zM373 581h285l-63 763z" />
    <glyph glyph-name="B" unicode="B" horiz-adv-x="1068" 
d="M82 0l174 1658h377q225 0 322 -102q79 -83 79 -239q0 -35 -4 -74q-33 -316 -271 -350q141 -35 197 -139q42 -78 42 -198q0 -38 -4 -81q-24 -224 -141 -349.5t-332 -125.5h-439zM324 161h163q150 0 212.5 72t80.5 242q4 35 4 66q0 111 -44 173q-56 80 -205 79h-145z
M408 963h145q142 0 204 65t78 215q3 30 3 56q0 31 -4 56q-8 45 -28 72.5t-63 41.5t-90.5 18.5t-126.5 4.5h-63z" />
    <glyph glyph-name="C" unicode="C" horiz-adv-x="1050" 
d="M492 -18q-103 0 -178 27.5t-118.5 76.5t-68 117.5t-26.5 150.5v33q0 67 6 142l63 594q14 132 44.5 228t87 171.5t148.5 114t220 38.5q114 0 192 -32t119 -95.5t54 -149.5q7 -44 7 -96q0 -48 -6 -104l-14 -129h-212l12 114q4 37 6 60.5t3.5 54.5t-0.5 50.5t-6.5 43.5
t-13 38t-22 29t-32.5 23t-45 13t-58 5q-58 0 -100.5 -17t-68.5 -44t-44 -74.5t-26.5 -93.5t-16.5 -117l-69 -661q-7 -62 -7 -111q0 -100 28 -150q40 -74 162 -74q47 0 82 10t59.5 33t40.5 48t27 68t17 79.5t12 94.5l12 121h212l-13 -121q-12 -119 -41 -208t-82.5 -159
t-140 -106t-205.5 -36z" />
    <glyph glyph-name="D" unicode="D" horiz-adv-x="1078" 
d="M324 161h137q75 0 126.5 20.5t81.5 48.5t49.5 91t27.5 112.5t18 147.5l58 547q9 80 9 142q0 35 -3 65q-8 81 -61.5 119t-170.5 38h-133zM82 0l174 1658h361q136 0 227 -31.5t140 -96.5q50 -64 65 -156q8 -47 8 -105q0 -53 -7 -115l-64 -615q-29 -271 -152 -405t-374 -134
h-378z" />
    <glyph glyph-name="E" unicode="E" 
d="M82 0l174 1658h638l-17 -166h-414l-59 -555h337l-16 -161h-337l-65 -615h420l-18 -161h-643z" />
    <glyph glyph-name="F" unicode="F" horiz-adv-x="799" 
d="M82 0l174 1658h636l-16 -161h-412l-59 -558h322l-17 -161h-322l-82 -778h-224z" />
    <glyph glyph-name="G" unicode="G" horiz-adv-x="1093" 
d="M474 -21q-226 0 -310 142q-63 106 -63 286q0 62 7 133l60 564q15 142 46 242.5t87.5 177t148 114t219.5 37.5q229 1 317 -117q67 -91 67 -260q0 -50 -6 -108l-7 -61h-209l5 53q8 68 8 121q0 31 -3 57q-7 71 -51 105.5t-136 34.5q-43 0 -78 -9.5t-59.5 -25.5t-44 -43
t-31.5 -54t-21 -68.5t-14.5 -76.5t-10.5 -86l-66 -620q-7 -65 -7 -118q0 -102 26 -157q38 -84 170 -84t190 90t79 289l13 124h-214l18 159h416l-86 -820h-142l-2 191q-96 -212 -316 -212z" />
    <glyph glyph-name="H" unicode="H" horiz-adv-x="1145" 
d="M82 0l174 1658h224l-75 -718h436l75 718h224l-174 -1658h-224l82 780h-436l-82 -780h-224z" />
    <glyph glyph-name="I" unicode="I" horiz-adv-x="502" 
d="M94 0l174 1658h219l-174 -1658h-219z" />
    <glyph glyph-name="J" unicode="J" horiz-adv-x="613" 
d="M-38 -43l16 161q79 0 125 9.5t77 39.5t44.5 77t22.5 130l134 1284h224l-134 -1289q-12 -111 -36 -184.5t-69.5 -126.5t-118 -77t-179.5 -24h-106z" />
    <glyph glyph-name="K" unicode="K" horiz-adv-x="1009" 
d="M82 0l174 1658h224l-82 -790l469 790h208l-406 -729l287 -929h-218l-251 826l-112 -177l-69 -649h-224z" />
    <glyph glyph-name="L" unicode="L" horiz-adv-x="810" 
d="M82 0l174 1658h224l-156 -1497h428l-18 -161h-652z" />
    <glyph glyph-name="M" unicode="M" horiz-adv-x="1348" 
d="M77 0l206 1658h219l154 -1354l442 1354h218l-142 -1658h-181l109 1217l-413 -1217h-127l-155 1216l-147 -1216h-183z" />
    <glyph glyph-name="N" unicode="N" horiz-adv-x="1079" 
d="M82 0l174 1658h154l359 -1119l117 1119h188l-174 -1658h-145l-362 1150l-122 -1150h-189z" />
    <glyph glyph-name="O" unicode="O" horiz-adv-x="1101" 
d="M519 158q69 0 116.5 21t75.5 65t42.5 96t22.5 128l76 729q6 48 6 90q0 19 -1 36q-4 56 -22.5 95.5t-62 60.5t-112.5 21t-116.5 -20t-75.5 -62.5t-42.5 -93.5t-22.5 -127l-76 -729q-5 -52 -5 -96q0 -38 4 -68q8 -68 55 -107t138 -39zM500 -18q-124 0 -208.5 37.5
t-127.5 107.5q-43 71 -58 169q-8 49 -8 104.5t8 116.5l67 634q27 257 145.5 390.5t359.5 133.5q123 0 207 -36t129 -105.5t59 -163.5q7 -49 7 -106q0 -53 -6 -113l-68 -635q-13 -125 -47 -220.5t-93 -167.5t-151 -109t-215 -37z" />
    <glyph glyph-name="P" unicode="P" horiz-adv-x="984" 
d="M82 0l174 1658h411q215 0 299 -116q66 -92 67 -249q0 -43 -5 -91q-22 -201 -137.5 -315t-315.5 -114h-187l-82 -773h-224zM405 934h114q152 0 215.5 56t79.5 211q8 59 8 104v18q-2 51 -11.5 84.5t-39.5 53.5t-74 28t-115 8h-118z" />
    <glyph glyph-name="Q" unicode="Q" horiz-adv-x="1104" 
d="M806 -338q-62 47 -139 141t-125 180q-13 -1 -41 -1q-124 0 -208 37t-129 109q-44 70 -58 166q-7 49 -6 106q0 55 6 117l67 634q27 257 146 390.5t360 133.5q123 0 207 -36t129.5 -105.5t59.5 -163.5q7 -49 7 -106q0 -53 -6 -113l-67 -635q-41 -396 -297 -497
q36 -64 105.5 -145t111.5 -116zM520 158q69 0 117 21t76.5 64.5t43 96t22.5 128.5l76 729q5 50 5 92q0 37 -4 69q-8 68 -55.5 105t-138.5 37q-70 0 -117.5 -20t-76 -62t-43 -93.5t-22.5 -127.5l-76 -729q-5 -50 -5 -93q0 -39 4 -71q8 -68 55.5 -107t138.5 -39z" />
    <glyph glyph-name="R" unicode="R" horiz-adv-x="1061" 
d="M82 0l174 1658h339q248 0 353 -104q85 -84 85 -252q0 -38 -4 -81q-35 -323 -249 -388l151 -833h-217l-138 782h-187l-83 -782h-224zM406 942h99q152 0 221.5 60.5t86.5 218.5q4 37 4 69q0 98 -37 145q-49 62 -203 62h-113z" />
    <glyph glyph-name="S" unicode="S" horiz-adv-x="966" 
d="M467 -18q-208 0 -303 128q-86 116 -86 309q0 20 1 42l205 54q-1 -24 -1 -46q1 -48 5 -87q6 -58 26.5 -111.5t63.5 -83t108 -29.5q92 0 145 50.5t63 148.5q2 20 2 38q0 22 -3 44q-6 39 -16.5 67.5t-34 61.5t-42.5 54.5t-54 57.5l-253 250q-75 76 -105 160q-21 59 -21 135
q0 33 4 69q19 179 133.5 279t294.5 102h7q192 -1 279 -103q84 -100 84 -307v-19l-195 -52q1 23 1 45q0 43 -4 77q-6 52 -25 98t-60 68q-35 19 -85 19q-9 0 -19 -1q-191 -11 -209 -185q-2 -19 -2 -36q0 -49 15 -86q20 -50 73 -105l255 -249q100 -99 152 -211q41 -88 41 -195
q0 -28 -3 -58q-19 -182 -139.5 -287.5t-297.5 -105.5z" />
    <glyph glyph-name="T" unicode="T" horiz-adv-x="817" 
d="M254 0l156 1492h-305l17 166h825l-17 -166h-296l-157 -1492h-223z" />
    <glyph glyph-name="U" unicode="U" horiz-adv-x="1112" 
d="M506 -18q-132 0 -216.5 40.5t-122.5 115.5q-39 74 -49 178q-4 40 -4 83q0 70 11 149l117 1110h212l-117 -1120q-9 -63 -9 -119q0 -15 1 -30q3 -69 19 -120.5t60.5 -81t116.5 -29.5q57 0 100.5 20t71 52t47 83.5t29.5 103t17 121.5l118 1120h213l-117 -1110
q-11 -108 -31 -190t-57 -155.5t-90.5 -120t-134 -73.5t-185.5 -27z" />
    <glyph glyph-name="V" unicode="V" horiz-adv-x="1032" 
d="M371 0l-197 1658h209l138 -1236l383 1236h205l-542 -1658h-196z" />
    <glyph glyph-name="W" unicode="W" horiz-adv-x="1490" 
d="M296 0l-98 1658h189l54 -1208l353 1201h159l102 -1205l303 1212h184l-441 -1658h-163l-104 1242l-367 -1242h-171z" />
    <glyph glyph-name="X" unicode="X" horiz-adv-x="984" 
d="M-22 0l438 868l-258 790h207l195 -593l297 593h209l-435 -809l277 -849h-209l-207 632l-305 -632h-209z" />
    <glyph glyph-name="Y" unicode="Y" horiz-adv-x="983" 
d="M337 0l61 582l-247 1076h209l173 -811l338 811h212l-471 -1076l-61 -582h-214z" />
    <glyph glyph-name="Y" unicode="&#x4ae;" horiz-adv-x="983" 
d="M337 0l61 582l-247 1076h209l173 -811l338 811h212l-471 -1076l-61 -582h-214z" />
    <glyph glyph-name="Z" unicode="Z" horiz-adv-x="851" 
d="M28 0l18 161l634 1336h-463l17 161h701l-11 -98l-666 -1399h520l-17 -161h-733z" />
    <glyph glyph-name="bracketleft" unicode="[" horiz-adv-x="689" 
d="M43 -372l213 2030h442l-11 -109h-229l-190 -1811h228l-11 -110h-442z" />
    <glyph glyph-name="backslash" unicode="\" horiz-adv-x="751" 
d="M459 0l-276 1658h184l276 -1658h-184z" />
    <glyph glyph-name="bracketright" unicode="]" horiz-adv-x="629" 
d="M-31 -372l12 109h229l190 1811h-229l11 110h442l-213 -2030h-442z" />
    <glyph glyph-name="asciicircum" unicode="^" horiz-adv-x="898" 
d="M125 1003l342 655h215l205 -655h-201l-128 498l-232 -498h-201z" />
    <glyph glyph-name="underscore" unicode="_" horiz-adv-x="702" 
d="M-77 -269l17 161h702l-16 -161h-703z" />
    <glyph glyph-name="grave" unicode="`" horiz-adv-x="560" 
d="M422 1254l-181 404h213l75 -404h-107z" />
    <glyph glyph-name="a" unicode="a" horiz-adv-x="866" 
d="M272 -17q-101 1 -161 83q-51 70 -51 158q0 16 2 33q6 60 26 111.5t39.5 88t66.5 75t73 58.5t95.5 53t98 45t114.5 46q5 2 7 3l9 85q5 49 5 86q0 54 -11 84q-19 50 -92 49q-129 0 -146 -171l-7 -58l-209 8q1 5 3 20.5t3 22.5q28 177 125 257.5t261 80.5q170 1 235 -93
q50 -72 50 -200q0 -39 -5 -84l-57 -545q-11 -103 -11 -215q0 -32 1 -64h-193q-10 101 -10 174q-34 -81 -101 -136t-160 -55zM375 167q44 0 89 33.5t69 68.5l36 338q-7 -3 -19 -10q-53 -28 -79 -42.5t-66.5 -43t-61 -52.5t-38.5 -60.5t-22 -77.5q-2 -17 -2 -32q0 -51 19 -82
q24 -40 75 -40z" />
    <glyph glyph-name="b" unicode="b" horiz-adv-x="910" 
d="M477 -17q-106 0 -190 105l-9 -88h-212l174 1658h212l-59 -568q107 111 236 111q58 0 102 -22t68 -61.5t38.5 -83.5t17.5 -99q2 -41 2 -75v-22q-1 -42 -6 -86l-30 -282q-51 -487 -344 -487zM453 150q28 0 50 10.5t37.5 32.5t26.5 47.5t19 66t13 75.5t10 87l30 283
q7 80 7 143t-26.5 101t-81.5 38q-75 0 -158 -64l-81 -765q67 -55 154 -55z" />
    <glyph glyph-name="c" unicode="c" horiz-adv-x="836" 
d="M381 -17q-106 0 -172.5 34t-94.5 95q-28 62 -34 148q-2 27 -2 57q0 63 10 136l29 275q13 120 35.5 201.5t66 146t115 95t175.5 30.5q95 0 156 -24.5t91 -71.5t38 -117q4 -31 3 -65q0 -45 -6 -96l-8 -69h-192l8 70q5 45 5 80q0 58 -14 88q-22 48 -94 48q-82 0 -114 -57
t-48 -216l-39 -370q-7 -64 -7 -110q0 -65 14 -97q22 -54 100 -54q33 0 57 10.5t39 27t25.5 46t15.5 58t10 72.5l10 92h192l-8 -79q-10 -95 -32 -162.5t-63 -119t-107.5 -77t-159.5 -25.5z" />
    <glyph glyph-name="d" unicode="d" horiz-adv-x="899" 
d="M334 -17h-3q-151 0 -209 111q-40 77 -41 223q0 67 9 149l24 229q9 89 23 159t40 137t62 111.5t91 71.5t125 27q106 -1 189 -93l57 550h212l-174 -1658h-212l8 76q-96 -93 -201 -93zM405 150q65 0 143 48l82 780q-69 56 -136 56q-39 0 -68 -19.5t-47 -56t-28.5 -80
t-16.5 -101.5l-35 -329q-7 -78 -7 -139v-15q1 -66 28.5 -105t84.5 -39z" />
    <glyph glyph-name="e" unicode="e" horiz-adv-x="856" 
d="M386 -17q-102 0 -167 30t-97 89q-32 60 -40 148q-3 32 -2 68q0 63 8 137l29 274q13 123 38.5 208t71.5 146t116.5 89.5t169.5 28.5q107 0 171.5 -34.5t90.5 -100.5q25 -66 29 -162q1 -18 1 -37q0 -81 -12 -180l-11 -97h-468l-17 -160q-3 -34 -4.5 -49t-3.5 -44
t-1.5 -42.5t1 -37t4.5 -34.5t9.5 -27.5t14.5 -24.5t20.5 -16.5t27.5 -11.5t36 -3q71 0 104 49t43 149l8 73h207l-6 -48q-39 -380 -371 -380zM327 705h260l10 107q6 56 6 100q-1 14 -1 26q-2 52 -27.5 79t-79.5 27q-80 0 -112.5 -57t-49.5 -216z" />
    <glyph glyph-name="f" unicode="f" horiz-adv-x="584" 
d="M133 0l108 1026h-143l16 158h143l8 68q7 70 17 119t30.5 95.5t50.5 74t78 44t113 16.5q47 0 138 -12l-17 -158q-8 1 -37 5.5t-43 4.5q-60 0 -83.5 -37.5t-31.5 -116.5l-12 -103h182l-16 -158h-182l-108 -1026h-211z" />
    <glyph glyph-name="g" unicode="g" horiz-adv-x="890" 
d="M387 -369q-64 0 -112 2.5t-100.5 9t-88 19.5t-65 33t-41.5 51q-9 23 -10 52q0 9 1 19q10 91 66.5 159t135.5 107q-54 17 -81 51q-23 28 -23 62q0 6 1 13q6 60 43 107t112 109q-65 55 -90 137q-16 52 -16 124q0 43 6 94q21 205 116.5 313t258.5 108q182 0 232 -132
q16 21 66.5 59.5t105.5 62.5l36 15l38 -138q-43 -9 -117 -36.5t-92 -41.5q11 -36 15 -102q2 -29 2 -55q0 -33 -3 -60q-20 -194 -107.5 -302t-262.5 -108q-19 0 -63 6.5t-49 8.5q0 -1 -14 -20.5t-19 -27t-12.5 -23t-8.5 -26.5q-1 -22 21.5 -34t73.5 -17q6 -2 92.5 -10
t89.5 -9q249 -26 249 -243q0 -21 -2 -43q-17 -157 -110.5 -225.5t-273.5 -68.5zM403 -201q97 0 147 28.5t57 91.5q1 9 1 17q0 44 -28 68q-32 28 -127 40l-182 15q-35 -24 -70 -67t-40 -92q-1 -7 -1 -14q0 -28 13 -44q16 -20 70.5 -31.5t159.5 -11.5zM428 514q38 0 66.5 12.5
t46.5 33.5t31 56.5t19.5 72.5t12.5 91q6 66 6 118v26q-2 60 -31.5 94.5t-90.5 34.5q-89 0 -126.5 -66.5t-52.5 -206.5q-5 -56 -5 -104q0 -16 1 -30q2 -59 32.5 -95.5t90.5 -36.5z" />
    <glyph glyph-name="h" unicode="h" horiz-adv-x="905" 
d="M68 0l174 1658h212l-63 -597q160 140 310 140q50 0 84.5 -21.5t48.5 -55.5t20 -78q3 -20 3 -41q0 -24 -4 -48l-101 -957h-212l94 896q3 23 3 42q0 40 -12 62q-17 34 -71 34q-73 0 -175 -82l-99 -952h-212z" />
    <glyph glyph-name="i" unicode="i" horiz-adv-x="463" 
d="M77 0l124 1184h212l-124 -1184h-212zM220 1358l24 227h213l-24 -227h-213z" />
    <glyph glyph-name="j" unicode="j" horiz-adv-x="468" 
d="M-117 -287l17 153q30 -5 56 -5q68 0 100 38t39 107l124 1178h212l-126 -1200q-15 -137 -98 -210.5t-217 -73.5q-73 0 -107 13zM237 1358l24 227h214l-24 -227h-214z" />
    <glyph glyph-name="k" unicode="k" horiz-adv-x="872" 
d="M66 3l175 1658h212l-105 -996l382 518l222 1l-329 -464l196 -720h-212l-159 611l-122 -157l-48 -451h-212z" />
    <glyph glyph-name="l" unicode="l" horiz-adv-x="464" 
d="M83 0l174 1658h213l-174 -1658h-213z" />
    <glyph glyph-name="m" unicode="m" horiz-adv-x="1359" 
d="M63 0l124 1184h211l-11 -116q153 133 301 133q133 0 152 -145q162 145 315 145q50 0 84 -21.5t48.5 -55.5t20.5 -78q3 -20 3 -41q0 -24 -4 -48l-101 -957h-212l94 896q2 21 2 39q0 42 -12 66q-16 33 -71 33q-69 0 -168 -78q0 -2 -0.5 -10t-0.5 -10l-99 -936h-212l94 896
q2 21 2 39q1 42 -11 66q-16 33 -72 33q-68 0 -165 -76l-101 -958h-211z" />
    <glyph glyph-name="n" unicode="n" horiz-adv-x="893" 
d="M63 0l124 1184h211l-12 -117q158 134 304 134q50 0 84 -21.5t48 -55.5t20 -78q2 -19 3 -39q0 -25 -4 -50l-100 -957h-212l94 896q2 21 2 39q1 42 -11 66q-16 33 -72 33q-69 0 -167 -77l-101 -957h-211z" />
    <glyph glyph-name="o" unicode="o" horiz-adv-x="863" 
d="M397 140q27 0 48.5 8.5t36.5 19.5t26.5 34t18.5 40.5t13 51.5t8.5 54t6.5 59l39 368q4 38 5.5 59t2.5 54.5t-2 51.5t-10 41t-19.5 34.5t-32 20t-46.5 8.5q-31 0 -55 -9.5t-40 -30.5t-26.5 -41.5t-18 -56.5t-11 -61.5t-7.5 -69.5l-39 -368q-4 -39 -5.5 -59.5t-2.5 -53.5
t2 -51t10 -41t19.5 -34.5t32 -19.5t46.5 -8zM380 -17q-96 0 -160.5 30.5t-96 87.5t-41.5 138q-4 35 -4 74q0 51 7 108l35 341q23 215 112.5 327t275.5 112q96 0 161 -31t97 -88t42 -138q5 -36 4 -76q0 -50 -7 -106l-36 -341q-11 -105 -36.5 -182.5t-70.5 -136.5t-115.5 -89
t-166.5 -30z" />
    <glyph glyph-name="p" unicode="p" horiz-adv-x="908" 
d="M22 -390l165 1574h212l-9 -95q108 112 236 112q51 0 90.5 -17.5t64 -44.5t41 -67t23.5 -79t9 -86q1 -27 1 -50q-1 -17 -1 -32q-2 -35 -5 -73l-30 -282q-51 -487 -344 -487q-106 0 -191 106l-50 -479h-212zM451 150q34 0 59 17t40 42t27 70.5t17.5 85.5t12.5 104l30 283
q7 80 7 143t-26.5 101t-81.5 38q-73 0 -159 -64l-81 -764q69 -56 155 -56z" />
    <glyph glyph-name="q" unicode="q" horiz-adv-x="901" 
d="M489 -390l49 466q-96 -93 -201 -93h-3q-152 -1 -210 111q-40 76 -40 220q0 68 9 152l23 229q9 89 23.5 158.5t40.5 137t62 112t91 71.5t125 27q107 -1 188 -93l8 76h212l-165 -1574h-212zM407 150q66 0 144 48l81 780q-67 56 -136 56q-39 0 -67.5 -19t-46.5 -56
t-28.5 -80.5t-16.5 -101.5l-35 -329q-7 -78 -7 -139v-15q1 -66 28 -105t84 -39z" />
    <glyph glyph-name="r" unicode="r" horiz-adv-x="653" 
d="M69 0l124 1184h212l-17 -168q128 183 281 183q5 0 35 -2l-25 -234q-51 22 -112 22q-56 0 -102 -25t-93 -90l-91 -870h-212z" />
    <glyph glyph-name="s" unicode="s" horiz-adv-x="762" 
d="M334 -17q-144 0 -222 91q-75 87 -75 228v15l182 53q1 -118 34.5 -174t106.5 -56q61 0 102.5 39.5t44.5 99.5q1 7 1 13q0 84 -82 160l-180 169q-67 63 -98 129q-22 48 -22 111q0 24 3 50q18 138 106.5 214t226.5 76q134 1 202 -87q65 -84 64 -213v-12l-149 -53
q-2 102 -30.5 155t-94.5 53q-56 0 -93 -35.5t-42 -87.5q-1 -7 -1 -14q0 -64 51 -113l186 -188q71 -70 109 -144q30 -58 30 -136q0 -21 -2 -42q-15 -147 -111.5 -224t-246.5 -77z" />
    <glyph glyph-name="t" unicode="t" horiz-adv-x="625" 
d="M372 -16q-134 0 -184 70q-40 56 -41 156q0 26 3 54l82 778h-126l15 142h125l37 347h212l-37 -347h191l-14 -142h-191l-81 -763q-2 -20 -2 -37q0 -45 14 -66q19 -29 82 -29q49 0 83 6l-17 -158q-86 -11 -151 -11z" />
    <glyph glyph-name="u" unicode="u" horiz-adv-x="895" 
d="M230 -17q-50 0 -83.5 21.5t-48 55.5t-20.5 78q-3 20 -3 41q0 24 4 48l100 957h212l-94 -896q-2 -21 -2 -38q0 -42 12 -66q17 -34 72 -34q69 0 166 78l100 956h212l-124 -1184h-212l13 118q-155 -135 -304 -135z" />
    <glyph glyph-name="v" unicode="v" horiz-adv-x="785" 
d="M219 0l-112 1184h213l51 -959l251 959h206l-350 -1184h-259z" />
    <glyph glyph-name="w" unicode="w" horiz-adv-x="1201" 
d="M200 0l-66 1184h175l33 -884l253 884h163l68 -881l218 881h174l-319 -1184h-181l-74 848l-251 -848h-193z" />
    <glyph glyph-name="x" unicode="x" horiz-adv-x="794" 
d="M-28 0l331 622l-202 562h205l136 -381l197 381h209l-332 -588l213 -596h-202l-147 408l-208 -408h-200z" />
    <glyph glyph-name="y" unicode="y" horiz-adv-x="799" 
d="M12 -296l17 161q76 0 120.5 6t70 23.5t32.5 43.5q4 15 4 38q0 16 -2 34q-9 77 -20 163l-133 1011h215l70 -897l252 897h215l-415 -1251q-42 -125 -137.5 -177t-260.5 -52h-28z" />
    <glyph glyph-name="z" unicode="z" horiz-adv-x="707" 
d="M17 0l15 143l460 882h-330l16 159h557l-12 -116l-462 -908h359l-17 -160h-586z" />
    <glyph glyph-name="braceleft" unicode="{" horiz-adv-x="606" 
d="M470 -387q-67 0 -112.5 2t-84.5 11.5t-62 20.5t-40 36.5t-23.5 51t-7.5 73.5v21q0 37 2 74q4 47 12 123l30 286q6 70 8 113q0 13 1 25q-1 28 -3 50q-4 32 -16.5 45.5t-31 19.5t-50.5 6l16 148q53 0 78.5 19t40.5 71.5t27 168.5l30 283q8 76 14 123t17.5 95t23.5 73.5
t34.5 51t47.5 36.5t66 20.5t87 11.5t113 2l-16 -157q-100 0 -122.5 -38t-41.5 -218l-34 -315q-15 -146 -56.5 -215.5t-109.5 -85.5q65 -17 92 -86q17 -43 17 -117q0 -44 -6 -98l-33 -318q-14 -88 -14 -142q0 -16 1 -28q5 -56 28 -70.5t95 -14.5z" />
    <glyph glyph-name="bar" unicode="|" horiz-adv-x="485" 
d="M63 -303l207 1962h197l-207 -1962h-197z" />
    <glyph glyph-name="braceright" unicode="}" horiz-adv-x="648" 
d="M-3 -387l17 158q82 0 108 21q29 24 42 113q4 31 14 121l33 318q16 146 58 215t110 86q-65 15 -93 85q-18 45 -17 122q0 42 5 94l34 315q12 116 12 167q0 19 -2 29q-7 43 -45 54q-23 6 -75 6l16 157q54 0 92.5 -1.5t74 -7t59 -11.5t43.5 -20.5t31 -28.5t19 -41
q9 -26 11 -52q2 -18 1 -46v-22q-1 -42 -4.5 -82t-9.5 -101l-30 -283q-11 -78 -11 -129q0 -21 2 -37q6 -58 27 -75.5t74 -17.5l-16 -148q-53 0 -78.5 -19t-40.5 -71.5t-27 -168.5l-30 -286q-7 -61 -12 -100.5t-13 -82t-15.5 -68t-21 -52.5t-28 -41t-37.5 -28.5t-47.5 -20.5
t-61 -11.5t-75.5 -7t-93 -1.5z" />
    <glyph glyph-name="asciitilde" unicode="~" horiz-adv-x="907" 
d="M631 745q-42 0 -97 29.5t-107 59t-88 29.5q-54 0 -157 -79l-65 102q59 54 133 100.5t122 46.5q42 0 96 -29t106 -58t88 -29q19 0 46.5 13t46 26t59.5 42l67 -98q-58 -59 -128.5 -107t-121.5 -48z" />
    <glyph glyph-name="uni00A0" unicode="&#xa0;" horiz-adv-x="463" 
 />
    <glyph glyph-name="exclamdown" unicode="&#xa1;" horiz-adv-x="424" 
d="M17 -367l208 1303h75l-68 -1303h-215zM169 1070l23 221h215l-24 -221h-214z" />
    <glyph glyph-name="cent" unicode="&#xa2;" horiz-adv-x="793" 
d="M298 -166l17 152q-84 10 -136 48.5t-73 98.5q-22 59 -26 141q-1 20 -1 42q0 64 9 137l29 275q9 88 23 153t38.5 123t59.5 96.5t86.5 63.5t119.5 33l15 150h70l-16 -147q94 -1 154 -25t89.5 -71.5t37.5 -116.5q3 -29 3 -62q0 -45 -6 -98l-8 -69h-192l8 70q5 45 5 80
q0 58 -14 88q-22 48 -94 48q-82 0 -114 -57t-48 -216l-39 -370q-7 -64 -7 -110q0 -65 14 -97q22 -54 100 -54q33 0 57 10.5t39 27t25.5 46t15.5 58t10 72.5l10 92h192l-8 -79q-10 -95 -32 -162t-63 -119t-106.5 -77.5t-158.5 -25.5l-16 -149h-69z" />
    <glyph glyph-name="sterling" unicode="&#xa3;" horiz-adv-x="811" 
d="M-43 0l11 106l126 52l60 571h-120l16 158h120l21 194q8 76 17 134t24.5 123t35 112t50.5 91.5t69.5 72.5t92 44.5t118.5 16.5q253 0 253 -284q0 -33 -3 -70l-7 -66h-159q5 65 5 120t-26.5 91t-80.5 36q-35 0 -61.5 -17t-42.5 -41.5t-28 -65t-18 -73.5t-12 -82l-35 -336
h247l-16 -158h-247l-60 -570h418l-17 -159h-751z" />
    <glyph glyph-name="currency" unicode="&#xa4;" horiz-adv-x="1121" 
d="M97 381l-27 30l180 162q-83 105 -83 242q0 25 3 51q18 169 142 293l-146 162l33 30l145 -162q135 115 302 115h2.5h3.5q169 0 278 -115l179 162l27 -30l-179 -162q82 -105 82 -241q0 -25 -3 -52q-18 -169 -142 -293l146 -162l-33 -30l-145 162q-133 -115 -302 -115h-2.5
h-3.5q-167 0 -278 115zM567 514q144 0 253 103t125 249q2 21 2 42q0 120 -75 208q-88 102 -232 102t-253 -103t-124 -249q-2 -21 -2 -42q1 -119 75 -207q88 -103 231 -103z" />
    <glyph glyph-name="yen" unicode="&#xa5;" horiz-adv-x="931" 
d="M330 0l25 234h-185l15 139h184l15 138h-184l14 138h162l-232 1009h209l173 -811l338 811h212l-441 -1009h161l-15 -138h-183l-15 -138h183l-14 -139h-183l-25 -234h-214z" />
    <glyph glyph-name="brokenbar" unicode="&#xa6;" horiz-adv-x="433" 
d="M49 -318l89 839h170l-88 -839h-171zM169 819l87 839h171l-87 -839h-171z" />
    <glyph glyph-name="section" unicode="&#xa7;" horiz-adv-x="868" 
d="M385 -17q-74 0 -131.5 25t-94 70t-58 99t-30.5 120l166 53q18 -80 58 -136t110 -56q62 0 103 31t52 91q3 17 3 33q-1 29 -11 55q-16 40 -67 85l-217 156q-76 51 -112 113q-29 48 -28 115q0 18 2 38q10 99 63.5 167t138.5 102q-140 97 -140 229q0 13 1 26
q13 128 114 201.5t255 73.5q74 0 131 -25t93 -69t57 -96.5t30 -116.5l-166 -54q-9 36 -19.5 63.5t-29.5 58.5t-48 48t-66 17q-60 0 -97.5 -33t-43.5 -94q-1 -7 -1 -13q0 -57 62 -107l244 -172q117 -86 117 -234q0 -24 -3 -50q-20 -172 -177 -256q39 -37 63 -68t42 -81
q13 -37 13 -76q0 -13 -2 -27q-15 -147 -117.5 -226.5t-258.5 -79.5zM514 658q42 18 76.5 55t40.5 84q2 11 2 22q1 29 -11 59q-16 40 -54 70l-109 84q-44 -21 -78 -63t-40 -93q-1 -7 -1 -15q0 -25 11 -49q14 -31 38 -50z" />
    <glyph glyph-name="dieresis" unicode="&#xa8;" horiz-adv-x="816" 
d="M226 1437l24 221h213l-23 -221h-214zM576 1437l23 221h215l-24 -221h-214z" />
    <glyph glyph-name="copyright" unicode="&#xa9;" horiz-adv-x="1765" 
d="M860 253q-117 0 -191 35.5t-104.5 99.5t-38.5 155q-3 32 -3 66q0 64 10 136l23 221q11 100 28 173t48.5 136.5t77.5 102t115 60.5t162 22q106 0 173.5 -24.5t101.5 -73.5q33 -50 42 -122q4 -33 4 -70q0 -46 -6 -98l-6 -56h-207l6 57q4 41 4 75q1 68 -17 100
q-26 49 -108 49q-92 0 -130 -61t-55 -225l-34 -320q-6 -60 -6 -105q-1 -76 17 -112q28 -57 117 -57q87 0 120.5 53.5t45.5 168.5l7 65h207l-5 -51q-10 -100 -33.5 -170t-68.5 -124t-118.5 -80t-177.5 -26zM846 65q146 0 272 43.5t217 118t159.5 175t107 211.5t51.5 231
q5 53 5 105q0 64 -8 126q-15 111 -62 210.5t-122.5 173.5t-192.5 117t-263 43q-147 0 -273 -43t-217.5 -117t-159.5 -173.5t-106 -210.5t-50 -231q-6 -57 -6 -111q0 -61 8 -120q14 -111 61 -211.5t122.5 -175t192.5 -118t264 -43.5zM832 -22q-107 0 -201 20t-166.5 56.5
t-133 87.5t-101.5 112.5t-72 132t-44.5 146t-19.5 153.5q-2 26 -1 53q0 52 7 104q13 129 54.5 250.5t118 234t179 196.5t247.5 134t315 50q169 0 303.5 -50t219 -134t137.5 -196q52 -112 68 -234q9 -67 9 -137q0 -56 -6 -114q-14 -129 -55 -250.5t-117 -234t-178.5 -196.5
t-247.5 -134t-315 -50z" />
    <glyph glyph-name="ordfeminine" unicode="&#xaa;" horiz-adv-x="901" 
d="M385 661q-91 -1 -143 63q-43 52 -43 129q0 16 2 33q7 62 34.5 111.5t58 80.5t93 62.5t100.5 45.5t120 42q9 3 14 4.5t13 4.5t14 5l11 106q3 35 3 65q0 15 -1 29q-2 40 -20.5 64t-54.5 24q-110 0 -129 -180h-174q19 153 103 243t218 90q109 0 166 -46q58 -45 70 -133
q6 -42 6 -93q0 -55 -7 -121l-65 -616h-170l12 129q-37 -62 -99 -102t-132 -40zM470 823q42 0 81 28.5t63 69.5l25 237q-43 -22 -62 -31.5t-53.5 -29.5t-51 -35t-36.5 -36t-29 -44.5t-12 -51.5q-1 -11 -1 -22q0 -36 16 -57q21 -28 60 -28z" />
    <glyph glyph-name="guillemotleft" unicode="&#xab;" horiz-adv-x="926" 
d="M360 92l-286 465l11 103l384 465l-28 -266l-199 -249l146 -252zM753 92l-288 465l11 103l386 465l-28 -266l-200 -249l147 -252z" />
    <glyph glyph-name="logicalnot" unicode="&#xac;" horiz-adv-x="788" 
d="M628 528l24 229h-539l17 161h651l-42 -390h-111z" />
    <glyph glyph-name="uni00AD" unicode="&#xad;" horiz-adv-x="702" 
d="M168 937l16 160h470l-17 -160h-469z" />
    <glyph glyph-name="registered" unicode="&#xae;" horiz-adv-x="1816" 
d="M581 290l115 1096h323q310 0 310 -260q0 -27 -3 -56q-20 -195 -203 -265l143 -515h-193l-124 478h-132l-51 -478h-185zM827 870h78q122 0 171 45t61 159q2 22 2 41q1 64 -25 100q-34 47 -125 47h-121zM868 74q141 0 262.5 42.5t209.5 114.5t153.5 169.5t102.5 205.5
t49 224q6 54 6 105q0 60 -8 119q-14 108 -59.5 205t-118 168.5t-185.5 113.5t-254 42q-142 0 -264.5 -42t-210.5 -113.5t-154 -168.5t-102.5 -205t-48.5 -224q-6 -54 -6 -105q0 -60 8 -119q14 -108 59.5 -205.5t118.5 -169.5t186.5 -114.5t255.5 -42.5zM857 -27
q-168 0 -301.5 50t-217.5 133t-136 194.5t-68 231.5q-9 66 -9 135q0 56 6 113q13 128 54.5 248.5t117 232t177 194.5t245.5 132.5t313 49.5q106 0 199 -20t164 -56t131 -86t100.5 -111t71.5 -131t44.5 -144.5t18.5 -152.5q2 -26 2 -52q0 -52 -7 -104q-13 -128 -54 -248
t-116.5 -231.5t-177 -195t-245.5 -133t-312 -49.5z" />
    <glyph glyph-name="macron" unicode="&#xaf;" horiz-adv-x="623" 
d="M244 1529l13 129h392l-14 -129h-391z" />
    <glyph glyph-name="degree" unicode="&#xb0;" horiz-adv-x="919" 
d="M530 1136q83 0 137 54t64 145q2 16 2 31q1 70 -35 114q-42 54 -127 53q-83 0 -136 -53.5t-63 -144.5q-2 -16 -2 -31q0 -70 35 -114q42 -54 125 -54zM515 995q-157 1 -239 91q-68 76 -68 199q0 24 3 51q17 159 118.5 248.5t256.5 89.5q158 0 240 -90q69 -75 69 -198
q0 -24 -3 -50q-17 -160 -119 -250.5t-258 -90.5z" />
    <glyph glyph-name="plusminus" unicode="&#xb1;" horiz-adv-x="748" 
d="M283 359l19 180h-180l18 162h180l18 179h163l-18 -179h180l-18 -162h-180l-19 -180h-163zM66 0l17 163h523l-17 -163h-523z" />
    <glyph glyph-name="twosuperior" unicode="&#xb2;" horiz-adv-x="828" 
d="M178 701l13 127l318 414q7 9 38 48.5t41 54.5t29.5 47.5t28 60.5t11.5 60q2 16 2 31q-1 52 -23 80q-26 34 -77 34h-11q-69 -4 -101.5 -52.5t-45.5 -164.5h-148l4 38q34 314 311 314q128 -1 194 -73q54 -60 53 -159q0 -21 -2 -45q-5 -47 -20 -90t-44.5 -91.5t-51 -78
t-65.5 -87.5l-262 -340h337l-13 -128h-516z" />
    <glyph glyph-name="threesuperior" unicode="&#xb3;" horiz-adv-x="830" 
d="M436 685q-237 0 -237 238q0 28 3 59l3 26h157l-3 -31q-3 -24 -3 -44q0 -49 16 -77q22 -38 83 -39q121 0 140 182q3 27 3 50q0 149 -112 149h-67l11 109h65q69 0 103 46.5t45 153.5q3 22 3 41q0 117 -95 117q-63 0 -93.5 -36.5t-38.5 -110.5l-4 -39h-158l5 41
q13 130 90 201.5t211 71.5q129 0 189 -74q50 -61 49 -159q0 -21 -2 -44q-11 -108 -56.5 -175t-101.5 -80q111 -44 111 -201q0 -27 -3 -56q-15 -146 -93 -232.5t-220 -86.5z" />
    <glyph glyph-name="acute" unicode="&#xb4;" horiz-adv-x="559" 
d="M196 1254l163 404h212l-268 -404h-107z" />
    <glyph glyph-name="mu" unicode="&#xb5;" horiz-adv-x="900" 
d="M19 -359l160 1543h212l-94 -896q-2 -21 -2 -38q0 -42 12 -66q17 -34 72 -34q69 0 166 78l100 956h212l-124 -1184h-212l13 118q-108 -98 -223 -123q-23 -5 -42 0l-36 -354h-214z" />
    <glyph glyph-name="paragraph" unicode="&#xb6;" horiz-adv-x="1006" 
d="M338 -195l132 1253q-154 0 -240 78q-73 66 -73 179q0 20 2 41q16 151 121 226.5t284 75.5h436l-195 -1853h-152l185 1751h-164l-185 -1751h-151z" />
    <glyph glyph-name="periodcentered" unicode="&#xb7;" horiz-adv-x="363" 
d="M101 661l23 221h212l-22 -221h-213z" />
    <glyph glyph-name="cedilla" unicode="&#xb8;" horiz-adv-x="512" 
d="M-38 -455l12 107q54 -12 103 -14h9q44 0 78 17q38 19 42 55q3 23 -5 41t-20 29t-37.5 22t-44 16.5t-51.5 13.5l18 168h107l-11 -114q88 -14 148 -59q56 -42 56 -106v-9q-4 -61 -40.5 -104.5t-92.5 -62t-127 -20.5h-12q-65 0 -132 20z" />
    <glyph glyph-name="onesuperior" unicode="&#xb9;" horiz-adv-x="818" 
d="M404 701l95 908q-20 -26 -85 -52.5t-107 -36.5l12 120q163 64 224 141h132l-113 -1080h-158z" />
    <glyph glyph-name="ordmasculine" unicode="&#xba;" horiz-adv-x="901" 
d="M484 815q37 0 63.5 13.5t42 33t26.5 55t15.5 64t9.5 75.5l24 230q5 66 7 120v6q0 50 -26 82q-27 34 -87 33q-36 0 -63 -13.5t-43.5 -33.5t-27.5 -54.5t-16 -64.5t-10 -75l-24 -230q-4 -37 -5 -62.5t0 -56t8 -50.5t19.5 -37.5t34.5 -26t52 -8.5zM471 659q-169 -1 -231 95
q-47 73 -47 198q0 38 4 82l29 275q19 183 101 278.5t252 95.5q161 1 227 -99q51 -78 52 -203q0 -34 -4 -72l-30 -275q-17 -175 -103.5 -275t-249.5 -100z" />
    <glyph glyph-name="guillemotright" unicode="&#xbb;" horiz-adv-x="976" 
d="M78 92l28 266l217 251l-165 250l28 266l305 -465l-10 -103zM470 92l28 266l216 251l-163 250l28 266l303 -465l-10 -103z" />
    <glyph glyph-name="onequarter" unicode="&#xbc;" horiz-adv-x="1643" 
d="M1205 -1l27 248h-300l12 110l373 564l147 1l-58 -565h120l-12 -110h-120l-27 -248h-162zM276 785l65 609l-127 -15l13 112q157 74 244 167h58l-92 -873h-161zM356 0l717 1658h178l-718 -1658h-177zM1073 357h171l35 338z" />
    <glyph glyph-name="onehalf" unicode="&#xbd;" horiz-adv-x="1643" 
d="M987 2l12 110l219 261q5 5 35 40t39.5 48t29 42.5t28.5 56t12 56.5t3 56q-1 4 -1 8q0 29 -15 47t-47 18q-25 0 -42 -9.5t-26.5 -30t-13.5 -41t-7 -52.5h-161q0 2 0.5 7.5t0.5 6.5q15 110 82 169.5t178 59.5q112 -1 167 -63q46 -52 46 -139q0 -17 -2 -36
q-9 -84 -62 -162.5t-144 -172.5q-80 -80 -155 -170h303l-12 -110h-467zM280 785l64 609l-127 -15l12 112q159 73 244 167h59l-92 -873h-160zM363 0l718 1658h178l-718 -1658h-178z" />
    <glyph glyph-name="threequarters" unicode="&#xbe;" horiz-adv-x="1643" 
d="M364 821q-112 0 -166 62q-44 51 -44 137q0 18 2 36l162 -1q-3 -34 -3 -61.5t15.5 -45.5t46.5 -18q44 0 62 33.5t25 99.5q2 16 2 30q0 47 -19 71q-24 30 -90 31l11 110q67 0 96.5 29t37.5 103q3 35 3 63.5t-14.5 46.5t-44.5 18q-45 0 -62.5 -31.5t-24.5 -93.5h-162
q12 111 79 173t181 62q111 0 165 -63q44 -51 44 -136q0 -19 -2 -39q-9 -88 -60.5 -135t-129.5 -52q78 -6 120 -52q34 -37 34 -104q0 -15 -2 -31q-12 -114 -80 -178t-182 -64zM1260 -1l26 248h-300l12 110l374 564h146l-59 -564h121l-12 -110h-121l-26 -248h-161zM424 0
l718 1658h178l-718 -1658h-178zM1128 357h170l35 338z" />
    <glyph glyph-name="questiondown" unicode="&#xbf;" horiz-adv-x="1031" 
d="M450 -396q-194 0 -292 112q-80 92 -80 246q0 33 4 69q6 56 21.5 108t36 95.5t54 89.5t64 81.5t76.5 80t82 76.5t91 80q20 17 30 26l20 201h189l-27 -255q-91 -72 -156 -132.5t-128 -135t-100 -155.5t-46 -166q-2 -19 -2 -36q0 -81 42 -135q51 -66 143 -65q96 0 148 57
q47 51 48 131q0 9 -1 19l-3 74l201 37l6 -70q3 -27 3 -52q0 -161 -104 -263q-120 -118 -320 -118zM563 1063l24 220h212l-23 -220h-213z" />
    <glyph glyph-name="Agrave" unicode="&#xc0;" horiz-adv-x="1004" 
d="M588 1797l-181 404h213l75 -404h-107zM-9 0l528 1658h217l180 -1658h-214l-32 421h-343l-123 -421h-213zM373 581h285l-63 763z" />
    <glyph glyph-name="Aacute" unicode="&#xc1;" horiz-adv-x="1004" 
d="M587 1797l164 404h212l-268 -404h-108zM-9 0l528 1658h217l180 -1658h-214l-32 421h-343l-123 -421h-213zM373 581h285l-63 763z" />
    <glyph glyph-name="Acircumflex" unicode="&#xc2;" horiz-adv-x="1004" 
d="M356 1797l214 358h217l140 -358h-159l-100 252l-153 -252h-159zM-9 0l528 1658h217l180 -1658h-214l-32 421h-343l-123 -421h-213zM373 581h285l-63 763z" />
    <glyph glyph-name="Atilde" unicode="&#xc3;" horiz-adv-x="1004" 
d="M774 1797q-40 0 -89 25t-92 50t-68 26q-27 2 -42.5 -18t-19.5 -65h-122q9 98 57 159q45 58 133 58h9q52 -1 140 -49.5t109 -48.5q26 -2 39.5 17.5t18.5 67.5h120q-5 -48 -16.5 -85.5t-33 -70t-57.5 -50.5q-35 -17 -81 -16h-5zM-9 0l528 1658h217l180 -1658h-214l-32 421
h-343l-123 -421h-213zM373 581h285l-63 763z" />
    <glyph glyph-name="Adieresis" unicode="&#xc4;" horiz-adv-x="1004" 
d="M359 1797l23 221h213l-23 -221h-213zM708 1797l24 221h214l-23 -221h-215zM-9 0l528 1658h217l180 -1658h-214l-32 421h-343l-123 -421h-213zM373 581h285l-63 763z" />
    <glyph glyph-name="Aring" unicode="&#xc5;" horiz-adv-x="1004" 
d="M639 1768q53 0 88 31t41 87q1 8 1 16q0 44 -24 70q-28 31 -82 31t-88.5 -31t-39.5 -86q-1 -10 -1 -19q0 -42 23 -68q28 -31 82 -31zM628 1660q-101 0 -157 62q-46 51 -46 131q0 16 2 33q10 102 78 163t169 61t157 -60q48 -51 48 -134q0 -15 -2 -30q-11 -103 -80 -164.5
t-169 -61.5zM-9 0l528 1658h217l180 -1658h-214l-32 421h-343l-123 -421h-213zM373 581h285l-63 763z" />
    <glyph glyph-name="AE" unicode="&#xc6;" horiz-adv-x="1299" 
d="M-149 0l869 1658h644l-16 -161h-425l-58 -558h304l-17 -160h-304l-65 -618h424l-17 -161h-637l45 422h-313l-222 -422h-212zM362 584h252l71 673z" />
    <glyph glyph-name="Ccedilla" unicode="&#xc7;" horiz-adv-x="1050" 
d="M322 -455l12 107q54 -12 103 -14h9q44 0 78 17q38 19 42 55q3 23 -5 41t-20 29t-37.5 22t-44 16.5t-51.5 13.5l18 168h107l-11 -114q88 -14 148 -59q56 -42 56 -106v-9q-4 -61 -40.5 -104.5t-92.5 -62t-127 -20.5h-12q-65 0 -132 20zM492 -18q-103 0 -178 27.5
t-118.5 76.5t-68 117.5t-26.5 150.5v33q0 67 6 142l63 594q14 132 44.5 228t87 171.5t148.5 114t220 38.5q114 0 192 -32t119 -95.5t54 -149.5q7 -44 7 -96q0 -48 -6 -104l-14 -129h-212l12 114q4 37 6 60.5t3.5 54.5t-0.5 50.5t-6.5 43.5t-13 38t-22 29t-32.5 23t-45 13
t-58 5q-58 0 -100.5 -17t-68.5 -44t-44 -74.5t-26.5 -93.5t-16.5 -117l-69 -661q-7 -62 -7 -111q0 -100 28 -150q40 -74 162 -74q47 0 82 10t59.5 33t40.5 48t27 68t17 79.5t12 94.5l12 121h212l-13 -121q-12 -119 -41 -208t-82.5 -159t-140 -106t-205.5 -36z" />
    <glyph glyph-name="Egrave" unicode="&#xc8;" 
d="M538 1797l-181 404h213l75 -404h-107zM82 0l174 1658h638l-17 -166h-414l-59 -555h337l-16 -161h-337l-65 -615h420l-18 -161h-643z" />
    <glyph glyph-name="Eacute" unicode="&#xc9;" 
d="M538 1797l164 404h212l-268 -404h-108zM82 0l174 1658h638l-17 -166h-414l-59 -555h337l-16 -161h-337l-65 -615h420l-18 -161h-643z" />
    <glyph glyph-name="Ecircumflex" unicode="&#xca;" 
d="M306 1797l214 358h217l140 -358h-159l-100 252l-153 -252h-159zM82 0l174 1658h638l-17 -166h-414l-59 -555h337l-16 -161h-337l-65 -615h420l-18 -161h-643z" />
    <glyph glyph-name="Edieresis" unicode="&#xcb;" 
d="M310 1797l23 221h213l-23 -221h-213zM659 1797l24 221h214l-23 -221h-215zM82 0l174 1658h638l-17 -166h-414l-59 -555h337l-16 -161h-337l-65 -615h420l-18 -161h-643z" />
    <glyph glyph-name="Igrave" unicode="&#xcc;" horiz-adv-x="502" 
d="M338 1797l-181 404h213l75 -404h-107zM94 0l174 1658h219l-174 -1658h-219z" />
    <glyph glyph-name="Iacute" unicode="&#xcd;" horiz-adv-x="502" 
d="M337 1797l164 404h212l-268 -404h-108zM94 0l174 1658h219l-174 -1658h-219z" />
    <glyph glyph-name="Icircumflex" unicode="&#xce;" horiz-adv-x="502" 
d="M106 1797l214 358h217l140 -358h-159l-100 252l-153 -252h-159zM94 0l174 1658h219l-174 -1658h-219z" />
    <glyph glyph-name="Idieresis" unicode="&#xcf;" horiz-adv-x="502" 
d="M109 1797l23 221h213l-23 -221h-213zM458 1797l24 221h214l-23 -221h-215zM94 0l174 1658h219l-174 -1658h-219z" />
    <glyph glyph-name="Eth" unicode="&#xd0;" horiz-adv-x="1066" 
d="M324 161h137q75 0 126.5 20.5t81.5 48.5t49.5 91t27.5 112.5t18 147.5l58 547q9 80 9 142q0 35 -3 65q-8 81 -61.5 119t-170.5 38h-133l-59 -566h128l-14 -129h-128zM82 0l84 797h-102l14 129h102l76 732h361q136 0 227 -31.5t140 -96.5q50 -64 65 -156q8 -47 8 -105
q0 -53 -7 -115l-64 -615q-29 -271 -152 -405t-374 -134h-378z" />
    <glyph glyph-name="Ntilde" unicode="&#xd1;" horiz-adv-x="1079" 
d="M811 1797q-40 0 -89 25t-92 50t-68 26q-27 2 -42.5 -18t-19.5 -65h-122q9 98 57 159q45 58 133 58h9q52 -1 140 -49.5t109 -48.5q26 -2 39.5 17.5t18.5 67.5h120q-5 -48 -16.5 -85.5t-33 -70t-57.5 -50.5q-35 -17 -81 -16h-5zM82 0l174 1658h154l359 -1119l117 1119h188
l-174 -1658h-145l-362 1150l-122 -1150h-189z" />
    <glyph glyph-name="Ograve" unicode="&#xd2;" horiz-adv-x="1101" 
d="M638 1797l-181 404h213l75 -404h-107zM519 158q69 0 116.5 21t75.5 65t42.5 96t22.5 128l76 729q6 48 6 90q0 19 -1 36q-4 56 -22.5 95.5t-62 60.5t-112.5 21t-116.5 -20t-75.5 -62.5t-42.5 -93.5t-22.5 -127l-76 -729q-5 -52 -5 -96q0 -38 4 -68q8 -68 55 -107t138 -39z
M500 -18q-124 0 -208.5 37.5t-127.5 107.5q-43 71 -58 169q-8 49 -8 104.5t8 116.5l67 634q27 257 145.5 390.5t359.5 133.5q123 0 207 -36t129 -105.5t59 -163.5q7 -49 7 -106q0 -53 -6 -113l-68 -635q-13 -125 -47 -220.5t-93 -167.5t-151 -109t-215 -37z" />
    <glyph glyph-name="Oacute" unicode="&#xd3;" horiz-adv-x="1101" 
d="M637 1797l164 404h212l-268 -404h-108zM519 158q69 0 116.5 21t75.5 65t42.5 96t22.5 128l76 729q6 48 6 90q0 19 -1 36q-4 56 -22.5 95.5t-62 60.5t-112.5 21t-116.5 -20t-75.5 -62.5t-42.5 -93.5t-22.5 -127l-76 -729q-5 -52 -5 -96q0 -38 4 -68q8 -68 55 -107t138 -39
zM500 -18q-124 0 -208.5 37.5t-127.5 107.5q-43 71 -58 169q-8 49 -8 104.5t8 116.5l67 634q27 257 145.5 390.5t359.5 133.5q123 0 207 -36t129 -105.5t59 -163.5q7 -49 7 -106q0 -53 -6 -113l-68 -635q-13 -125 -47 -220.5t-93 -167.5t-151 -109t-215 -37z" />
    <glyph glyph-name="Ocircumflex" unicode="&#xd4;" horiz-adv-x="1101" 
d="M406 1797l214 358h217l140 -358h-159l-100 252l-153 -252h-159zM519 158q69 0 116.5 21t75.5 65t42.5 96t22.5 128l76 729q6 48 6 90q0 19 -1 36q-4 56 -22.5 95.5t-62 60.5t-112.5 21t-116.5 -20t-75.5 -62.5t-42.5 -93.5t-22.5 -127l-76 -729q-5 -52 -5 -96
q0 -38 4 -68q8 -68 55 -107t138 -39zM500 -18q-124 0 -208.5 37.5t-127.5 107.5q-43 71 -58 169q-8 49 -8 104.5t8 116.5l67 634q27 257 145.5 390.5t359.5 133.5q123 0 207 -36t129 -105.5t59 -163.5q7 -49 7 -106q0 -53 -6 -113l-68 -635q-13 -125 -47 -220.5t-93 -167.5
t-151 -109t-215 -37z" />
    <glyph glyph-name="Otilde" unicode="&#xd5;" horiz-adv-x="1101" 
d="M824 1797q-40 0 -89 25t-92 50t-68 26q-27 2 -42.5 -18t-19.5 -65h-122q9 98 57 159q45 58 133 58h9q52 -1 140 -49.5t109 -48.5q26 -2 39.5 17.5t18.5 67.5h120q-5 -48 -16.5 -85.5t-33 -70t-57.5 -50.5q-35 -17 -81 -16h-5zM519 158q69 0 116.5 21t75.5 65t42.5 96
t22.5 128l76 729q6 48 6 90q0 19 -1 36q-4 56 -22.5 95.5t-62 60.5t-112.5 21t-116.5 -20t-75.5 -62.5t-42.5 -93.5t-22.5 -127l-76 -729q-5 -52 -5 -96q0 -38 4 -68q8 -68 55 -107t138 -39zM500 -18q-124 0 -208.5 37.5t-127.5 107.5q-43 71 -58 169q-8 49 -8 104.5
t8 116.5l67 634q27 257 145.5 390.5t359.5 133.5q123 0 207 -36t129 -105.5t59 -163.5q7 -49 7 -106q0 -53 -6 -113l-68 -635q-13 -125 -47 -220.5t-93 -167.5t-151 -109t-215 -37z" />
    <glyph glyph-name="Odieresis" unicode="&#xd6;" horiz-adv-x="1101" 
d="M409 1797l23 221h213l-23 -221h-213zM758 1797l24 221h214l-23 -221h-215zM519 158q69 0 116.5 21t75.5 65t42.5 96t22.5 128l76 729q6 48 6 90q0 19 -1 36q-4 56 -22.5 95.5t-62 60.5t-112.5 21t-116.5 -20t-75.5 -62.5t-42.5 -93.5t-22.5 -127l-76 -729q-5 -52 -5 -96
q0 -38 4 -68q8 -68 55 -107t138 -39zM500 -18q-124 0 -208.5 37.5t-127.5 107.5q-43 71 -58 169q-8 49 -8 104.5t8 116.5l67 634q27 257 145.5 390.5t359.5 133.5q123 0 207 -36t129 -105.5t59 -163.5q7 -49 7 -106q0 -53 -6 -113l-68 -635q-13 -125 -47 -220.5t-93 -167.5
t-151 -109t-215 -37z" />
    <glyph glyph-name="multiply" unicode="&#xd7;" horiz-adv-x="778" 
d="M211 521l-96 107l204 184l-165 184l118 107l164 -183l205 183l95 -107l-204 -184l165 -184l-118 -107l-165 184z" />
    <glyph glyph-name="Oslash" unicode="&#xd8;" horiz-adv-x="1104" 
d="M337 259l453 1210q-47 31 -130 31q-69 0 -116.5 -20t-75.5 -62.5t-42.5 -93.5t-22.5 -127l-76 -729q-6 -53 -6 -95q0 -72 16 -114zM519 158q69 0 116.5 21t75.5 65t42.5 96t22.5 128l76 729q6 52 6 94q0 63 -13 102l-451 -1206q46 -29 125 -29zM267 -153l-75 24l63 168
q-155 95 -155 362q0 54 6 116l67 634q27 257 145.5 390.5t359.5 133.5q52 0 96.5 -6.5t82.5 -19.5l58 156l77 -20l-63 -169q151 -95 151 -353q0 -53 -6 -112l-68 -635q-13 -125 -47 -220.5t-93 -167.5t-151 -109t-215 -37q-99 0 -173 24z" />
    <glyph glyph-name="Ugrave" unicode="&#xd9;" horiz-adv-x="1112" 
d="M642 1797l-181 404h213l75 -404h-107zM506 -18q-132 0 -216.5 40.5t-122.5 115.5q-39 74 -49 178q-4 40 -4 83q0 70 11 149l117 1110h212l-117 -1120q-9 -63 -9 -119q0 -15 1 -30q3 -69 19 -120.5t60.5 -81t116.5 -29.5q57 0 100.5 20t71 52t47 83.5t29.5 103t17 121.5
l118 1120h213l-117 -1110q-11 -108 -31 -190t-57 -155.5t-90.5 -120t-134 -73.5t-185.5 -27z" />
    <glyph glyph-name="Uacute" unicode="&#xda;" horiz-adv-x="1112" 
d="M641 1797l164 404h212l-268 -404h-108zM506 -18q-132 0 -216.5 40.5t-122.5 115.5q-39 74 -49 178q-4 40 -4 83q0 70 11 149l117 1110h212l-117 -1120q-9 -63 -9 -119q0 -15 1 -30q3 -69 19 -120.5t60.5 -81t116.5 -29.5q57 0 100.5 20t71 52t47 83.5t29.5 103t17 121.5
l118 1120h213l-117 -1110q-11 -108 -31 -190t-57 -155.5t-90.5 -120t-134 -73.5t-185.5 -27z" />
    <glyph glyph-name="Ucircumflex" unicode="&#xdb;" horiz-adv-x="1112" 
d="M410 1797l214 358h217l140 -358h-159l-100 252l-153 -252h-159zM506 -18q-132 0 -216.5 40.5t-122.5 115.5q-39 74 -49 178q-4 40 -4 83q0 70 11 149l117 1110h212l-117 -1120q-9 -63 -9 -119q0 -15 1 -30q3 -69 19 -120.5t60.5 -81t116.5 -29.5q57 0 100.5 20t71 52
t47 83.5t29.5 103t17 121.5l118 1120h213l-117 -1110q-11 -108 -31 -190t-57 -155.5t-90.5 -120t-134 -73.5t-185.5 -27z" />
    <glyph glyph-name="Udieresis" unicode="&#xdc;" horiz-adv-x="1112" 
d="M413 1797l23 221h213l-23 -221h-213zM762 1797l24 221h214l-23 -221h-215zM506 -18q-132 0 -216.5 40.5t-122.5 115.5q-39 74 -49 178q-4 40 -4 83q0 70 11 149l117 1110h212l-117 -1120q-9 -63 -9 -119q0 -15 1 -30q3 -69 19 -120.5t60.5 -81t116.5 -29.5q57 0 100.5 20
t71 52t47 83.5t29.5 103t17 121.5l118 1120h213l-117 -1110q-11 -108 -31 -190t-57 -155.5t-90.5 -120t-134 -73.5t-185.5 -27z" />
    <glyph glyph-name="Yacute" unicode="&#xdd;" horiz-adv-x="983" 
d="M577 1797l164 404h212l-268 -404h-108zM337 0l61 582l-247 1076h209l173 -811l338 811h212l-471 -1076l-61 -582h-214z" />
    <glyph glyph-name="Thorn" unicode="&#xde;" horiz-adv-x="1031" 
d="M82 0l174 1658h224l-22 -217h243q201 -1 285 -127q65 -98 64 -256q0 -45 -5 -96q-51 -482 -481 -482h-207l-51 -480h-224zM376 660h152q143 0 212.5 66t87.5 237q4 40 4 74q0 103 -36 153q-48 66 -180 66h-177z" />
    <glyph glyph-name="germandbls" unicode="&#xdf;" horiz-adv-x="1051" 
d="M399 -18l19 175q85 0 142.5 21t91.5 65t51 98.5t25 134.5q3 27 3 51q0 102 -44 168q-54 81 -183 81l20 176q54 0 96 25t67.5 69.5t40.5 95.5t22 112q4 37 4 69q0 73 -21 117q-30 64 -126 65q-93 0 -135.5 -61t-55.5 -188l-132 -1256h-212l132 1252q21 203 122 315
t274 112q198 0 288 -109q73 -88 73 -239q0 -37 -4 -77q-15 -143 -74.5 -232.5t-166.5 -141.5q124 -32 182 -140q45 -84 44 -197q0 -32 -3 -66q-51 -495 -540 -495z" />
    <glyph glyph-name="agrave" unicode="&#xe0;" horiz-adv-x="866" 
d="M471 1323l-181 404h213l75 -404h-107zM272 -17q-101 1 -161 83q-51 70 -51 158q0 16 2 33q6 60 26 111.5t39.5 88t66.5 75t73 58.5t95.5 53t98 45t114.5 46q5 2 7 3l9 85q5 49 5 86q0 54 -11 84q-19 50 -92 49q-129 0 -146 -171l-7 -58l-209 8q1 5 3 20.5t3 22.5
q28 177 125 257.5t261 80.5q170 1 235 -93q50 -72 50 -200q0 -39 -5 -84l-57 -545q-11 -103 -11 -215q0 -32 1 -64h-193q-10 101 -10 174q-34 -81 -101 -136t-160 -55zM375 167q44 0 89 33.5t69 68.5l36 338q-7 -3 -19 -10q-53 -28 -79 -42.5t-66.5 -43t-61 -52.5
t-38.5 -60.5t-22 -77.5q-2 -17 -2 -32q0 -51 19 -82q24 -40 75 -40z" />
    <glyph glyph-name="aacute" unicode="&#xe1;" horiz-adv-x="866" 
d="M470 1323l164 404h212l-268 -404h-108zM272 -17q-101 1 -161 83q-51 70 -51 158q0 16 2 33q6 60 26 111.5t39.5 88t66.5 75t73 58.5t95.5 53t98 45t114.5 46q5 2 7 3l9 85q5 49 5 86q0 54 -11 84q-19 50 -92 49q-129 0 -146 -171l-7 -58l-209 8q1 5 3 20.5t3 22.5
q28 177 125 257.5t261 80.5q170 1 235 -93q50 -72 50 -200q0 -39 -5 -84l-57 -545q-11 -103 -11 -215q0 -32 1 -64h-193q-10 101 -10 174q-34 -81 -101 -136t-160 -55zM375 167q44 0 89 33.5t69 68.5l36 338q-7 -3 -19 -10q-53 -28 -79 -42.5t-66.5 -43t-61 -52.5
t-38.5 -60.5t-22 -77.5q-2 -17 -2 -32q0 -51 19 -82q24 -40 75 -40z" />
    <glyph glyph-name="acircumflex" unicode="&#xe2;" horiz-adv-x="866" 
d="M239 1323l214 358h217l140 -358h-159l-100 252l-153 -252h-159zM272 -17q-101 1 -161 83q-51 70 -51 158q0 16 2 33q6 60 26 111.5t39.5 88t66.5 75t73 58.5t95.5 53t98 45t114.5 46q5 2 7 3l9 85q5 49 5 86q0 54 -11 84q-19 50 -92 49q-129 0 -146 -171l-7 -58l-209 8
q1 5 3 20.5t3 22.5q28 177 125 257.5t261 80.5q170 1 235 -93q50 -72 50 -200q0 -39 -5 -84l-57 -545q-11 -103 -11 -215q0 -32 1 -64h-193q-10 101 -10 174q-34 -81 -101 -136t-160 -55zM375 167q44 0 89 33.5t69 68.5l36 338q-7 -3 -19 -10q-53 -28 -79 -42.5t-66.5 -43
t-61 -52.5t-38.5 -60.5t-22 -77.5q-2 -17 -2 -32q0 -51 19 -82q24 -40 75 -40z" />
    <glyph glyph-name="atilde" unicode="&#xe3;" horiz-adv-x="866" 
d="M657 1323q-40 0 -89 25t-92 50t-68 26q-27 2 -42.5 -18t-19.5 -65h-122q9 98 57 159q45 58 133 58h9q52 -1 140 -49.5t109 -48.5q26 -2 39.5 17.5t18.5 67.5h120q-5 -48 -16.5 -85.5t-33 -70t-57.5 -50.5q-35 -17 -81 -16h-5zM272 -17q-101 1 -161 83q-51 70 -51 158
q0 16 2 33q6 60 26 111.5t39.5 88t66.5 75t73 58.5t95.5 53t98 45t114.5 46q5 2 7 3l9 85q5 49 5 86q0 54 -11 84q-19 50 -92 49q-129 0 -146 -171l-7 -58l-209 8q1 5 3 20.5t3 22.5q28 177 125 257.5t261 80.5q170 1 235 -93q50 -72 50 -200q0 -39 -5 -84l-57 -545
q-11 -103 -11 -215q0 -32 1 -64h-193q-10 101 -10 174q-34 -81 -101 -136t-160 -55zM375 167q44 0 89 33.5t69 68.5l36 338q-7 -3 -19 -10q-53 -28 -79 -42.5t-66.5 -43t-61 -52.5t-38.5 -60.5t-22 -77.5q-2 -17 -2 -32q0 -51 19 -82q24 -40 75 -40z" />
    <glyph glyph-name="adieresis" unicode="&#xe4;" horiz-adv-x="866" 
d="M243 1323l23 221h213l-23 -221h-213zM592 1323l24 221h214l-23 -221h-215zM272 -17q-101 1 -161 83q-51 70 -51 158q0 16 2 33q6 60 26 111.5t39.5 88t66.5 75t73 58.5t95.5 53t98 45t114.5 46q5 2 7 3l9 85q5 49 5 86q0 54 -11 84q-19 50 -92 49q-129 0 -146 -171
l-7 -58l-209 8q1 5 3 20.5t3 22.5q28 177 125 257.5t261 80.5q170 1 235 -93q50 -72 50 -200q0 -39 -5 -84l-57 -545q-11 -103 -11 -215q0 -32 1 -64h-193q-10 101 -10 174q-34 -81 -101 -136t-160 -55zM375 167q44 0 89 33.5t69 68.5l36 338q-7 -3 -19 -10
q-53 -28 -79 -42.5t-66.5 -43t-61 -52.5t-38.5 -60.5t-22 -77.5q-2 -17 -2 -32q0 -51 19 -82q24 -40 75 -40z" />
    <glyph glyph-name="aring" unicode="&#xe5;" horiz-adv-x="866" 
d="M535 1431q53 0 88 31t41 87q1 8 1 16q0 44 -24 70q-28 31 -82 31t-88.5 -31t-39.5 -86q-1 -10 -1 -19q0 -42 23 -68q28 -31 82 -31zM524 1323q-101 0 -157 62q-46 51 -46 131q0 16 2 33q10 102 78 163t169 61t157 -60q48 -51 48 -134q0 -15 -2 -30q-11 -103 -80 -164.5
t-169 -61.5zM272 -17q-101 1 -161 83q-51 70 -51 158q0 16 2 33q6 60 26 111.5t39.5 88t66.5 75t73 58.5t95.5 53t98 45t114.5 46q5 2 7 3l9 85q5 49 5 86q0 54 -11 84q-19 50 -92 49q-129 0 -146 -171l-7 -58l-209 8q1 5 3 20.5t3 22.5q28 177 125 257.5t261 80.5
q170 1 235 -93q50 -72 50 -200q0 -39 -5 -84l-57 -545q-11 -103 -11 -215q0 -32 1 -64h-193q-10 101 -10 174q-34 -81 -101 -136t-160 -55zM375 167q44 0 89 33.5t69 68.5l36 338q-7 -3 -19 -10q-53 -28 -79 -42.5t-66.5 -43t-61 -52.5t-38.5 -60.5t-22 -77.5q-2 -17 -2 -32
q0 -51 19 -82q24 -40 75 -40z" />
    <glyph glyph-name="ae" unicode="&#xe6;" horiz-adv-x="1330" 
d="M274 -17q-101 7 -160 87q-50 67 -50 154q0 16 2 33q17 151 105 237.5t248 129.5l166 44l16 154q4 37 4 67q-1 59 -15 95q-22 54 -93 53q-132 0 -154 -197l-211 1q20 167 120.5 263.5t261.5 96.5q88 0 146.5 -39.5t70.5 -111.5q39 69 105.5 110t149.5 41q160 0 232 -94
q59 -76 58 -200q0 -29 -3 -60q-4 -40 -19 -72t-41.5 -55.5t-53 -39.5t-68.5 -29.5t-72 -20.5t-77 -17l-153 -33l-7 -61q-12 -124 -12 -194q0 -31 2 -52q15 -122 104 -122q66 0 98.5 54t43.5 154l6 52h212l-6 -52q-40 -376 -373 -376q-108 0 -172 65t-67 176
q-58 -118 -146 -184q-77 -58 -172 -58q-13 0 -26 1zM377 149q63 0 116 73.5t67 210.5l12 113q-40 -10 -101 -34q-88 -35 -134 -83.5t-54 -125.5q-1 -15 -1 -28q0 -52 22 -85q28 -41 73 -41zM801 697l121 27q80 17 115.5 45t42.5 98q1 15 1 29q0 52 -20 88q-26 44 -93 44
q-71 0 -107.5 -55.5t-47.5 -160.5z" />
    <glyph glyph-name="ccedilla" unicode="&#xe7;" horiz-adv-x="836" 
d="M222 -455l12 107q54 -12 103 -14h9q44 0 78 17q38 19 42 55q3 23 -5 41t-20 29t-37.5 22t-44 16.5t-51.5 13.5l18 168h107l-11 -114q88 -14 148 -59q56 -42 56 -106v-9q-4 -61 -40.5 -104.5t-92.5 -62t-127 -20.5h-12q-65 0 -132 20zM381 -17q-106 0 -172.5 34t-94.5 95
q-28 62 -34 148q-2 27 -2 57q0 63 10 136l29 275q13 120 35.5 201.5t66 146t115 95t175.5 30.5q95 0 156 -24.5t91 -71.5t38 -117q4 -31 3 -65q0 -45 -6 -96l-8 -69h-192l8 70q5 45 5 80q0 58 -14 88q-22 48 -94 48q-82 0 -114 -57t-48 -216l-39 -370q-7 -64 -7 -110
q0 -65 14 -97q22 -54 100 -54q33 0 57 10.5t39 27t25.5 46t15.5 58t10 72.5l10 92h192l-8 -79q-10 -95 -32 -162.5t-63 -119t-107.5 -77t-159.5 -25.5z" />
    <glyph glyph-name="egrave" unicode="&#xe8;" horiz-adv-x="856" 
d="M466 1323l-181 404h213l75 -404h-107zM386 -17q-102 0 -167 30t-97 89q-32 60 -40 148q-3 32 -2 68q0 63 8 137l29 274q13 123 38.5 208t71.5 146t116.5 89.5t169.5 28.5q107 0 171.5 -34.5t90.5 -100.5q25 -66 29 -162q1 -18 1 -37q0 -81 -12 -180l-11 -97h-468
l-17 -160q-3 -34 -4.5 -49t-3.5 -44t-1.5 -42.5t1 -37t4.5 -34.5t9.5 -27.5t14.5 -24.5t20.5 -16.5t27.5 -11.5t36 -3q71 0 104 49t43 149l8 73h207l-6 -48q-39 -380 -371 -380zM327 705h260l10 107q6 56 6 100q-1 14 -1 26q-2 52 -27.5 79t-79.5 27q-80 0 -112.5 -57
t-49.5 -216z" />
    <glyph glyph-name="eacute" unicode="&#xe9;" horiz-adv-x="856" 
d="M466 1323l164 404h212l-268 -404h-108zM386 -17q-102 0 -167 30t-97 89q-32 60 -40 148q-3 32 -2 68q0 63 8 137l29 274q13 123 38.5 208t71.5 146t116.5 89.5t169.5 28.5q107 0 171.5 -34.5t90.5 -100.5q25 -66 29 -162q1 -18 1 -37q0 -81 -12 -180l-11 -97h-468
l-17 -160q-3 -34 -4.5 -49t-3.5 -44t-1.5 -42.5t1 -37t4.5 -34.5t9.5 -27.5t14.5 -24.5t20.5 -16.5t27.5 -11.5t36 -3q71 0 104 49t43 149l8 73h207l-6 -48q-39 -380 -371 -380zM327 705h260l10 107q6 56 6 100q-1 14 -1 26q-2 52 -27.5 79t-79.5 27q-80 0 -112.5 -57
t-49.5 -216z" />
    <glyph glyph-name="ecircumflex" unicode="&#xea;" horiz-adv-x="856" 
d="M234 1323l214 358h217l140 -358h-159l-100 252l-153 -252h-159zM386 -17q-102 0 -167 30t-97 89q-32 60 -40 148q-3 32 -2 68q0 63 8 137l29 274q13 123 38.5 208t71.5 146t116.5 89.5t169.5 28.5q107 0 171.5 -34.5t90.5 -100.5q25 -66 29 -162q1 -18 1 -37
q0 -81 -12 -180l-11 -97h-468l-17 -160q-3 -34 -4.5 -49t-3.5 -44t-1.5 -42.5t1 -37t4.5 -34.5t9.5 -27.5t14.5 -24.5t20.5 -16.5t27.5 -11.5t36 -3q71 0 104 49t43 149l8 73h207l-6 -48q-39 -380 -371 -380zM327 705h260l10 107q6 56 6 100q-1 14 -1 26q-2 52 -27.5 79
t-79.5 27q-80 0 -112.5 -57t-49.5 -216z" />
    <glyph glyph-name="edieresis" unicode="&#xeb;" horiz-adv-x="856" 
d="M238 1323l23 221h213l-23 -221h-213zM587 1323l24 221h214l-23 -221h-215zM386 -17q-102 0 -167 30t-97 89q-32 60 -40 148q-3 32 -2 68q0 63 8 137l29 274q13 123 38.5 208t71.5 146t116.5 89.5t169.5 28.5q107 0 171.5 -34.5t90.5 -100.5q25 -66 29 -162q1 -18 1 -37
q0 -81 -12 -180l-11 -97h-468l-17 -160q-3 -34 -4.5 -49t-3.5 -44t-1.5 -42.5t1 -37t4.5 -34.5t9.5 -27.5t14.5 -24.5t20.5 -16.5t27.5 -11.5t36 -3q71 0 104 49t43 149l8 73h207l-6 -48q-39 -380 -371 -380zM327 705h260l10 107q6 56 6 100q-1 14 -1 26q-2 52 -27.5 79
t-79.5 27q-80 0 -112.5 -57t-49.5 -216z" />
    <glyph glyph-name="igrave" unicode="&#xec;" horiz-adv-x="454" 
d="M267 1323l-181 404h213l75 -404h-107zM77 0l124 1184h212l-124 -1184h-212z" />
    <glyph glyph-name="iacute" unicode="&#xed;" horiz-adv-x="454" 
d="M267 1323l164 404h212l-268 -404h-108zM77 0l124 1184h212l-124 -1184h-212z" />
    <glyph glyph-name="icircumflex" unicode="&#xee;" horiz-adv-x="454" 
d="M35 1323l214 358h217l140 -358h-159l-100 252l-153 -252h-159zM77 0l124 1184h212l-124 -1184h-212z" />
    <glyph glyph-name="idieresis" unicode="&#xef;" horiz-adv-x="454" 
d="M39 1323l23 221h213l-23 -221h-213zM388 1323l24 221h214l-23 -221h-215zM77 0l124 1184h212l-124 -1184h-212z" />
    <glyph glyph-name="eth" unicode="&#xf0;" horiz-adv-x="959" 
d="M412 -18q-110 0 -178.5 33t-98 95t-36.5 150q-2 29 -2 61q0 64 9 138l15 140q10 98 25.5 174t44.5 147t69 117.5t100.5 74.5t138.5 28q115 0 192 -73v16q0 178 -43 259l-250 -75l12 110l189 52q-39 54 -113.5 81t-213.5 29l24 139q194 -1 306.5 -47.5t168.5 -147.5
l241 68l-11 -109l-185 -49q38 -100 58 -281q11 -99 12 -193q0 -78 -8 -152l-30 -279q-26 -244 -129.5 -375t-306.5 -131zM436 150q44 0 76 14.5t52 38.5t34.5 65.5t21.5 83.5t14 105q42 420 42 442q-1 1 -7.5 8t-10.5 10.5t-12.5 11t-15.5 11.5t-18.5 10t-22.5 9t-25.5 5.5
t-29.5 2.5q-91 0 -136.5 -91.5t-67.5 -296.5q-3 -25 -8 -76q-5 -37 -7 -56t-5 -53q-3 -29 -3 -46q1 -3 1 -5q0 -18 0.5 -45.5t4.5 -42.5t10 -35t16 -30t23.5 -20.5t32 -15t41.5 -4.5z" />
    <glyph glyph-name="ntilde" unicode="&#xf1;" horiz-adv-x="893" 
d="M674 1323q-40 0 -89 25t-92 50t-68 26q-27 2 -42.5 -18t-19.5 -65h-122q9 98 57 159q45 58 133 58h9q52 -1 140 -49.5t109 -48.5q26 -2 39.5 17.5t18.5 67.5h120q-5 -48 -16.5 -85.5t-33 -70t-57.5 -50.5q-35 -17 -81 -16h-5zM63 0l124 1184h211l-12 -117
q158 134 304 134q50 0 84 -21.5t48 -55.5t20 -78q2 -19 3 -39q0 -25 -4 -50l-100 -957h-212l94 896q2 21 2 39q1 42 -11 66q-16 33 -72 33q-69 0 -167 -77l-101 -957h-211z" />
    <glyph glyph-name="ograve" unicode="&#xf2;" horiz-adv-x="863" 
d="M468 1323l-181 404h213l75 -404h-107zM397 140q27 0 48.5 8.5t36.5 19.5t26.5 34t18.5 40.5t13 51.5t8.5 54t6.5 59l39 368q4 38 5.5 59t2.5 54.5t-2 51.5t-10 41t-19.5 34.5t-32 20t-46.5 8.5q-31 0 -55 -9.5t-40 -30.5t-26.5 -41.5t-18 -56.5t-11 -61.5t-7.5 -69.5
l-39 -368q-4 -39 -5.5 -59.5t-2.5 -53.5t2 -51t10 -41t19.5 -34.5t32 -19.5t46.5 -8zM380 -17q-96 0 -160.5 30.5t-96 87.5t-41.5 138q-4 35 -4 74q0 51 7 108l35 341q23 215 112.5 327t275.5 112q96 0 161 -31t97 -88t42 -138q5 -36 4 -76q0 -50 -7 -106l-36 -341
q-11 -105 -36.5 -182.5t-70.5 -136.5t-115.5 -89t-166.5 -30z" />
    <glyph glyph-name="oacute" unicode="&#xf3;" horiz-adv-x="863" 
d="M467 1323l164 404h212l-268 -404h-108zM397 140q27 0 48.5 8.5t36.5 19.5t26.5 34t18.5 40.5t13 51.5t8.5 54t6.5 59l39 368q4 38 5.5 59t2.5 54.5t-2 51.5t-10 41t-19.5 34.5t-32 20t-46.5 8.5q-31 0 -55 -9.5t-40 -30.5t-26.5 -41.5t-18 -56.5t-11 -61.5t-7.5 -69.5
l-39 -368q-4 -39 -5.5 -59.5t-2.5 -53.5t2 -51t10 -41t19.5 -34.5t32 -19.5t46.5 -8zM380 -17q-96 0 -160.5 30.5t-96 87.5t-41.5 138q-4 35 -4 74q0 51 7 108l35 341q23 215 112.5 327t275.5 112q96 0 161 -31t97 -88t42 -138q5 -36 4 -76q0 -50 -7 -106l-36 -341
q-11 -105 -36.5 -182.5t-70.5 -136.5t-115.5 -89t-166.5 -30z" />
    <glyph glyph-name="ocircumflex" unicode="&#xf4;" horiz-adv-x="863" 
d="M236 1323l214 358h217l140 -358h-159l-100 252l-153 -252h-159zM397 140q27 0 48.5 8.5t36.5 19.5t26.5 34t18.5 40.5t13 51.5t8.5 54t6.5 59l39 368q4 38 5.5 59t2.5 54.5t-2 51.5t-10 41t-19.5 34.5t-32 20t-46.5 8.5q-31 0 -55 -9.5t-40 -30.5t-26.5 -41.5t-18 -56.5
t-11 -61.5t-7.5 -69.5l-39 -368q-4 -39 -5.5 -59.5t-2.5 -53.5t2 -51t10 -41t19.5 -34.5t32 -19.5t46.5 -8zM380 -17q-96 0 -160.5 30.5t-96 87.5t-41.5 138q-4 35 -4 74q0 51 7 108l35 341q23 215 112.5 327t275.5 112q96 0 161 -31t97 -88t42 -138q5 -36 4 -76
q0 -50 -7 -106l-36 -341q-11 -105 -36.5 -182.5t-70.5 -136.5t-115.5 -89t-166.5 -30z" />
    <glyph glyph-name="otilde" unicode="&#xf5;" horiz-adv-x="863" 
d="M654 1323q-40 0 -89 25t-92 50t-68 26q-27 2 -42.5 -18t-19.5 -65h-122q9 98 57 159q45 58 133 58h9q52 -1 140 -49.5t109 -48.5q26 -2 39.5 17.5t18.5 67.5h120q-5 -48 -16.5 -85.5t-33 -70t-57.5 -50.5q-35 -17 -81 -16h-5zM397 140q27 0 48.5 8.5t36.5 19.5t26.5 34
t18.5 40.5t13 51.5t8.5 54t6.5 59l39 368q4 38 5.5 59t2.5 54.5t-2 51.5t-10 41t-19.5 34.5t-32 20t-46.5 8.5q-31 0 -55 -9.5t-40 -30.5t-26.5 -41.5t-18 -56.5t-11 -61.5t-7.5 -69.5l-39 -368q-4 -39 -5.5 -59.5t-2.5 -53.5t2 -51t10 -41t19.5 -34.5t32 -19.5t46.5 -8z
M380 -17q-96 0 -160.5 30.5t-96 87.5t-41.5 138q-4 35 -4 74q0 51 7 108l35 341q23 215 112.5 327t275.5 112q96 0 161 -31t97 -88t42 -138q5 -36 4 -76q0 -50 -7 -106l-36 -341q-11 -105 -36.5 -182.5t-70.5 -136.5t-115.5 -89t-166.5 -30z" />
    <glyph glyph-name="odieresis" unicode="&#xf6;" horiz-adv-x="863" 
d="M240 1323l23 221h213l-23 -221h-213zM589 1323l24 221h214l-23 -221h-215zM397 140q27 0 48.5 8.5t36.5 19.5t26.5 34t18.5 40.5t13 51.5t8.5 54t6.5 59l39 368q4 38 5.5 59t2.5 54.5t-2 51.5t-10 41t-19.5 34.5t-32 20t-46.5 8.5q-31 0 -55 -9.5t-40 -30.5t-26.5 -41.5
t-18 -56.5t-11 -61.5t-7.5 -69.5l-39 -368q-4 -39 -5.5 -59.5t-2.5 -53.5t2 -51t10 -41t19.5 -34.5t32 -19.5t46.5 -8zM380 -17q-96 0 -160.5 30.5t-96 87.5t-41.5 138q-4 35 -4 74q0 51 7 108l35 341q23 215 112.5 327t275.5 112q96 0 161 -31t97 -88t42 -138q5 -36 4 -76
q0 -50 -7 -106l-36 -341q-11 -105 -36.5 -182.5t-70.5 -136.5t-115.5 -89t-166.5 -30z" />
    <glyph glyph-name="divide" unicode="&#xf7;" horiz-adv-x="707" 
d="M256 358l24 223h170l-24 -223h-170zM71 765l16 154h629l-16 -154h-629zM332 1080l23 223h170l-23 -223h-170z" />
    <glyph glyph-name="oslash" unicode="&#xf8;" horiz-adv-x="863" 
d="M290 352l295 642q-12 24 -35 37t-58 13q-31 0 -55 -9.5t-40 -30.5t-26.5 -41.5t-18 -56.5t-11 -61.5t-7.5 -69.5l-39 -368q0 -5 -0.5 -8t-1 -8t-1 -8t-1 -7.5t-0.5 -8t-0.5 -7.5t-0.5 -8zM397 140q27 0 48.5 8.5t36.5 19.5t26.5 34t18.5 40.5t13 51.5t8.5 54t6.5 59
l39 368q1 9 1.5 14.5t1.5 13.5t1.5 14t1 13.5t1 14t0.5 12.5l-304 -651q22 -66 100 -66zM111 -192l-61 22l105 229q-76 79 -76 254q0 50 6 108l35 341q23 215 112.5 327t275.5 112q94 0 158 -30l89 193l71 -25l-98 -209q83 -80 83 -263q0 -49 -6 -105l-36 -341
q-11 -105 -36.5 -182.5t-70.5 -136.5t-115.5 -89t-166.5 -30q-104 0 -171 36z" />
    <glyph glyph-name="ugrave" unicode="&#xf9;" horiz-adv-x="895" 
d="M478 1323l-181 404h213l75 -404h-107zM230 -17q-50 0 -83.5 21.5t-48 55.5t-20.5 78q-3 20 -3 41q0 24 4 48l100 957h212l-94 -896q-2 -21 -2 -38q0 -42 12 -66q17 -34 72 -34q69 0 166 78l100 956h212l-124 -1184h-212l13 118q-155 -135 -304 -135z" />
    <glyph glyph-name="uacute" unicode="&#xfa;" horiz-adv-x="895" 
d="M478 1323l164 404h212l-268 -404h-108zM230 -17q-50 0 -83.5 21.5t-48 55.5t-20.5 78q-3 20 -3 41q0 24 4 48l100 957h212l-94 -896q-2 -21 -2 -38q0 -42 12 -66q17 -34 72 -34q69 0 166 78l100 956h212l-124 -1184h-212l13 118q-155 -135 -304 -135z" />
    <glyph glyph-name="ucircumflex" unicode="&#xfb;" horiz-adv-x="895" 
d="M246 1323l214 358h217l140 -358h-159l-100 252l-153 -252h-159zM230 -17q-50 0 -83.5 21.5t-48 55.5t-20.5 78q-3 20 -3 41q0 24 4 48l100 957h212l-94 -896q-2 -21 -2 -38q0 -42 12 -66q17 -34 72 -34q69 0 166 78l100 956h212l-124 -1184h-212l13 118
q-155 -135 -304 -135z" />
    <glyph glyph-name="udieresis" unicode="&#xfc;" horiz-adv-x="895" 
d="M250 1323l23 221h213l-23 -221h-213zM599 1323l24 221h214l-23 -221h-215zM230 -17q-50 0 -83.5 21.5t-48 55.5t-20.5 78q-3 20 -3 41q0 24 4 48l100 957h212l-94 -896q-2 -21 -2 -38q0 -42 12 -66q17 -34 72 -34q69 0 166 78l100 956h212l-124 -1184h-212l13 118
q-155 -135 -304 -135z" />
    <glyph glyph-name="yacute" unicode="&#xfd;" horiz-adv-x="799" 
d="M437 1323l164 404h212l-268 -404h-108zM12 -296l17 161q76 0 120.5 6t70 23.5t32.5 43.5q4 15 4 38q0 16 -2 34q-9 77 -20 163l-133 1011h215l70 -897l252 897h215l-415 -1251q-42 -125 -137.5 -177t-260.5 -52h-28z" />
    <glyph glyph-name="thorn" unicode="&#xfe;" horiz-adv-x="909" 
d="M24 -390l215 2048h211l-59 -569q108 112 237 112q51 0 90.5 -17.5t64 -44.5t41 -67t23.5 -79t9 -86q1 -24 1 -44.5t-1 -37.5q-2 -35 -6 -73l-29 -282q-51 -487 -344 -487q-106 0 -191 106l-51 -479h-211zM453 150q41 0 69 22.5t45 71t25.5 97t16.5 128.5l29 283
q7 80 7 143t-26 101t-81 38q-74 0 -160 -64l-80 -764q67 -56 155 -56z" />
    <glyph glyph-name="ydieresis" unicode="&#xff;" horiz-adv-x="799" 
d="M209 1323l23 221h213l-23 -221h-213zM558 1323l24 221h214l-23 -221h-215zM12 -296l17 161q76 0 120.5 6t70 23.5t32.5 43.5q4 15 4 38q0 16 -2 34q-9 77 -20 163l-133 1011h215l70 -897l252 897h215l-415 -1251q-42 -125 -137.5 -177t-260.5 -52h-28z" />
    <glyph glyph-name="Amacron" unicode="&#x100;" horiz-adv-x="1004" 
d="M446 1797l13 129h392l-14 -129h-391zM-9 0l528 1658h217l180 -1658h-214l-32 421h-343l-123 -421h-213zM373 581h285l-63 763z" />
    <glyph glyph-name="amacron" unicode="&#x101;" horiz-adv-x="866" 
d="M329 1323l13 129h392l-14 -129h-391zM272 -17q-101 1 -161 83q-51 70 -51 158q0 16 2 33q6 60 26 111.5t39.5 88t66.5 75t73 58.5t95.5 53t98 45t114.5 46q5 2 7 3l9 85q5 49 5 86q0 54 -11 84q-19 50 -92 49q-129 0 -146 -171l-7 -58l-209 8q1 5 3 20.5t3 22.5
q28 177 125 257.5t261 80.5q170 1 235 -93q50 -72 50 -200q0 -39 -5 -84l-57 -545q-11 -103 -11 -215q0 -32 1 -64h-193q-10 101 -10 174q-34 -81 -101 -136t-160 -55zM375 167q44 0 89 33.5t69 68.5l36 338q-7 -3 -19 -10q-53 -28 -79 -42.5t-66.5 -43t-61 -52.5
t-38.5 -60.5t-22 -77.5q-2 -17 -2 -32q0 -51 19 -82q24 -40 75 -40z" />
    <glyph glyph-name="Abreve" unicode="&#x102;" horiz-adv-x="1004" 
d="M641 1797q-256 0 -256 247q0 25 3 52h125q-2 -19 -2 -36q0 -66 28 -100q36 -42 114 -43q79 0 123 42.5t55 136.5h127q-33 -299 -317 -299zM-9 0l528 1658h217l180 -1658h-214l-32 421h-343l-123 -421h-213zM373 581h285l-63 763z" />
    <glyph glyph-name="abreve" unicode="&#x103;" horiz-adv-x="866" 
d="M524 1323q-256 0 -256 247q0 25 3 52h125q-2 -19 -2 -36q0 -66 28 -100q36 -42 114 -43q79 0 123 42.5t55 136.5h127q-33 -299 -317 -299zM272 -17q-101 1 -161 83q-51 70 -51 158q0 16 2 33q6 60 26 111.5t39.5 88t66.5 75t73 58.5t95.5 53t98 45t114.5 46q5 2 7 3l9 85
q5 49 5 86q0 54 -11 84q-19 50 -92 49q-129 0 -146 -171l-7 -58l-209 8q1 5 3 20.5t3 22.5q28 177 125 257.5t261 80.5q170 1 235 -93q50 -72 50 -200q0 -39 -5 -84l-57 -545q-11 -103 -11 -215q0 -32 1 -64h-193q-10 101 -10 174q-34 -81 -101 -136t-160 -55zM375 167
q44 0 89 33.5t69 68.5l36 338q-7 -3 -19 -10q-53 -28 -79 -42.5t-66.5 -43t-61 -52.5t-38.5 -60.5t-22 -77.5q-2 -17 -2 -32q0 -51 19 -82q24 -40 75 -40z" />
    <glyph glyph-name="Aogonek" unicode="&#x104;" horiz-adv-x="1004" 
d="M842 -462q-71 0 -117 3t-93 13t-73 28q-25 20 -39 52q-10 24 -10 55q0 11 1 24q9 94 88 180.5t165 113.5h108q-4 -5 -37 -39t-45 -48t-39 -47t-40 -54t-25.5 -49t-14.5 -52q-2 -19 4 -33t21 -21.5t30.5 -12.5t40 -6t42 -1t44 1t38.5 1zM-9 0l528 1658h217l180 -1658h-214
l-32 421h-343l-123 -421h-213zM373 581h285l-63 763z" />
    <glyph glyph-name="aogonek" unicode="&#x105;" horiz-adv-x="866" 
d="M676 -462q-71 0 -117 3t-93 13t-73 28q-25 20 -39 52q-10 24 -10 55q0 11 1 24q9 94 88 180.5t165 113.5h108q-4 -5 -37 -39t-45 -48t-39 -47t-40 -54t-25.5 -49t-14.5 -52q-2 -19 4 -33t21 -21.5t30.5 -12.5t40 -6t42 -1t44 1t38.5 1zM272 -17q-101 1 -161 83
q-51 70 -51 158q0 16 2 33q6 60 26 111.5t39.5 88t66.5 75t73 58.5t95.5 53t98 45t114.5 46q5 2 7 3l9 85q5 49 5 86q0 54 -11 84q-19 50 -92 49q-129 0 -146 -171l-7 -58l-209 8q1 5 3 20.5t3 22.5q28 177 125 257.5t261 80.5q170 1 235 -93q50 -72 50 -200q0 -39 -5 -84
l-57 -545q-11 -103 -11 -215q0 -32 1 -64h-193q-10 101 -10 174q-34 -81 -101 -136t-160 -55zM375 167q44 0 89 33.5t69 68.5l36 338q-7 -3 -19 -10q-53 -28 -79 -42.5t-66.5 -43t-61 -52.5t-38.5 -60.5t-22 -77.5q-2 -17 -2 -32q0 -51 19 -82q24 -40 75 -40z" />
    <glyph glyph-name="Cacute" unicode="&#x106;" horiz-adv-x="1050" 
d="M616 1797l164 404h212l-268 -404h-108zM492 -18q-103 0 -178 27.5t-118.5 76.5t-68 117.5t-26.5 150.5v33q0 67 6 142l63 594q14 132 44.5 228t87 171.5t148.5 114t220 38.5q114 0 192 -32t119 -95.5t54 -149.5q7 -44 7 -96q0 -48 -6 -104l-14 -129h-212l12 114
q4 37 6 60.5t3.5 54.5t-0.5 50.5t-6.5 43.5t-13 38t-22 29t-32.5 23t-45 13t-58 5q-58 0 -100.5 -17t-68.5 -44t-44 -74.5t-26.5 -93.5t-16.5 -117l-69 -661q-7 -62 -7 -111q0 -100 28 -150q40 -74 162 -74q47 0 82 10t59.5 33t40.5 48t27 68t17 79.5t12 94.5l12 121h212
l-13 -121q-12 -119 -41 -208t-82.5 -159t-140 -106t-205.5 -36z" />
    <glyph glyph-name="cacute" unicode="&#x107;" horiz-adv-x="836" 
d="M457 1323l164 404h212l-268 -404h-108zM381 -17q-106 0 -172.5 34t-94.5 95q-28 62 -34 148q-2 27 -2 57q0 63 10 136l29 275q13 120 35.5 201.5t66 146t115 95t175.5 30.5q95 0 156 -24.5t91 -71.5t38 -117q4 -31 3 -65q0 -45 -6 -96l-8 -69h-192l8 70q5 45 5 80
q0 58 -14 88q-22 48 -94 48q-82 0 -114 -57t-48 -216l-39 -370q-7 -64 -7 -110q0 -65 14 -97q22 -54 100 -54q33 0 57 10.5t39 27t25.5 46t15.5 58t10 72.5l10 92h192l-8 -79q-10 -95 -32 -162.5t-63 -119t-107.5 -77t-159.5 -25.5z" />
    <glyph glyph-name="Ccircumflex" unicode="&#x108;" horiz-adv-x="1050" 
d="M384 1797l214 358h217l140 -358h-159l-100 252l-153 -252h-159zM492 -18q-103 0 -178 27.5t-118.5 76.5t-68 117.5t-26.5 150.5v33q0 67 6 142l63 594q14 132 44.5 228t87 171.5t148.5 114t220 38.5q114 0 192 -32t119 -95.5t54 -149.5q7 -44 7 -96q0 -48 -6 -104
l-14 -129h-212l12 114q4 37 6 60.5t3.5 54.5t-0.5 50.5t-6.5 43.5t-13 38t-22 29t-32.5 23t-45 13t-58 5q-58 0 -100.5 -17t-68.5 -44t-44 -74.5t-26.5 -93.5t-16.5 -117l-69 -661q-7 -62 -7 -111q0 -100 28 -150q40 -74 162 -74q47 0 82 10t59.5 33t40.5 48t27 68t17 79.5
t12 94.5l12 121h212l-13 -121q-12 -119 -41 -208t-82.5 -159t-140 -106t-205.5 -36z" />
    <glyph glyph-name="ccircumflex" unicode="&#x109;" horiz-adv-x="836" 
d="M226 1323l214 358h217l140 -358h-159l-100 252l-153 -252h-159zM381 -17q-106 0 -172.5 34t-94.5 95q-28 62 -34 148q-2 27 -2 57q0 63 10 136l29 275q13 120 35.5 201.5t66 146t115 95t175.5 30.5q95 0 156 -24.5t91 -71.5t38 -117q4 -31 3 -65q0 -45 -6 -96l-8 -69
h-192l8 70q5 45 5 80q0 58 -14 88q-22 48 -94 48q-82 0 -114 -57t-48 -216l-39 -370q-7 -64 -7 -110q0 -65 14 -97q22 -54 100 -54q33 0 57 10.5t39 27t25.5 46t15.5 58t10 72.5l10 92h192l-8 -79q-10 -95 -32 -162.5t-63 -119t-107.5 -77t-159.5 -25.5z" />
    <glyph glyph-name="Cdotaccent" unicode="&#x10a;" horiz-adv-x="1050" 
d="M562 1797l25 241h215l-26 -241h-214zM492 -18q-103 0 -178 27.5t-118.5 76.5t-68 117.5t-26.5 150.5v33q0 67 6 142l63 594q14 132 44.5 228t87 171.5t148.5 114t220 38.5q114 0 192 -32t119 -95.5t54 -149.5q7 -44 7 -96q0 -48 -6 -104l-14 -129h-212l12 114
q4 37 6 60.5t3.5 54.5t-0.5 50.5t-6.5 43.5t-13 38t-22 29t-32.5 23t-45 13t-58 5q-58 0 -100.5 -17t-68.5 -44t-44 -74.5t-26.5 -93.5t-16.5 -117l-69 -661q-7 -62 -7 -111q0 -100 28 -150q40 -74 162 -74q47 0 82 10t59.5 33t40.5 48t27 68t17 79.5t12 94.5l12 121h212
l-13 -121q-12 -119 -41 -208t-82.5 -159t-140 -106t-205.5 -36z" />
    <glyph glyph-name="cdotaccent" unicode="&#x10b;" horiz-adv-x="836" 
d="M404 1323l25 241h215l-26 -241h-214zM381 -17q-106 0 -172.5 34t-94.5 95q-28 62 -34 148q-2 27 -2 57q0 63 10 136l29 275q13 120 35.5 201.5t66 146t115 95t175.5 30.5q95 0 156 -24.5t91 -71.5t38 -117q4 -31 3 -65q0 -45 -6 -96l-8 -69h-192l8 70q5 45 5 80
q0 58 -14 88q-22 48 -94 48q-82 0 -114 -57t-48 -216l-39 -370q-7 -64 -7 -110q0 -65 14 -97q22 -54 100 -54q33 0 57 10.5t39 27t25.5 46t15.5 58t10 72.5l10 92h192l-8 -79q-10 -95 -32 -162.5t-63 -119t-107.5 -77t-159.5 -25.5z" />
    <glyph glyph-name="Ccaron" unicode="&#x10c;" horiz-adv-x="1050" 
d="M566 1797l-140 351h162l93 -239l144 239h162l-214 -351h-207zM492 -18q-103 0 -178 27.5t-118.5 76.5t-68 117.5t-26.5 150.5v33q0 67 6 142l63 594q14 132 44.5 228t87 171.5t148.5 114t220 38.5q114 0 192 -32t119 -95.5t54 -149.5q7 -44 7 -96q0 -48 -6 -104l-14 -129
h-212l12 114q4 37 6 60.5t3.5 54.5t-0.5 50.5t-6.5 43.5t-13 38t-22 29t-32.5 23t-45 13t-58 5q-58 0 -100.5 -17t-68.5 -44t-44 -74.5t-26.5 -93.5t-16.5 -117l-69 -661q-7 -62 -7 -111q0 -100 28 -150q40 -74 162 -74q47 0 82 10t59.5 33t40.5 48t27 68t17 79.5t12 94.5
l12 121h212l-13 -121q-12 -119 -41 -208t-82.5 -159t-140 -106t-205.5 -36z" />
    <glyph glyph-name="ccaron" unicode="&#x10d;" horiz-adv-x="836" 
d="M408 1323l-140 351h162l93 -239l144 239h162l-214 -351h-207zM381 -17q-106 0 -172.5 34t-94.5 95q-28 62 -34 148q-2 27 -2 57q0 63 10 136l29 275q13 120 35.5 201.5t66 146t115 95t175.5 30.5q95 0 156 -24.5t91 -71.5t38 -117q4 -31 3 -65q0 -45 -6 -96l-8 -69h-192
l8 70q5 45 5 80q0 58 -14 88q-22 48 -94 48q-82 0 -114 -57t-48 -216l-39 -370q-7 -64 -7 -110q0 -65 14 -97q22 -54 100 -54q33 0 57 10.5t39 27t25.5 46t15.5 58t10 72.5l10 92h192l-8 -79q-10 -95 -32 -162.5t-63 -119t-107.5 -77t-159.5 -25.5z" />
    <glyph glyph-name="Dcaron" unicode="&#x10e;" horiz-adv-x="1078" 
d="M590 1797l-140 351h162l93 -239l144 239h162l-214 -351h-207zM324 161h137q75 0 126.5 20.5t81.5 48.5t49.5 91t27.5 112.5t18 147.5l58 547q9 80 9 142q0 35 -3 65q-8 81 -61.5 119t-170.5 38h-133zM82 0l174 1658h361q136 0 227 -31.5t140 -96.5q50 -64 65 -156
q8 -47 8 -105q0 -53 -7 -115l-64 -615q-29 -271 -152 -405t-374 -134h-378z" />
    <glyph glyph-name="dcaron" unicode="&#x10f;" horiz-adv-x="1102" 
d="M1043 1152l53 506h191l-130 -506h-114zM334 -17h-3q-151 0 -209 111q-40 77 -41 223q0 67 9 149l24 229q9 89 23 159t40 137t62 111.5t91 71.5t125 27q106 -1 189 -93l57 550h212l-174 -1658h-212l8 76q-96 -93 -201 -93zM405 150q65 0 143 48l82 780q-69 56 -136 56
q-39 0 -68 -19.5t-47 -56t-28.5 -80t-16.5 -101.5l-35 -329q-7 -78 -7 -139v-15q1 -66 28.5 -105t84.5 -39z" />
    <glyph glyph-name="Dcroat" unicode="&#x110;" horiz-adv-x="1082" 
d="M328 161h137q75 0 127 20.5t81.5 49t49.5 90.5t28 112.5t18 147.5l57 547q9 80 9 142q0 35 -3 65q-8 81 -61.5 119t-170.5 38h-132l-60 -566h128l-13 -129h-128zM87 0l84 797h-103l14 129h102l77 732h361q266 0 363 -122q76 -96 76 -276q0 -50 -6 -106l-65 -615
q-28 -271 -151 -405t-375 -134h-377z" />
    <glyph glyph-name="dcroat" unicode="&#x111;" horiz-adv-x="923" 
d="M334 -17h-3q-151 0 -209 111q-40 77 -41 223q0 67 9 149l24 229q9 89 23 159t40 137t62 111.5t91 71.5t125 27q106 -1 189 -93l30 284h-226l12 117h225l16 149h212l-16 -149h121l-12 -117h-121l-146 -1392h-212l8 76q-96 -93 -201 -93zM405 150q65 0 143 48l82 780
q-69 56 -136 56q-39 0 -68 -19.5t-47 -56t-28.5 -80t-16.5 -101.5l-35 -329q-7 -78 -7 -139v-15q1 -66 28.5 -105t84.5 -39z" />
    <glyph glyph-name="Emacron" unicode="&#x112;" 
d="M396 1797l13 129h392l-14 -129h-391zM82 0l174 1658h638l-17 -166h-414l-59 -555h337l-16 -161h-337l-65 -615h420l-18 -161h-643z" />
    <glyph glyph-name="emacron" unicode="&#x113;" horiz-adv-x="856" 
d="M324 1323l13 129h392l-14 -129h-391zM386 -17q-102 0 -167 30t-97 89q-32 60 -40 148q-3 32 -2 68q0 63 8 137l29 274q13 123 38.5 208t71.5 146t116.5 89.5t169.5 28.5q107 0 171.5 -34.5t90.5 -100.5q25 -66 29 -162q1 -18 1 -37q0 -81 -12 -180l-11 -97h-468l-17 -160
q-3 -34 -4.5 -49t-3.5 -44t-1.5 -42.5t1 -37t4.5 -34.5t9.5 -27.5t14.5 -24.5t20.5 -16.5t27.5 -11.5t36 -3q71 0 104 49t43 149l8 73h207l-6 -48q-39 -380 -371 -380zM327 705h260l10 107q6 56 6 100q-1 14 -1 26q-2 52 -27.5 79t-79.5 27q-80 0 -112.5 -57t-49.5 -216z
" />
    <glyph glyph-name="Ebreve" unicode="&#x114;" 
d="M591 1797q-256 0 -256 247q0 25 3 52h125q-2 -19 -2 -36q0 -66 28 -100q36 -42 114 -43q79 0 123 42.5t55 136.5h127q-33 -299 -317 -299zM82 0l174 1658h638l-17 -166h-414l-59 -555h337l-16 -161h-337l-65 -615h420l-18 -161h-643z" />
    <glyph glyph-name="ebreve" unicode="&#x115;" horiz-adv-x="856" 
d="M519 1323q-256 0 -256 247q0 25 3 52h125q-2 -19 -2 -36q0 -66 28 -100q36 -42 114 -43q79 0 123 42.5t55 136.5h127q-33 -299 -317 -299zM386 -17q-102 0 -167 30t-97 89q-32 60 -40 148q-3 32 -2 68q0 63 8 137l29 274q13 123 38.5 208t71.5 146t116.5 89.5t169.5 28.5
q107 0 171.5 -34.5t90.5 -100.5q25 -66 29 -162q1 -18 1 -37q0 -81 -12 -180l-11 -97h-468l-17 -160q-3 -34 -4.5 -49t-3.5 -44t-1.5 -42.5t1 -37t4.5 -34.5t9.5 -27.5t14.5 -24.5t20.5 -16.5t27.5 -11.5t36 -3q71 0 104 49t43 149l8 73h207l-6 -48q-39 -380 -371 -380z
M327 705h260l10 107q6 56 6 100q-1 14 -1 26q-2 52 -27.5 79t-79.5 27q-80 0 -112.5 -57t-49.5 -216z" />
    <glyph glyph-name="Edotaccent" unicode="&#x116;" 
d="M485 1797l25 241h215l-26 -241h-214zM82 0l174 1658h638l-17 -166h-414l-59 -555h337l-16 -161h-337l-65 -615h420l-18 -161h-643z" />
    <glyph glyph-name="edotaccent" unicode="&#x117;" horiz-adv-x="856" 
d="M412 1323l25 241h215l-26 -241h-214zM386 -17q-102 0 -167 30t-97 89q-32 60 -40 148q-3 32 -2 68q0 63 8 137l29 274q13 123 38.5 208t71.5 146t116.5 89.5t169.5 28.5q107 0 171.5 -34.5t90.5 -100.5q25 -66 29 -162q1 -18 1 -37q0 -81 -12 -180l-11 -97h-468l-17 -160
q-3 -34 -4.5 -49t-3.5 -44t-1.5 -42.5t1 -37t4.5 -34.5t9.5 -27.5t14.5 -24.5t20.5 -16.5t27.5 -11.5t36 -3q71 0 104 49t43 149l8 73h207l-6 -48q-39 -380 -371 -380zM327 705h260l10 107q6 56 6 100q-1 14 -1 26q-2 52 -27.5 79t-79.5 27q-80 0 -112.5 -57t-49.5 -216z
" />
    <glyph glyph-name="Eogonek" unicode="&#x118;" 
d="M473 -462q-71 0 -117 3t-93 13t-73 28q-25 20 -39 52q-10 24 -10 55q0 11 1 24q9 94 88 180.5t165 113.5h108q-4 -5 -37 -39t-45 -48t-39 -47t-40 -54t-25.5 -49t-14.5 -52q-2 -19 4 -33t21 -21.5t30.5 -12.5t40 -6t42 -1t44 1t38.5 1zM82 0l174 1658h638l-17 -166h-414
l-59 -555h337l-16 -161h-337l-65 -615h420l-18 -161h-643z" />
    <glyph glyph-name="eogonek" unicode="&#x119;" horiz-adv-x="856" 
d="M480 -462q-71 0 -117 3t-93 13t-73 28q-25 20 -39 52q-10 24 -10 55q0 11 1 24q9 94 88 180.5t165 113.5h108q-4 -5 -37 -39t-45 -48t-39 -47t-40 -54t-25.5 -49t-14.5 -52q-2 -19 4 -33t21 -21.5t30.5 -12.5t40 -6t42 -1t44 1t38.5 1zM386 -17q-102 0 -167 30t-97 89
q-32 60 -40 148q-3 32 -2 68q0 63 8 137l29 274q13 123 38.5 208t71.5 146t116.5 89.5t169.5 28.5q107 0 171.5 -34.5t90.5 -100.5q25 -66 29 -162q1 -18 1 -37q0 -81 -12 -180l-11 -97h-468l-17 -160q-3 -34 -4.5 -49t-3.5 -44t-1.5 -42.5t1 -37t4.5 -34.5t9.5 -27.5
t14.5 -24.5t20.5 -16.5t27.5 -11.5t36 -3q71 0 104 49t43 149l8 73h207l-6 -48q-39 -380 -371 -380zM327 705h260l10 107q6 56 6 100q-1 14 -1 26q-2 52 -27.5 79t-79.5 27q-80 0 -112.5 -57t-49.5 -216z" />
    <glyph glyph-name="Ecaron" unicode="&#x11a;" 
d="M488 1797l-140 351h162l93 -239l144 239h162l-214 -351h-207zM82 0l174 1658h638l-17 -166h-414l-59 -555h337l-16 -161h-337l-65 -615h420l-18 -161h-643z" />
    <glyph glyph-name="ecaron" unicode="&#x11b;" horiz-adv-x="856" 
d="M416 1323l-140 351h162l93 -239l144 239h162l-214 -351h-207zM386 -17q-102 0 -167 30t-97 89q-32 60 -40 148q-3 32 -2 68q0 63 8 137l29 274q13 123 38.5 208t71.5 146t116.5 89.5t169.5 28.5q107 0 171.5 -34.5t90.5 -100.5q25 -66 29 -162q1 -18 1 -37
q0 -81 -12 -180l-11 -97h-468l-17 -160q-3 -34 -4.5 -49t-3.5 -44t-1.5 -42.5t1 -37t4.5 -34.5t9.5 -27.5t14.5 -24.5t20.5 -16.5t27.5 -11.5t36 -3q71 0 104 49t43 149l8 73h207l-6 -48q-39 -380 -371 -380zM327 705h260l10 107q6 56 6 100q-1 14 -1 26q-2 52 -27.5 79
t-79.5 27q-80 0 -112.5 -57t-49.5 -216z" />
    <glyph glyph-name="Gcircumflex" unicode="&#x11c;" horiz-adv-x="1093" 
d="M396 1797l214 358h217l140 -358h-159l-100 252l-153 -252h-159zM474 -21q-226 0 -310 142q-63 106 -63 286q0 62 7 133l60 564q15 142 46 242.5t87.5 177t148 114t219.5 37.5q229 1 317 -117q67 -91 67 -260q0 -50 -6 -108l-7 -61h-209l5 53q8 68 8 121q0 31 -3 57
q-7 71 -51 105.5t-136 34.5q-43 0 -78 -9.5t-59.5 -25.5t-44 -43t-31.5 -54t-21 -68.5t-14.5 -76.5t-10.5 -86l-66 -620q-7 -65 -7 -118q0 -102 26 -157q38 -84 170 -84t190 90t79 289l13 124h-214l18 159h416l-86 -820h-142l-2 191q-96 -212 -316 -212z" />
    <glyph glyph-name="gcircumflex" unicode="&#x11d;" horiz-adv-x="890" 
d="M282 1328l214 358h217l140 -358h-159l-100 252l-153 -252h-159zM387 -369q-64 0 -112 2.5t-100.5 9t-88 19.5t-65 33t-41.5 51q-9 23 -10 52q0 9 1 19q10 91 66.5 159t135.5 107q-54 17 -81 51q-23 28 -23 62q0 6 1 13q6 60 43 107t112 109q-65 55 -90 137
q-16 52 -16 124q0 43 6 94q21 205 116.5 313t258.5 108q182 0 232 -132q16 21 66.5 59.5t105.5 62.5l36 15l38 -138q-43 -9 -117 -36.5t-92 -41.5q11 -36 15 -102q2 -29 2 -55q0 -33 -3 -60q-20 -194 -107.5 -302t-262.5 -108q-19 0 -63 6.5t-49 8.5q0 -1 -14 -20.5t-19 -27
t-12.5 -23t-8.5 -26.5q-1 -22 21.5 -34t73.5 -17q6 -2 92.5 -10t89.5 -9q249 -26 249 -243q0 -21 -2 -43q-17 -157 -110.5 -225.5t-273.5 -68.5zM403 -201q97 0 147 28.5t57 91.5q1 9 1 17q0 44 -28 68q-32 28 -127 40l-182 15q-35 -24 -70 -67t-40 -92q-1 -7 -1 -14
q0 -28 13 -44q16 -20 70.5 -31.5t159.5 -11.5zM428 514q38 0 66.5 12.5t46.5 33.5t31 56.5t19.5 72.5t12.5 91q6 66 6 118v26q-2 60 -31.5 94.5t-90.5 34.5q-89 0 -126.5 -66.5t-52.5 -206.5q-5 -56 -5 -104q0 -16 1 -30q2 -59 32.5 -95.5t90.5 -36.5z" />
    <glyph glyph-name="Gbreve" unicode="&#x11e;" horiz-adv-x="1093" 
d="M681 1797q-256 0 -256 247q0 25 3 52h125q-2 -19 -2 -36q0 -66 28 -100q36 -42 114 -43q79 0 123 42.5t55 136.5h127q-33 -299 -317 -299zM474 -21q-226 0 -310 142q-63 106 -63 286q0 62 7 133l60 564q15 142 46 242.5t87.5 177t148 114t219.5 37.5q229 1 317 -117
q67 -91 67 -260q0 -50 -6 -108l-7 -61h-209l5 53q8 68 8 121q0 31 -3 57q-7 71 -51 105.5t-136 34.5q-43 0 -78 -9.5t-59.5 -25.5t-44 -43t-31.5 -54t-21 -68.5t-14.5 -76.5t-10.5 -86l-66 -620q-7 -65 -7 -118q0 -102 26 -157q38 -84 170 -84t190 90t79 289l13 124h-214
l18 159h416l-86 -820h-142l-2 191q-96 -212 -316 -212z" />
    <glyph glyph-name="gbreve" unicode="&#x11f;" horiz-adv-x="890" 
d="M567 1328q-256 0 -256 247q0 25 3 52h125q-2 -19 -2 -36q0 -66 28 -100q36 -42 114 -43q79 0 123 42.5t55 136.5h127q-33 -299 -317 -299zM387 -369q-64 0 -112 2.5t-100.5 9t-88 19.5t-65 33t-41.5 51q-9 23 -10 52q0 9 1 19q10 91 66.5 159t135.5 107q-54 17 -81 51
q-23 28 -23 62q0 6 1 13q6 60 43 107t112 109q-65 55 -90 137q-16 52 -16 124q0 43 6 94q21 205 116.5 313t258.5 108q182 0 232 -132q16 21 66.5 59.5t105.5 62.5l36 15l38 -138q-43 -9 -117 -36.5t-92 -41.5q11 -36 15 -102q2 -29 2 -55q0 -33 -3 -60
q-20 -194 -107.5 -302t-262.5 -108q-19 0 -63 6.5t-49 8.5q0 -1 -14 -20.5t-19 -27t-12.5 -23t-8.5 -26.5q-1 -22 21.5 -34t73.5 -17q6 -2 92.5 -10t89.5 -9q249 -26 249 -243q0 -21 -2 -43q-17 -157 -110.5 -225.5t-273.5 -68.5zM403 -201q97 0 147 28.5t57 91.5q1 9 1 17
q0 44 -28 68q-32 28 -127 40l-182 15q-35 -24 -70 -67t-40 -92q-1 -7 -1 -14q0 -28 13 -44q16 -20 70.5 -31.5t159.5 -11.5zM428 514q38 0 66.5 12.5t46.5 33.5t31 56.5t19.5 72.5t12.5 91q6 66 6 118v26q-2 60 -31.5 94.5t-90.5 34.5q-89 0 -126.5 -66.5t-52.5 -206.5
q-5 -56 -5 -104q0 -16 1 -30q2 -59 32.5 -95.5t90.5 -36.5z" />
    <glyph glyph-name="Gdotaccent" unicode="&#x120;" horiz-adv-x="1093" 
d="M574 1797l25 241h215l-26 -241h-214zM474 -21q-226 0 -310 142q-63 106 -63 286q0 62 7 133l60 564q15 142 46 242.5t87.5 177t148 114t219.5 37.5q229 1 317 -117q67 -91 67 -260q0 -50 -6 -108l-7 -61h-209l5 53q8 68 8 121q0 31 -3 57q-7 71 -51 105.5t-136 34.5
q-43 0 -78 -9.5t-59.5 -25.5t-44 -43t-31.5 -54t-21 -68.5t-14.5 -76.5t-10.5 -86l-66 -620q-7 -65 -7 -118q0 -102 26 -157q38 -84 170 -84t190 90t79 289l13 124h-214l18 159h416l-86 -820h-142l-2 191q-96 -212 -316 -212z" />
    <glyph glyph-name="gdotaccent" unicode="&#x121;" horiz-adv-x="890" 
d="M460 1328l25 241h215l-26 -241h-214zM387 -369q-64 0 -112 2.5t-100.5 9t-88 19.5t-65 33t-41.5 51q-9 23 -10 52q0 9 1 19q10 91 66.5 159t135.5 107q-54 17 -81 51q-23 28 -23 62q0 6 1 13q6 60 43 107t112 109q-65 55 -90 137q-16 52 -16 124q0 43 6 94
q21 205 116.5 313t258.5 108q182 0 232 -132q16 21 66.5 59.5t105.5 62.5l36 15l38 -138q-43 -9 -117 -36.5t-92 -41.5q11 -36 15 -102q2 -29 2 -55q0 -33 -3 -60q-20 -194 -107.5 -302t-262.5 -108q-19 0 -63 6.5t-49 8.5q0 -1 -14 -20.5t-19 -27t-12.5 -23t-8.5 -26.5
q-1 -22 21.5 -34t73.5 -17q6 -2 92.5 -10t89.5 -9q249 -26 249 -243q0 -21 -2 -43q-17 -157 -110.5 -225.5t-273.5 -68.5zM403 -201q97 0 147 28.5t57 91.5q1 9 1 17q0 44 -28 68q-32 28 -127 40l-182 15q-35 -24 -70 -67t-40 -92q-1 -7 -1 -14q0 -28 13 -44
q16 -20 70.5 -31.5t159.5 -11.5zM428 514q38 0 66.5 12.5t46.5 33.5t31 56.5t19.5 72.5t12.5 91q6 66 6 118v26q-2 60 -31.5 94.5t-90.5 34.5q-89 0 -126.5 -66.5t-52.5 -206.5q-5 -56 -5 -104q0 -16 1 -30q2 -59 32.5 -95.5t90.5 -36.5z" />
    <glyph glyph-name="Gcommaaccent" unicode="&#x122;" horiz-adv-x="1093" 
d="M374 -598l-43 105q61 7 90 38t35 90h-110l24 222h217l-23 -206q-13 -121 -53 -182t-137 -67zM474 -21q-226 0 -310 142q-63 106 -63 286q0 62 7 133l60 564q15 142 46 242.5t87.5 177t148 114t219.5 37.5q229 1 317 -117q67 -91 67 -260q0 -50 -6 -108l-7 -61h-209l5 53
q8 68 8 121q0 31 -3 57q-7 71 -51 105.5t-136 34.5q-43 0 -78 -9.5t-59.5 -25.5t-44 -43t-31.5 -54t-21 -68.5t-14.5 -76.5t-10.5 -86l-66 -620q-7 -65 -7 -118q0 -102 26 -157q38 -84 170 -84t190 90t79 289l13 124h-214l18 159h416l-86 -820h-142l-2 191
q-96 -212 -316 -212z" />
    <glyph glyph-name="gcommaaccent" unicode="&#x123;" horiz-adv-x="901" 
d="M372 -388q-87 0 -160 12t-132 38q-60 26 -90 72q-25 38 -25 87q0 10 1 20q7 70 74.5 137t156.5 118q-68 23 -107.5 46.5t-39.5 55.5q0 96 178 259q-116 87 -116 264q0 31 4 65q12 116 63 209t144.5 151.5t214.5 58.5q176 0 259 -137q77 100 175 142l37 16l39 -105
q-92 -25 -204 -121q18 -39 26 -98q5 -35 4 -68q0 -24 -2 -47q-19 -187 -122 -299t-283 -112q-94 0 -166 32q-4 -5 -18.5 -22.5t-21.5 -26.5t-19.5 -25.5t-19.5 -27.5t-15 -24t-12 -24t-4 -19q1 -16 101 -38q59 -14 231 -47q168 -36 238 -96q60 -52 60 -139q0 -15 -2 -31
q-14 -128 -133 -202t-314 -74zM546 1493l19 177q13 122 63.5 190t147.5 95l8 -58q-54 -32 -87.5 -81.5t-39.5 -105.5h116l-23 -217h-204zM385 -264q115 0 189 33.5t83 102.5q2 14 2 26q-1 47 -33 75q-42 36 -172 65l-132 25q-32 -21 -53 -37t-50 -42.5t-45.5 -56
t-19.5 -60.5q-1 -7 -1 -13q0 -57 55 -86q61 -32 177 -32zM469 496q47 0 83.5 19.5t58.5 48t37.5 71t22.5 79t12 81.5q5 30 5 62q0 18 -2 36q-4 51 -17 93.5t-49 70t-91 27.5t-97 -29.5t-65 -77.5t-34.5 -91.5t-16.5 -89.5q-4 -43 -4 -80q0 -220 157 -220z" />
    <glyph glyph-name="Hcircumflex" unicode="&#x124;" horiz-adv-x="1145" 
d="M426 1797l214 358h217l140 -358h-159l-100 252l-153 -252h-159zM82 0l174 1658h224l-75 -718h436l75 718h224l-174 -1658h-224l82 780h-436l-82 -780h-224z" />
    <glyph glyph-name="hcircumflex" unicode="&#x125;" horiz-adv-x="905" 
d="M312 1780l214 358h217l140 -358h-159l-100 252l-153 -252h-159zM68 0l174 1658h212l-63 -597q160 140 310 140q50 0 84.5 -21.5t48.5 -55.5t20 -78q3 -20 3 -41q0 -24 -4 -48l-101 -957h-212l94 896q3 23 3 42q0 40 -12 62q-17 34 -71 34q-73 0 -175 -82l-99 -952h-212z
" />
    <glyph glyph-name="Hbar" unicode="&#x126;" horiz-adv-x="1145" 
d="M82 0l133 1270h-95l13 116h95l28 272h224l-28 -272h436l28 272h224l-28 -272h95l-12 -116h-96l-133 -1270h-224l82 780h-436l-82 -780h-224zM405 940h436l34 330h-436z" />
    <glyph glyph-name="hbar" unicode="&#x127;" horiz-adv-x="905" 
d="M67 0l149 1416h-129l13 119h129l12 123h212l-12 -123h249l-13 -119h-249l-37 -355q158 140 310 140q50 0 84 -21.5t48.5 -55.5t20.5 -78q3 -20 3 -41q0 -24 -4 -48l-101 -957h-212l94 896q2 21 2 39q0 42 -12 66q-16 33 -71 33q-72 0 -174 -82l-100 -952h-212z" />
    <glyph glyph-name="Itilde" unicode="&#x128;" horiz-adv-x="502" 
d="M524 1797q-40 0 -89 25t-92 50t-68 26q-27 2 -42.5 -18t-19.5 -65h-122q9 98 57 159q45 58 133 58h9q52 -1 140 -49.5t109 -48.5q26 -2 39.5 17.5t18.5 67.5h120q-5 -48 -16.5 -85.5t-33 -70t-57.5 -50.5q-35 -17 -81 -16h-5zM94 0l174 1658h219l-174 -1658h-219z" />
    <glyph glyph-name="itilde" unicode="&#x129;" horiz-adv-x="454" 
d="M454 1323q-40 0 -89 25t-92 50t-68 26q-27 2 -42.5 -18t-19.5 -65h-122q9 98 57 159q45 58 133 58h9q52 -1 140 -49.5t109 -48.5q26 -2 39.5 17.5t18.5 67.5h120q-5 -48 -16.5 -85.5t-33 -70t-57.5 -50.5q-35 -17 -81 -16h-5zM77 0l124 1184h212l-124 -1184h-212z" />
    <glyph glyph-name="Imacron" unicode="&#x12a;" horiz-adv-x="502" 
d="M196 1797l13 129h392l-14 -129h-391zM94 0l174 1658h219l-174 -1658h-219z" />
    <glyph glyph-name="imacron" unicode="&#x12b;" horiz-adv-x="454" 
d="M125 1323l13 129h392l-14 -129h-391zM77 0l124 1184h212l-124 -1184h-212z" />
    <glyph glyph-name="Ibreve" unicode="&#x12c;" horiz-adv-x="502" 
d="M391 1797q-256 0 -256 247q0 25 3 52h125q-2 -19 -2 -36q0 -66 28 -100q36 -42 114 -43q79 0 123 42.5t55 136.5h127q-33 -299 -317 -299zM94 0l174 1658h219l-174 -1658h-219z" />
    <glyph glyph-name="ibreve" unicode="&#x12d;" horiz-adv-x="454" 
d="M320 1323q-256 0 -256 247q0 25 3 52h125q-2 -19 -2 -36q0 -66 28 -100q36 -42 114 -43q79 0 123 42.5t55 136.5h127q-33 -299 -317 -299zM77 0l124 1184h212l-124 -1184h-212z" />
    <glyph glyph-name="Iogonek" unicode="&#x12e;" horiz-adv-x="502" 
d="M182 -462q-71 0 -117 3t-93 13t-73 28q-25 20 -39 52q-10 24 -10 55q0 11 1 24q9 94 88 180.5t165 113.5h108q-4 -5 -37 -39t-45 -48t-39 -47t-40 -54t-25.5 -49t-14.5 -52q-2 -19 4 -33t21 -21.5t30.5 -12.5t40 -6t42 -1t44 1t38.5 1zM94 0l174 1658h219l-174 -1658
h-219z" />
    <glyph glyph-name="iogonek" unicode="&#x12f;" horiz-adv-x="463" 
d="M158 -462q-71 0 -117 3t-93 13t-73 28q-25 20 -39 52q-10 24 -10 55q0 11 1 24q9 94 88 180.5t165 113.5h108q-4 -5 -37 -39t-45 -48t-39 -47t-40 -54t-25.5 -49t-14.5 -52q-2 -19 4 -33t21 -21.5t30.5 -12.5t40 -6t42 -1t44 1t38.5 1zM77 0l124 1184h212l-124 -1184
h-212zM220 1358l24 227h213l-24 -227h-213z" />
    <glyph glyph-name="Idotaccent" unicode="&#x130;" horiz-adv-x="502" 
d="M284 1797l25 241h215l-26 -241h-214zM94 0l174 1658h219l-174 -1658h-219z" />
    <glyph glyph-name="dotlessi" unicode="&#x131;" horiz-adv-x="454" 
d="M77 0l124 1184h212l-124 -1184h-212z" />
    <glyph glyph-name="ij" unicode="&#x133;" horiz-adv-x="931" 
d="M346 -287l17 153q30 -5 56 -5q68 0 100 38t39 107l124 1178h212l-126 -1200q-15 -137 -98 -210.5t-217 -73.5q-73 0 -107 13zM700 1358l24 227h214l-24 -227h-214zM77 0l124 1184h212l-124 -1184h-212zM220 1358l24 227h213l-24 -227h-213z" />
    <glyph glyph-name="Jcircumflex" unicode="&#x134;" horiz-adv-x="613" 
d="M162 1875l214 358h217l140 -358h-159l-100 252l-153 -252h-159zM-38 -43l16 161q79 0 125 9.5t77 39.5t44.5 77t22.5 130l134 1284h224l-134 -1289q-12 -111 -36 -184.5t-69.5 -126.5t-118 -77t-179.5 -24h-106z" />
    <glyph glyph-name="jcircumflex" unicode="&#x135;" horiz-adv-x="468" 
d="M39 1375l214 358h217l140 -358h-159l-100 252l-153 -252h-159zM-119 -313l16 154q24 -6 56 -6q68 0 100.5 38t39.5 107l126 1204h212l-129 -1226q-14 -137 -97 -210.5t-217 -73.5q-74 0 -107 13z" />
    <glyph glyph-name="Kcommaaccent" unicode="&#x136;" horiz-adv-x="1009" 
d="M402 -577l-43 105q61 7 90 38t35 90h-110l24 222h217l-23 -206q-13 -121 -53 -182t-137 -67zM82 0l174 1658h224l-82 -790l469 790h208l-406 -729l287 -929h-218l-251 826l-112 -177l-69 -649h-224z" />
    <glyph glyph-name="kcommaaccent" unicode="&#x137;" horiz-adv-x="872" 
d="M331 -577l-43 105q61 7 90 38t35 90h-110l24 222h217l-23 -206q-13 -121 -53 -182t-137 -67zM66 3l175 1658h212l-105 -996l382 518l222 1l-329 -464l196 -720h-212l-159 611l-122 -157l-48 -451h-212z" />
    <glyph glyph-name="kgreenlandic" unicode="&#x138;" horiz-adv-x="878" 
d="M73 0l124 1184h212l-56 -527l374 527h214l-320 -452l197 -732h-213l-143 586l-134 -174l-43 -412h-212z" />
    <glyph glyph-name="Lacute" unicode="&#x139;" horiz-adv-x="810" 
d="M338 1797l164 404h212l-268 -404h-108zM82 0l174 1658h224l-156 -1497h428l-18 -161h-652z" />
    <glyph glyph-name="lacute" unicode="&#x13a;" horiz-adv-x="464" 
d="M322 1780l164 404h212l-268 -404h-108zM83 0l174 1658h213l-174 -1658h-213z" />
    <glyph glyph-name="Lcommaaccent" unicode="&#x13b;" horiz-adv-x="810" 
d="M292 -577l-43 105q61 7 90 38t35 90h-110l24 222h217l-23 -206q-13 -121 -53 -182t-137 -67zM82 0l174 1658h224l-156 -1497h428l-18 -161h-652z" />
    <glyph glyph-name="lcommaaccent" unicode="&#x13c;" horiz-adv-x="464" 
d="M73 -577l-43 105q61 7 90 38t35 90h-110l24 222h217l-23 -206q-13 -121 -53 -182t-137 -67zM83 0l174 1658h213l-174 -1658h-213z" />
    <glyph glyph-name="Lcaron" unicode="&#x13d;" horiz-adv-x="810" 
d="M668 1169l53 506h191l-130 -506h-114zM82 0l174 1658h224l-156 -1497h428l-18 -161h-652z" />
    <glyph glyph-name="lcaron" unicode="&#x13e;" horiz-adv-x="635" 
d="M644 1152l53 506h191l-130 -506h-114zM83 0l174 1658h213l-174 -1658h-213z" />
    <glyph glyph-name="Ldot" unicode="&#x13f;" horiz-adv-x="810" 
d="M563 727l23 221h212l-22 -221h-213zM82 0l174 1658h224l-156 -1497h428l-18 -161h-652z" />
    <glyph glyph-name="ldot" unicode="&#x140;" horiz-adv-x="827" 
d="M565 661l23 221h212l-22 -221h-213zM83 0l174 1658h213l-174 -1658h-213z" />
    <glyph glyph-name="Lslash" unicode="&#x141;" horiz-adv-x="810" 
d="M82 0l82 777l-150 -79l18 172l150 79l74 709h224l-61 -585l230 119l-18 -172l-230 -119l-77 -740h428l-18 -161h-652z" />
    <glyph glyph-name="lslash" unicode="&#x142;" horiz-adv-x="544" 
d="M127 0l90 857l-145 -67l17 167l145 66l67 635h212l-56 -537l132 61l-17 -165l-133 -61l-100 -956h-212z" />
    <glyph glyph-name="Nacute" unicode="&#x143;" horiz-adv-x="1079" 
d="M625 1797l164 404h212l-268 -404h-108zM82 0l174 1658h154l359 -1119l117 1119h188l-174 -1658h-145l-362 1150l-122 -1150h-189z" />
    <glyph glyph-name="nacute" unicode="&#x144;" horiz-adv-x="893" 
d="M487 1323l164 404h212l-268 -404h-108zM63 0l124 1184h211l-12 -117q158 134 304 134q50 0 84 -21.5t48 -55.5t20 -78q2 -19 3 -39q0 -25 -4 -50l-100 -957h-212l94 896q2 21 2 39q1 42 -11 66q-16 33 -72 33q-69 0 -167 -77l-101 -957h-211z" />
    <glyph glyph-name="Ncommaaccent" unicode="&#x145;" horiz-adv-x="1079" 
d="M374 -577l-43 105q61 7 90 38t35 90h-110l24 222h217l-23 -206q-13 -121 -53 -182t-137 -67zM82 0l174 1658h154l359 -1119l117 1119h188l-174 -1658h-145l-362 1150l-122 -1150h-189z" />
    <glyph glyph-name="ncommaaccent" unicode="&#x146;" horiz-adv-x="893" 
d="M286 -577l-43 105q61 7 90 38t35 90h-110l24 222h217l-23 -206q-13 -121 -53 -182t-137 -67zM63 0l124 1184h211l-12 -117q158 134 304 134q50 0 84 -21.5t48 -55.5t20 -78q2 -19 3 -39q0 -25 -4 -50l-100 -957h-212l94 896q2 21 2 39q1 42 -11 66q-16 33 -72 33
q-69 0 -167 -77l-101 -957h-211z" />
    <glyph glyph-name="Ncaron" unicode="&#x147;" horiz-adv-x="1079" 
d="M575 1797l-140 351h162l93 -239l144 239h162l-214 -351h-207zM82 0l174 1658h154l359 -1119l117 1119h188l-174 -1658h-145l-362 1150l-122 -1150h-189z" />
    <glyph glyph-name="ncaron" unicode="&#x148;" horiz-adv-x="893" 
d="M437 1323l-140 351h162l93 -239l144 239h162l-214 -351h-207zM63 0l124 1184h211l-12 -117q158 134 304 134q50 0 84 -21.5t48 -55.5t20 -78q2 -19 3 -39q0 -25 -4 -50l-100 -957h-212l94 896q2 21 2 39q1 42 -11 66q-16 33 -72 33q-69 0 -167 -77l-101 -957h-211z" />
    <glyph glyph-name="napostrophe" unicode="&#x149;" horiz-adv-x="892" 
d="M63 0l124 1184h211l-12 -117q158 134 304 134q50 0 84 -21.5t48 -55.5t20 -78q2 -19 3 -39q0 -25 -4 -50l-100 -957h-212l94 896q2 21 2 39q1 42 -11 66q-16 33 -72 33q-69 0 -167 -77l-101 -957h-211zM150 1425l53 506h191l-130 -506h-114z" />
    <glyph glyph-name="Eng" unicode="&#x14a;" horiz-adv-x="1088" 
d="M461 -370l16 153q45 0 78 4t57.5 11t42 21.5t28.5 30.5t19 43.5t12 54t9 68.5l7 67l-349 1067l-121 -1150h-178l174 1658h154l370 -1119l118 1119h176l-174 -1658q-10 -96 -31 -161t-61.5 -114t-106.5 -72t-162 -23h-78z" />
    <glyph glyph-name="eng" unicode="&#x14b;" horiz-adv-x="794" 
d="M228 -373l17 161q100 0 156.5 23.5t78 64.5t29.5 114l95 906q2 21 2 39q0 42 -12 66q-16 33 -71 33q-69 0 -167 -77l-100 -957h-212l124 1184h212l-13 -117q158 134 304 134q50 0 84 -21.5t48.5 -55.5t20.5 -78q3 -20 3 -41q0 -24 -4 -48l-102 -969q-19 -177 -135.5 -269
t-294.5 -92h-63z" />
    <glyph glyph-name="Omacron" unicode="&#x14c;" horiz-adv-x="1101" 
d="M496 1797l13 129h392l-14 -129h-391zM519 158q69 0 116.5 21t75.5 65t42.5 96t22.5 128l76 729q6 48 6 90q0 19 -1 36q-4 56 -22.5 95.5t-62 60.5t-112.5 21t-116.5 -20t-75.5 -62.5t-42.5 -93.5t-22.5 -127l-76 -729q-5 -52 -5 -96q0 -38 4 -68q8 -68 55 -107t138 -39z
M500 -18q-124 0 -208.5 37.5t-127.5 107.5q-43 71 -58 169q-8 49 -8 104.5t8 116.5l67 634q27 257 145.5 390.5t359.5 133.5q123 0 207 -36t129 -105.5t59 -163.5q7 -49 7 -106q0 -53 -6 -113l-68 -635q-13 -125 -47 -220.5t-93 -167.5t-151 -109t-215 -37z" />
    <glyph glyph-name="omacron" unicode="&#x14d;" horiz-adv-x="863" 
d="M326 1323l13 129h392l-14 -129h-391zM397 140q27 0 48.5 8.5t36.5 19.5t26.5 34t18.5 40.5t13 51.5t8.5 54t6.5 59l39 368q4 38 5.5 59t2.5 54.5t-2 51.5t-10 41t-19.5 34.5t-32 20t-46.5 8.5q-31 0 -55 -9.5t-40 -30.5t-26.5 -41.5t-18 -56.5t-11 -61.5t-7.5 -69.5
l-39 -368q-4 -39 -5.5 -59.5t-2.5 -53.5t2 -51t10 -41t19.5 -34.5t32 -19.5t46.5 -8zM380 -17q-96 0 -160.5 30.5t-96 87.5t-41.5 138q-4 35 -4 74q0 51 7 108l35 341q23 215 112.5 327t275.5 112q96 0 161 -31t97 -88t42 -138q5 -36 4 -76q0 -50 -7 -106l-36 -341
q-11 -105 -36.5 -182.5t-70.5 -136.5t-115.5 -89t-166.5 -30z" />
    <glyph glyph-name="Obreve" unicode="&#x14e;" horiz-adv-x="1101" 
d="M691 1797q-256 0 -256 247q0 25 3 52h125q-2 -19 -2 -36q0 -66 28 -100q36 -42 114 -43q79 0 123 42.5t55 136.5h127q-33 -299 -317 -299zM519 158q69 0 116.5 21t75.5 65t42.5 96t22.5 128l76 729q6 48 6 90q0 19 -1 36q-4 56 -22.5 95.5t-62 60.5t-112.5 21t-116.5 -20
t-75.5 -62.5t-42.5 -93.5t-22.5 -127l-76 -729q-5 -52 -5 -96q0 -38 4 -68q8 -68 55 -107t138 -39zM500 -18q-124 0 -208.5 37.5t-127.5 107.5q-43 71 -58 169q-8 49 -8 104.5t8 116.5l67 634q27 257 145.5 390.5t359.5 133.5q123 0 207 -36t129 -105.5t59 -163.5
q7 -49 7 -106q0 -53 -6 -113l-68 -635q-13 -125 -47 -220.5t-93 -167.5t-151 -109t-215 -37z" />
    <glyph glyph-name="obreve" unicode="&#x14f;" horiz-adv-x="863" 
d="M521 1323q-256 0 -256 247q0 25 3 52h125q-2 -19 -2 -36q0 -66 28 -100q36 -42 114 -43q79 0 123 42.5t55 136.5h127q-33 -299 -317 -299zM397 140q27 0 48.5 8.5t36.5 19.5t26.5 34t18.5 40.5t13 51.5t8.5 54t6.5 59l39 368q4 38 5.5 59t2.5 54.5t-2 51.5t-10 41
t-19.5 34.5t-32 20t-46.5 8.5q-31 0 -55 -9.5t-40 -30.5t-26.5 -41.5t-18 -56.5t-11 -61.5t-7.5 -69.5l-39 -368q-4 -39 -5.5 -59.5t-2.5 -53.5t2 -51t10 -41t19.5 -34.5t32 -19.5t46.5 -8zM380 -17q-96 0 -160.5 30.5t-96 87.5t-41.5 138q-4 35 -4 74q0 51 7 108l35 341
q23 215 112.5 327t275.5 112q96 0 161 -31t97 -88t42 -138q5 -36 4 -76q0 -50 -7 -106l-36 -341q-11 -105 -36.5 -182.5t-70.5 -136.5t-115.5 -89t-166.5 -30z" />
    <glyph glyph-name="Ohungarumlaut" unicode="&#x150;" horiz-adv-x="1101" 
d="M510 1797l116 348h175l-184 -348h-107zM764 1797l154 348h216l-262 -348h-108zM519 158q69 0 116.5 21t75.5 65t42.5 96t22.5 128l76 729q6 48 6 90q0 19 -1 36q-4 56 -22.5 95.5t-62 60.5t-112.5 21t-116.5 -20t-75.5 -62.5t-42.5 -93.5t-22.5 -127l-76 -729
q-5 -52 -5 -96q0 -38 4 -68q8 -68 55 -107t138 -39zM500 -18q-124 0 -208.5 37.5t-127.5 107.5q-43 71 -58 169q-8 49 -8 104.5t8 116.5l67 634q27 257 145.5 390.5t359.5 133.5q123 0 207 -36t129 -105.5t59 -163.5q7 -49 7 -106q0 -53 -6 -113l-68 -635
q-13 -125 -47 -220.5t-93 -167.5t-151 -109t-215 -37z" />
    <glyph glyph-name="ohungarumlaut" unicode="&#x151;" horiz-adv-x="863" 
d="M340 1323l116 348h175l-184 -348h-107zM594 1323l154 348h216l-262 -348h-108zM397 140q27 0 48.5 8.5t36.5 19.5t26.5 34t18.5 40.5t13 51.5t8.5 54t6.5 59l39 368q4 38 5.5 59t2.5 54.5t-2 51.5t-10 41t-19.5 34.5t-32 20t-46.5 8.5q-31 0 -55 -9.5t-40 -30.5
t-26.5 -41.5t-18 -56.5t-11 -61.5t-7.5 -69.5l-39 -368q-4 -39 -5.5 -59.5t-2.5 -53.5t2 -51t10 -41t19.5 -34.5t32 -19.5t46.5 -8zM380 -17q-96 0 -160.5 30.5t-96 87.5t-41.5 138q-4 35 -4 74q0 51 7 108l35 341q23 215 112.5 327t275.5 112q96 0 161 -31t97 -88t42 -138
q5 -36 4 -76q0 -50 -7 -106l-36 -341q-11 -105 -36.5 -182.5t-70.5 -136.5t-115.5 -89t-166.5 -30z" />
    <glyph glyph-name="OE" unicode="&#x152;" horiz-adv-x="1391" 
d="M538 0q-136 0 -227 31t-140.5 96t-64.5 156q-8 47 -8 104q0 53 7 116l65 620q28 269 151 402t375 133h760l-17 -167h-404l-58 -552h329l-16 -161h-329l-65 -616h407l-17 -162h-748zM560 167h112l141 1330h-117q-42 0 -76 -6t-61 -15t-48 -27.5t-36.5 -36t-28 -48t-20 -56
t-14.5 -67t-11.5 -74.5t-9.5 -85l-58 -556q-9 -79 -9 -140q0 -35 3 -64q8 -80 62 -117.5t171 -37.5z" />
    <glyph glyph-name="oe" unicode="&#x153;" horiz-adv-x="1394" 
d="M409 -17q-187 1 -254 111q-50 82 -50 221q0 48 6 102l36 349q22 213 112.5 324t277.5 111q172 0 224 -144q37 69 105 106.5t157 37.5q135 0 204 -58.5t82 -170.5q6 -50 6 -110q0 -74 -9 -163l-12 -102h-476l-8 -78q-5 -44 -6.5 -63.5t-4.5 -60.5t-1.5 -62t4 -53
t10.5 -49.5t19.5 -36t30.5 -27.5t43 -10h13q60 1 91 35q35 38 46 138l9 81h211l-9 -79q-20 -182 -112 -268q-86 -81 -246 -81h-22q-176 6 -223 146q-77 -146 -254 -146zM427 157q27 0 48.5 8t37 19t27 32.5t18.5 39.5t13 49.5t9 53t7 58.5l37 349q6 72 8 130v6q0 54 -26 89
q-27 37 -87 37q-37 0 -64.5 -15t-43 -36t-26.5 -60t-15.5 -69.5t-9.5 -81.5l-37 -349q-5 -42 -6.5 -68t-1.5 -60t6.5 -54.5t18.5 -40t34 -28.5t53 -9zM830 706h264l4 38q4 41 6 69q2 22 2 50v15q0 36 -7 60t-18.5 46t-32.5 33t-51 11q-42 0 -72 -22.5t-48 -65t-27.5 -87.5
t-15.5 -107z" />
    <glyph glyph-name="Racute" unicode="&#x154;" horiz-adv-x="1061" 
d="M640 1797l164 404h212l-268 -404h-108zM82 0l174 1658h339q248 0 353 -104q85 -84 85 -252q0 -38 -4 -81q-35 -323 -249 -388l151 -833h-217l-138 782h-187l-83 -782h-224zM406 942h99q152 0 221.5 60.5t86.5 218.5q4 37 4 69q0 98 -37 145q-49 62 -203 62h-113z" />
    <glyph glyph-name="racute" unicode="&#x155;" horiz-adv-x="653" 
d="M408 1323l164 404h212l-268 -404h-108zM69 0l124 1184h212l-17 -168q128 183 281 183q5 0 35 -2l-25 -234q-51 22 -112 22q-56 0 -102 -25t-93 -90l-91 -870h-212z" />
    <glyph glyph-name="Rcommaaccent" unicode="&#x156;" horiz-adv-x="1061" 
d="M390 -577l-43 105q61 7 90 38t35 90h-110l24 222h217l-23 -206q-13 -121 -53 -182t-137 -67zM82 0l174 1658h339q248 0 353 -104q85 -84 85 -252q0 -38 -4 -81q-35 -323 -249 -388l151 -833h-217l-138 782h-187l-83 -782h-224zM406 942h99q152 0 221.5 60.5t86.5 218.5
q4 37 4 69q0 98 -37 145q-49 62 -203 62h-113z" />
    <glyph glyph-name="rcommaaccent" unicode="&#x157;" horiz-adv-x="653" 
d="M207 -577l-43 105q61 7 90 38t35 90h-110l24 222h217l-23 -206q-13 -121 -53 -182t-137 -67zM69 0l124 1184h212l-17 -168q128 183 281 183q5 0 35 -2l-25 -234q-51 22 -112 22q-56 0 -102 -25t-93 -90l-91 -870h-212z" />
    <glyph glyph-name="Rcaron" unicode="&#x158;" horiz-adv-x="1061" 
d="M591 1797l-140 351h162l93 -239l144 239h162l-214 -351h-207zM82 0l174 1658h339q248 0 353 -104q85 -84 85 -252q0 -38 -4 -81q-35 -323 -249 -388l151 -833h-217l-138 782h-187l-83 -782h-224zM406 942h99q152 0 221.5 60.5t86.5 218.5q4 37 4 69q0 98 -37 145
q-49 62 -203 62h-113z" />
    <glyph glyph-name="rcaron" unicode="&#x159;" horiz-adv-x="653" 
d="M359 1323l-140 351h162l93 -239l144 239h162l-214 -351h-207zM69 0l124 1184h212l-17 -168q128 183 281 183q5 0 35 -2l-25 -234q-51 22 -112 22q-56 0 -102 -25t-93 -90l-91 -870h-212z" />
    <glyph glyph-name="Sacute" unicode="&#x15a;" horiz-adv-x="966" 
d="M582 1797l164 404h212l-268 -404h-108zM467 -18q-208 0 -303 128q-86 116 -86 309q0 20 1 42l205 54q-1 -24 -1 -46q1 -48 5 -87q6 -58 26.5 -111.5t63.5 -83t108 -29.5q92 0 145 50.5t63 148.5q2 20 2 38q0 22 -3 44q-6 39 -16.5 67.5t-34 61.5t-42.5 54.5t-54 57.5
l-253 250q-75 76 -105 160q-21 59 -21 135q0 33 4 69q19 179 133.5 279t294.5 102h7q192 -1 279 -103q84 -100 84 -307v-19l-195 -52q1 23 1 45q0 43 -4 77q-6 52 -25 98t-60 68q-35 19 -85 19q-9 0 -19 -1q-191 -11 -209 -185q-2 -19 -2 -36q0 -49 15 -86q20 -50 73 -105
l255 -249q100 -99 152 -211q41 -88 41 -195q0 -28 -3 -58q-19 -182 -139.5 -287.5t-297.5 -105.5z" />
    <glyph glyph-name="sacute" unicode="&#x15b;" horiz-adv-x="762" 
d="M418 1323l164 404h212l-268 -404h-108zM334 -17q-144 0 -222 91q-75 87 -75 228v15l182 53q1 -118 34.5 -174t106.5 -56q61 0 102.5 39.5t44.5 99.5q1 7 1 13q0 84 -82 160l-180 169q-67 63 -98 129q-22 48 -22 111q0 24 3 50q18 138 106.5 214t226.5 76q134 1 202 -87
q65 -84 64 -213v-12l-149 -53q-2 102 -30.5 155t-94.5 53q-56 0 -93 -35.5t-42 -87.5q-1 -7 -1 -14q0 -64 51 -113l186 -188q71 -70 109 -144q30 -58 30 -136q0 -21 -2 -42q-15 -147 -111.5 -224t-246.5 -77z" />
    <glyph glyph-name="Scircumflex" unicode="&#x15c;" horiz-adv-x="966" 
d="M351 1797l214 358h217l140 -358h-159l-100 252l-153 -252h-159zM467 -18q-208 0 -303 128q-86 116 -86 309q0 20 1 42l205 54q-1 -24 -1 -46q1 -48 5 -87q6 -58 26.5 -111.5t63.5 -83t108 -29.5q92 0 145 50.5t63 148.5q2 20 2 38q0 22 -3 44q-6 39 -16.5 67.5t-34 61.5
t-42.5 54.5t-54 57.5l-253 250q-75 76 -105 160q-21 59 -21 135q0 33 4 69q19 179 133.5 279t294.5 102h7q192 -1 279 -103q84 -100 84 -307v-19l-195 -52q1 23 1 45q0 43 -4 77q-6 52 -25 98t-60 68q-35 19 -85 19q-9 0 -19 -1q-191 -11 -209 -185q-2 -19 -2 -36
q0 -49 15 -86q20 -50 73 -105l255 -249q100 -99 152 -211q41 -88 41 -195q0 -28 -3 -58q-19 -182 -139.5 -287.5t-297.5 -105.5z" />
    <glyph glyph-name="scircumflex" unicode="&#x15d;" horiz-adv-x="762" 
d="M186 1323l214 358h217l140 -358h-159l-100 252l-153 -252h-159zM334 -17q-144 0 -222 91q-75 87 -75 228v15l182 53q1 -118 34.5 -174t106.5 -56q61 0 102.5 39.5t44.5 99.5q1 7 1 13q0 84 -82 160l-180 169q-67 63 -98 129q-22 48 -22 111q0 24 3 50q18 138 106.5 214
t226.5 76q134 1 202 -87q65 -84 64 -213v-12l-149 -53q-2 102 -30.5 155t-94.5 53q-56 0 -93 -35.5t-42 -87.5q-1 -7 -1 -14q0 -64 51 -113l186 -188q71 -70 109 -144q30 -58 30 -136q0 -21 -2 -42q-15 -147 -111.5 -224t-246.5 -77z" />
    <glyph glyph-name="Scedilla" unicode="&#x15e;" horiz-adv-x="966" 
d="M312 -455l12 107q54 -12 103 -14h9q44 0 78 17q38 19 42 55q3 23 -5 41t-20 29t-37.5 22t-44 16.5t-51.5 13.5l18 168h107l-11 -114q88 -14 148 -59q56 -42 56 -106v-9q-4 -61 -40.5 -104.5t-92.5 -62t-127 -20.5h-12q-65 0 -132 20zM467 -18q-208 0 -303 128
q-86 116 -86 309q0 20 1 42l205 54q-1 -24 -1 -46q1 -48 5 -87q6 -58 26.5 -111.5t63.5 -83t108 -29.5q92 0 145 50.5t63 148.5q2 20 2 38q0 22 -3 44q-6 39 -16.5 67.5t-34 61.5t-42.5 54.5t-54 57.5l-253 250q-75 76 -105 160q-21 59 -21 135q0 33 4 69q19 179 133.5 279
t294.5 102h7q192 -1 279 -103q84 -100 84 -307v-19l-195 -52q1 23 1 45q0 43 -4 77q-6 52 -25 98t-60 68q-35 19 -85 19q-9 0 -19 -1q-191 -11 -209 -185q-2 -19 -2 -36q0 -49 15 -86q20 -50 73 -105l255 -249q100 -99 152 -211q41 -88 41 -195q0 -28 -3 -58
q-19 -182 -139.5 -287.5t-297.5 -105.5z" />
    <glyph glyph-name="scedilla" unicode="&#x15f;" horiz-adv-x="762" 
d="M212 -455l12 107q54 -12 103 -14h9q44 0 78 17q38 19 42 55q3 23 -5 41t-20 29t-37.5 22t-44 16.5t-51.5 13.5l18 168h107l-11 -114q88 -14 148 -59q56 -42 56 -106v-9q-4 -61 -40.5 -104.5t-92.5 -62t-127 -20.5h-12q-65 0 -132 20zM334 -17q-144 0 -222 91
q-75 87 -75 228v15l182 53q1 -118 34.5 -174t106.5 -56q61 0 102.5 39.5t44.5 99.5q1 7 1 13q0 84 -82 160l-180 169q-67 63 -98 129q-22 48 -22 111q0 24 3 50q18 138 106.5 214t226.5 76q134 1 202 -87q65 -84 64 -213v-12l-149 -53q-2 102 -30.5 155t-94.5 53
q-56 0 -93 -35.5t-42 -87.5q-1 -7 -1 -14q0 -64 51 -113l186 -188q71 -70 109 -144q30 -58 30 -136q0 -21 -2 -42q-15 -147 -111.5 -224t-246.5 -77z" />
    <glyph glyph-name="Scaron" unicode="&#x160;" horiz-adv-x="966" 
d="M533 1797l-140 351h162l93 -239l144 239h162l-214 -351h-207zM467 -18q-208 0 -303 128q-86 116 -86 309q0 20 1 42l205 54q-1 -24 -1 -46q1 -48 5 -87q6 -58 26.5 -111.5t63.5 -83t108 -29.5q92 0 145 50.5t63 148.5q2 20 2 38q0 22 -3 44q-6 39 -16.5 67.5t-34 61.5
t-42.5 54.5t-54 57.5l-253 250q-75 76 -105 160q-21 59 -21 135q0 33 4 69q19 179 133.5 279t294.5 102h7q192 -1 279 -103q84 -100 84 -307v-19l-195 -52q1 23 1 45q0 43 -4 77q-6 52 -25 98t-60 68q-35 19 -85 19q-9 0 -19 -1q-191 -11 -209 -185q-2 -19 -2 -36
q0 -49 15 -86q20 -50 73 -105l255 -249q100 -99 152 -211q41 -88 41 -195q0 -28 -3 -58q-19 -182 -139.5 -287.5t-297.5 -105.5z" />
    <glyph glyph-name="scaron" unicode="&#x161;" horiz-adv-x="762" 
d="M368 1323l-140 351h162l93 -239l144 239h162l-214 -351h-207zM334 -17q-144 0 -222 91q-75 87 -75 228v15l182 53q1 -118 34.5 -174t106.5 -56q61 0 102.5 39.5t44.5 99.5q1 7 1 13q0 84 -82 160l-180 169q-67 63 -98 129q-22 48 -22 111q0 24 3 50q18 138 106.5 214
t226.5 76q134 1 202 -87q65 -84 64 -213v-12l-149 -53q-2 102 -30.5 155t-94.5 53q-56 0 -93 -35.5t-42 -87.5q-1 -7 -1 -14q0 -64 51 -113l186 -188q71 -70 109 -144q30 -58 30 -136q0 -21 -2 -42q-15 -147 -111.5 -224t-246.5 -77z" />
    <glyph glyph-name="Tcommaaccent" unicode="&#x162;" horiz-adv-x="817" 
d="M222 -455l12 107q54 -12 103 -14h9q44 0 78 17q38 19 42 55q3 23 -5 41t-20 29t-37.5 22t-44 16.5t-51.5 13.5l18 168h107l-11 -114q88 -14 148 -59q56 -42 56 -106v-9q-4 -61 -40.5 -104.5t-92.5 -62t-127 -20.5h-12q-65 0 -132 20zM254 0l156 1492h-305l17 166h825
l-17 -166h-296l-157 -1492h-223z" />
    <glyph glyph-name="tcommaaccent" unicode="&#x163;" horiz-adv-x="625" 
d="M182 -455l12 107q54 -12 103 -14h9q44 0 78 17q38 19 42 55q3 23 -5 41t-20 29t-37.5 22t-44 16.5t-51.5 13.5l18 168h107l-11 -114q88 -14 148 -59q56 -42 56 -106v-9q-4 -61 -40.5 -104.5t-92.5 -62t-127 -20.5h-12q-65 0 -132 20zM372 -16q-134 0 -184 70
q-40 56 -41 156q0 26 3 54l82 778h-126l15 142h125l37 347h212l-37 -347h191l-14 -142h-191l-81 -763q-2 -20 -2 -37q0 -45 14 -66q19 -29 82 -29q49 0 83 6l-17 -158q-86 -11 -151 -11z" />
    <glyph glyph-name="Tcaron" unicode="&#x164;" horiz-adv-x="817" 
d="M445 1797l-140 351h162l93 -239l144 239h162l-214 -351h-207zM254 0l156 1492h-305l17 166h825l-17 -166h-296l-157 -1492h-223z" />
    <glyph glyph-name="tcaron" unicode="&#x165;" horiz-adv-x="933" 
d="M775 1025l53 506h191l-130 -506h-114zM372 -16q-134 0 -184 70q-40 56 -41 156q0 26 3 54l82 778h-126l15 142h125l37 347h212l-37 -347h191l-14 -142h-191l-81 -763q-2 -20 -2 -37q0 -45 14 -66q19 -29 82 -29q49 0 83 6l-17 -158q-86 -11 -151 -11z" />
    <glyph glyph-name="Tbar" unicode="&#x166;" horiz-adv-x="817" 
d="M116 805l14 127h221l59 560h-305l17 166h825l-17 -166h-296l-59 -560h203l-14 -127h-202l-85 -805h-223l84 805h-222z" />
    <glyph glyph-name="tbar" unicode="&#x167;" horiz-adv-x="500" 
d="M72 700l11 109h124l25 233h-126l15 142h125l37 347h212l-37 -347h191l-14 -142h-191l-25 -233h197l-11 -109h-197l-45 -421q-2 -20 -2 -37q0 -45 14 -66q19 -29 82 -29q49 0 83 6l-17 -158q-86 -11 -151 -11q-134 0 -184 70q-40 56 -41 156q0 26 3 54l46 436h-124z" />
    <glyph glyph-name="Utilde" unicode="&#x168;" horiz-adv-x="1112" 
d="M828 1797q-40 0 -89 25t-92 50t-68 26q-27 2 -42.5 -18t-19.5 -65h-122q9 98 57 159q45 58 133 58h9q52 -1 140 -49.5t109 -48.5q26 -2 39.5 17.5t18.5 67.5h120q-5 -48 -16.5 -85.5t-33 -70t-57.5 -50.5q-35 -17 -81 -16h-5zM506 -18q-132 0 -216.5 40.5t-122.5 115.5
q-39 74 -49 178q-4 40 -4 83q0 70 11 149l117 1110h212l-117 -1120q-9 -63 -9 -119q0 -15 1 -30q3 -69 19 -120.5t60.5 -81t116.5 -29.5q57 0 100.5 20t71 52t47 83.5t29.5 103t17 121.5l118 1120h213l-117 -1110q-11 -108 -31 -190t-57 -155.5t-90.5 -120t-134 -73.5
t-185.5 -27z" />
    <glyph glyph-name="utilde" unicode="&#x169;" horiz-adv-x="895" 
d="M665 1323q-40 0 -89 25t-92 50t-68 26q-27 2 -42.5 -18t-19.5 -65h-122q9 98 57 159q45 58 133 58h9q52 -1 140 -49.5t109 -48.5q26 -2 39.5 17.5t18.5 67.5h120q-5 -48 -16.5 -85.5t-33 -70t-57.5 -50.5q-35 -17 -81 -16h-5zM230 -17q-50 0 -83.5 21.5t-48 55.5
t-20.5 78q-3 20 -3 41q0 24 4 48l100 957h212l-94 -896q-2 -21 -2 -38q0 -42 12 -66q17 -34 72 -34q69 0 166 78l100 956h212l-124 -1184h-212l13 118q-155 -135 -304 -135z" />
    <glyph glyph-name="Umacron" unicode="&#x16a;" horiz-adv-x="1112" 
d="M500 1797l13 129h392l-14 -129h-391zM506 -18q-132 0 -216.5 40.5t-122.5 115.5q-39 74 -49 178q-4 40 -4 83q0 70 11 149l117 1110h212l-117 -1120q-9 -63 -9 -119q0 -15 1 -30q3 -69 19 -120.5t60.5 -81t116.5 -29.5q57 0 100.5 20t71 52t47 83.5t29.5 103t17 121.5
l118 1120h213l-117 -1110q-11 -108 -31 -190t-57 -155.5t-90.5 -120t-134 -73.5t-185.5 -27z" />
    <glyph glyph-name="umacron" unicode="&#x16b;" horiz-adv-x="895" 
d="M336 1323l13 129h392l-14 -129h-391zM230 -17q-50 0 -83.5 21.5t-48 55.5t-20.5 78q-3 20 -3 41q0 24 4 48l100 957h212l-94 -896q-2 -21 -2 -38q0 -42 12 -66q17 -34 72 -34q69 0 166 78l100 956h212l-124 -1184h-212l13 118q-155 -135 -304 -135z" />
    <glyph glyph-name="Ubreve" unicode="&#x16c;" horiz-adv-x="1112" 
d="M694 1797q-256 0 -256 247q0 25 3 52h125q-2 -19 -2 -36q0 -66 28 -100q36 -42 114 -43q79 0 123 42.5t55 136.5h127q-33 -299 -317 -299zM506 -18q-132 0 -216.5 40.5t-122.5 115.5q-39 74 -49 178q-4 40 -4 83q0 70 11 149l117 1110h212l-117 -1120q-9 -63 -9 -119
q0 -15 1 -30q3 -69 19 -120.5t60.5 -81t116.5 -29.5q57 0 100.5 20t71 52t47 83.5t29.5 103t17 121.5l118 1120h213l-117 -1110q-11 -108 -31 -190t-57 -155.5t-90.5 -120t-134 -73.5t-185.5 -27z" />
    <glyph glyph-name="ubreve" unicode="&#x16d;" horiz-adv-x="895" 
d="M531 1323q-256 0 -256 247q0 25 3 52h125q-2 -19 -2 -36q0 -66 28 -100q36 -42 114 -43q79 0 123 42.5t55 136.5h127q-33 -299 -317 -299zM230 -17q-50 0 -83.5 21.5t-48 55.5t-20.5 78q-3 20 -3 41q0 24 4 48l100 957h212l-94 -896q-2 -21 -2 -38q0 -42 12 -66
q17 -34 72 -34q69 0 166 78l100 956h212l-124 -1184h-212l13 118q-155 -135 -304 -135z" />
    <glyph glyph-name="Uring" unicode="&#x16e;" horiz-adv-x="1112" 
d="M706 1905q53 0 88 31t41 87q1 8 1 16q0 44 -24 70q-28 31 -82 31t-88.5 -31t-39.5 -86q-1 -10 -1 -19q0 -42 23 -68q28 -31 82 -31zM695 1797q-101 0 -157 62q-46 51 -46 131q0 16 2 33q10 102 78 163t169 61t157 -60q48 -51 48 -134q0 -15 -2 -30q-11 -103 -80 -164.5
t-169 -61.5zM506 -18q-132 0 -216.5 40.5t-122.5 115.5q-39 74 -49 178q-4 40 -4 83q0 70 11 149l117 1110h212l-117 -1120q-9 -63 -9 -119q0 -15 1 -30q3 -69 19 -120.5t60.5 -81t116.5 -29.5q57 0 100.5 20t71 52t47 83.5t29.5 103t17 121.5l118 1120h213l-117 -1110
q-11 -108 -31 -190t-57 -155.5t-90.5 -120t-134 -73.5t-185.5 -27z" />
    <glyph glyph-name="uring" unicode="&#x16f;" horiz-adv-x="895" 
d="M543 1431q53 0 88 31t41 87q1 8 1 16q0 44 -24 70q-28 31 -82 31t-88.5 -31t-39.5 -86q-1 -10 -1 -19q0 -42 23 -68q28 -31 82 -31zM532 1323q-101 0 -157 62q-46 51 -46 131q0 16 2 33q10 102 78 163t169 61t157 -60q48 -51 48 -134q0 -15 -2 -30q-11 -103 -80 -164.5
t-169 -61.5zM230 -17q-50 0 -83.5 21.5t-48 55.5t-20.5 78q-3 20 -3 41q0 24 4 48l100 957h212l-94 -896q-2 -21 -2 -38q0 -42 12 -66q17 -34 72 -34q69 0 166 78l100 956h212l-124 -1184h-212l13 118q-155 -135 -304 -135z" />
    <glyph glyph-name="Uhungarumlaut" unicode="&#x170;" horiz-adv-x="1112" 
d="M514 1797l116 348h175l-184 -348h-107zM768 1797l154 348h216l-262 -348h-108zM506 -18q-132 0 -216.5 40.5t-122.5 115.5q-39 74 -49 178q-4 40 -4 83q0 70 11 149l117 1110h212l-117 -1120q-9 -63 -9 -119q0 -15 1 -30q3 -69 19 -120.5t60.5 -81t116.5 -29.5
q57 0 100.5 20t71 52t47 83.5t29.5 103t17 121.5l118 1120h213l-117 -1110q-11 -108 -31 -190t-57 -155.5t-90.5 -120t-134 -73.5t-185.5 -27z" />
    <glyph glyph-name="uhungarumlaut" unicode="&#x171;" horiz-adv-x="895" 
d="M351 1323l116 348h175l-184 -348h-107zM605 1323l154 348h216l-262 -348h-108zM230 -17q-50 0 -83.5 21.5t-48 55.5t-20.5 78q-3 20 -3 41q0 24 4 48l100 957h212l-94 -896q-2 -21 -2 -38q0 -42 12 -66q17 -34 72 -34q69 0 166 78l100 956h212l-124 -1184h-212l13 118
q-155 -135 -304 -135z" />
    <glyph glyph-name="Uogonek" unicode="&#x172;" horiz-adv-x="1112" 
d="M543 -462q-71 0 -117 3t-93 13t-73 28q-25 20 -39 52q-10 24 -10 55q0 11 1 24q9 94 88 180.5t165 113.5h108q-4 -5 -37 -39t-45 -48t-39 -47t-40 -54t-25.5 -49t-14.5 -52q-2 -19 4 -33t21 -21.5t30.5 -12.5t40 -6t42 -1t44 1t38.5 1zM506 -18q-132 0 -216.5 40.5
t-122.5 115.5q-39 74 -49 178q-4 40 -4 83q0 70 11 149l117 1110h212l-117 -1120q-9 -63 -9 -119q0 -15 1 -30q3 -69 19 -120.5t60.5 -81t116.5 -29.5q57 0 100.5 20t71 52t47 83.5t29.5 103t17 121.5l118 1120h213l-117 -1110q-11 -108 -31 -190t-57 -155.5t-90.5 -120
t-134 -73.5t-185.5 -27z" />
    <glyph glyph-name="uogonek" unicode="&#x173;" horiz-adv-x="895" 
d="M634 -462q-71 0 -117 3t-93 13t-73 28q-25 20 -39 52q-10 24 -10 55q0 11 1 24q9 94 88 180.5t165 113.5h108q-4 -5 -37 -39t-45 -48t-39 -47t-40 -54t-25.5 -49t-14.5 -52q-2 -19 4 -33t21 -21.5t30.5 -12.5t40 -6t42 -1t44 1t38.5 1zM230 -17q-50 0 -83.5 21.5
t-48 55.5t-20.5 78q-3 20 -3 41q0 24 4 48l100 957h212l-94 -896q-2 -21 -2 -38q0 -42 12 -66q17 -34 72 -34q69 0 166 78l100 956h212l-124 -1184h-212l13 118q-155 -135 -304 -135z" />
    <glyph glyph-name="Wcircumflex" unicode="&#x174;" horiz-adv-x="1490" 
d="M598 1797l214 358h217l140 -358h-159l-100 252l-153 -252h-159zM296 0l-98 1658h189l54 -1208l353 1201h159l102 -1205l303 1212h184l-441 -1658h-163l-104 1242l-367 -1242h-171z" />
    <glyph glyph-name="wcircumflex" unicode="&#x175;" horiz-adv-x="1201" 
d="M404 1323l214 358h217l140 -358h-159l-100 252l-153 -252h-159zM200 0l-66 1184h175l33 -884l253 884h163l68 -881l218 881h174l-319 -1184h-181l-74 848l-251 -848h-193z" />
    <glyph glyph-name="Ycircumflex" unicode="&#x176;" horiz-adv-x="983" 
d="M345 1797l214 358h217l140 -358h-159l-100 252l-153 -252h-159zM337 0l61 582l-247 1076h209l173 -811l338 811h212l-471 -1076l-61 -582h-214z" />
    <glyph glyph-name="ycircumflex" unicode="&#x177;" horiz-adv-x="799" 
d="M205 1323l214 358h217l140 -358h-159l-100 252l-153 -252h-159zM12 -296l17 161q76 0 120.5 6t70 23.5t32.5 43.5q4 15 4 38q0 16 -2 34q-9 77 -20 163l-133 1011h215l70 -897l252 897h215l-415 -1251q-42 -125 -137.5 -177t-260.5 -52h-28z" />
    <glyph glyph-name="Ydieresis" unicode="&#x178;" horiz-adv-x="983" 
d="M349 1797l23 221h213l-23 -221h-213zM698 1797l24 221h214l-23 -221h-215zM337 0l61 582l-247 1076h209l173 -811l338 811h212l-471 -1076l-61 -582h-214z" />
    <glyph glyph-name="Zacute" unicode="&#x179;" horiz-adv-x="851" 
d="M528 1797l164 404h212l-268 -404h-108zM28 0l18 161l634 1336h-463l17 161h701l-11 -98l-666 -1399h520l-17 -161h-733z" />
    <glyph glyph-name="zacute" unicode="&#x17a;" horiz-adv-x="707" 
d="M398 1323l164 404h212l-268 -404h-108zM17 0l15 143l460 882h-330l16 159h557l-12 -116l-462 -908h359l-17 -160h-586z" />
    <glyph glyph-name="Zdotaccent" unicode="&#x17b;" horiz-adv-x="851" 
d="M475 1797l25 241h215l-26 -241h-214zM28 0l18 161l634 1336h-463l17 161h701l-11 -98l-666 -1399h520l-17 -161h-733z" />
    <glyph glyph-name="zdotaccent" unicode="&#x17c;" horiz-adv-x="707" 
d="M345 1323l25 241h215l-26 -241h-214zM17 0l15 143l460 882h-330l16 159h557l-12 -116l-462 -908h359l-17 -160h-586z" />
    <glyph glyph-name="Zcaron" unicode="&#x17d;" horiz-adv-x="851" 
d="M479 1797l-140 351h162l93 -239l144 239h162l-214 -351h-207zM28 0l18 161l634 1336h-463l17 161h701l-11 -98l-666 -1399h520l-17 -161h-733z" />
    <glyph glyph-name="zcaron" unicode="&#x17e;" horiz-adv-x="707" 
d="M348 1323l-140 351h162l93 -239l144 239h162l-214 -351h-207zM17 0l15 143l460 882h-330l16 159h557l-12 -116l-462 -908h359l-17 -160h-586z" />
    <glyph glyph-name="florin" unicode="&#x192;" horiz-adv-x="777" 
d="M60 -246q-52 0 -137 11l33 159q55 -10 79 -10q60 0 87.5 37.5t45.5 117.5l205 957h-136l16 158h153l18 79q14 68 29.5 116t40.5 92.5t58.5 71.5t82.5 42.5t113 15.5q46 0 137 -12l-33 -158q-8 1 -36.5 5.5t-41.5 4.5q-60 0 -88 -37.5t-46 -116.5l-22 -103h159l-16 -158
h-176l-200 -934q-15 -69 -30.5 -117t-40.5 -92.5t-58 -71t-82 -42t-114 -15.5z" />
    <glyph glyph-name="uni01C4" unicode="&#x1c4;" horiz-adv-x="1929" 
d="M1557 1797l-140 351h162l93 -239l144 239h162l-214 -351h-207zM1106 0l18 161l634 1336h-463l17 161h701l-11 -98l-666 -1399h520l-17 -161h-733zM324 161h137q75 0 126.5 20.5t81.5 48.5t49.5 91t27.5 112.5t18 147.5l58 547q9 80 9 142q0 35 -3 65q-8 81 -61.5 119
t-170.5 38h-133zM82 0l174 1658h361q136 0 227 -31.5t140 -96.5q50 -64 65 -156q8 -47 8 -105q0 -53 -7 -115l-64 -615q-29 -271 -152 -405t-374 -134h-378z" />
    <glyph glyph-name="uni01C5" unicode="&#x1c5;" horiz-adv-x="1785" 
d="M1426 1323l-140 351h162l93 -239l144 239h162l-214 -351h-207zM1095 0l15 143l460 882h-330l16 159h557l-12 -116l-462 -908h359l-17 -160h-586zM324 161h137q75 0 126.5 20.5t81.5 48.5t49.5 91t27.5 112.5t18 147.5l58 547q9 80 9 142q0 35 -3 65q-8 81 -61.5 119
t-170.5 38h-133zM82 0l174 1658h361q136 0 227 -31.5t140 -96.5q50 -64 65 -156q8 -47 8 -105q0 -53 -7 -115l-64 -615q-29 -271 -152 -405t-374 -134h-378z" />
    <glyph glyph-name="uni01C6" unicode="&#x1c6;" horiz-adv-x="1606" 
d="M1247 1323l-140 351h162l93 -239l144 239h162l-214 -351h-207zM916 0l15 143l460 882h-330l16 159h557l-12 -116l-462 -908h359l-17 -160h-586zM334 -17h-3q-151 0 -209 111q-40 77 -41 223q0 67 9 149l24 229q9 89 23 159t40 137t62 111.5t91 71.5t125 27
q106 -1 189 -93l57 550h212l-174 -1658h-212l8 76q-96 -93 -201 -93zM405 150q65 0 143 48l82 780q-69 56 -136 56q-39 0 -68 -19.5t-47 -56t-28.5 -80t-16.5 -101.5l-35 -329q-7 -78 -7 -139v-15q1 -66 28.5 -105t84.5 -39z" />
    <glyph glyph-name="uni01C7" unicode="&#x1c7;" horiz-adv-x="1423" 
d="M772 -43l16 161q79 0 125 9.5t77 39.5t44.5 77t22.5 130l134 1284h224l-134 -1289q-12 -111 -36 -184.5t-69.5 -126.5t-118 -77t-179.5 -24h-106zM82 0l174 1658h224l-156 -1497h428l-18 -161h-652z" />
    <glyph glyph-name="uni01C8" unicode="&#x1c8;" horiz-adv-x="1278" 
d="M693 -287l17 153q30 -5 56 -5q68 0 100 38t39 107l124 1178h212l-126 -1200q-15 -137 -98 -210.5t-217 -73.5q-73 0 -107 13zM1047 1358l24 227h214l-24 -227h-214zM82 0l174 1658h224l-156 -1497h428l-18 -161h-652z" />
    <glyph glyph-name="uni01C9" unicode="&#x1c9;" horiz-adv-x="932" 
d="M347 -287l17 153q30 -5 56 -5q68 0 100 38t39 107l124 1178h212l-126 -1200q-15 -137 -98 -210.5t-217 -73.5q-73 0 -107 13zM701 1358l24 227h214l-24 -227h-214zM83 0l174 1658h213l-174 -1658h-213z" />
    <glyph glyph-name="uni01CA" unicode="&#x1ca;" horiz-adv-x="1692" 
d="M1041 -43l16 161q79 0 125 9.5t77 39.5t44.5 77t22.5 130l134 1284h224l-134 -1289q-12 -111 -36 -184.5t-69.5 -126.5t-118 -77t-179.5 -24h-106zM82 0l174 1658h154l359 -1119l117 1119h188l-174 -1658h-145l-362 1150l-122 -1150h-189z" />
    <glyph glyph-name="uni01CB" unicode="&#x1cb;" horiz-adv-x="1547" 
d="M962 -287l17 153q30 -5 56 -5q68 0 100 38t39 107l124 1178h212l-126 -1200q-15 -137 -98 -210.5t-217 -73.5q-73 0 -107 13zM1316 1358l24 227h214l-24 -227h-214zM82 0l174 1658h154l359 -1119l117 1119h188l-174 -1658h-145l-362 1150l-122 -1150h-189z" />
    <glyph glyph-name="uni01CC" unicode="&#x1cc;" horiz-adv-x="1361" 
d="M776 -287l17 153q30 -5 56 -5q68 0 100 38t39 107l124 1178h212l-126 -1200q-15 -137 -98 -210.5t-217 -73.5q-73 0 -107 13zM1130 1358l24 227h214l-24 -227h-214zM63 0l124 1184h211l-12 -117q158 134 304 134q50 0 84 -21.5t48 -55.5t20 -78q2 -19 3 -39q0 -25 -4 -50
l-100 -957h-212l94 896q2 21 2 39q1 42 -11 66q-16 33 -72 33q-69 0 -167 -77l-101 -957h-211z" />
    <glyph glyph-name="uni01F1" unicode="&#x1f1;" horiz-adv-x="1929" 
d="M1106 0l18 161l634 1336h-463l17 161h701l-11 -98l-666 -1399h520l-17 -161h-733zM324 161h137q75 0 126.5 20.5t81.5 48.5t49.5 91t27.5 112.5t18 147.5l58 547q9 80 9 142q0 35 -3 65q-8 81 -61.5 119t-170.5 38h-133zM82 0l174 1658h361q136 0 227 -31.5t140 -96.5
q50 -64 65 -156q8 -47 8 -105q0 -53 -7 -115l-64 -615q-29 -271 -152 -405t-374 -134h-378z" />
    <glyph glyph-name="uni01F2" unicode="&#x1f2;" horiz-adv-x="1785" 
d="M1095 0l15 143l460 882h-330l16 159h557l-12 -116l-462 -908h359l-17 -160h-586zM324 161h137q75 0 126.5 20.5t81.5 48.5t49.5 91t27.5 112.5t18 147.5l58 547q9 80 9 142q0 35 -3 65q-8 81 -61.5 119t-170.5 38h-133zM82 0l174 1658h361q136 0 227 -31.5t140 -96.5
q50 -64 65 -156q8 -47 8 -105q0 -53 -7 -115l-64 -615q-29 -271 -152 -405t-374 -134h-378z" />
    <glyph glyph-name="uni01F3" unicode="&#x1f3;" horiz-adv-x="1606" 
d="M916 0l15 143l460 882h-330l16 159h557l-12 -116l-462 -908h359l-17 -160h-586zM334 -17h-3q-151 0 -209 111q-40 77 -41 223q0 67 9 149l24 229q9 89 23 159t40 137t62 111.5t91 71.5t125 27q106 -1 189 -93l57 550h212l-174 -1658h-212l8 76q-96 -93 -201 -93zM405 150
q65 0 143 48l82 780q-69 56 -136 56q-39 0 -68 -19.5t-47 -56t-28.5 -80t-16.5 -101.5l-35 -329q-7 -78 -7 -139v-15q1 -66 28.5 -105t84.5 -39z" />
    <glyph glyph-name="uni01F4" unicode="&#x1f4;" horiz-adv-x="1093" 
d="M627 1797l164 404h212l-268 -404h-108zM474 -21q-226 0 -310 142q-63 106 -63 286q0 62 7 133l60 564q15 142 46 242.5t87.5 177t148 114t219.5 37.5q229 1 317 -117q67 -91 67 -260q0 -50 -6 -108l-7 -61h-209l5 53q8 68 8 121q0 31 -3 57q-7 71 -51 105.5t-136 34.5
q-43 0 -78 -9.5t-59.5 -25.5t-44 -43t-31.5 -54t-21 -68.5t-14.5 -76.5t-10.5 -86l-66 -620q-7 -65 -7 -118q0 -102 26 -157q38 -84 170 -84t190 90t79 289l13 124h-214l18 159h416l-86 -820h-142l-2 191q-96 -212 -316 -212z" />
    <glyph glyph-name="uni01F5" unicode="&#x1f5;" horiz-adv-x="890" 
d="M514 1328l164 404h212l-268 -404h-108zM387 -369q-64 0 -112 2.5t-100.5 9t-88 19.5t-65 33t-41.5 51q-9 23 -10 52q0 9 1 19q10 91 66.5 159t135.5 107q-54 17 -81 51q-23 28 -23 62q0 6 1 13q6 60 43 107t112 109q-65 55 -90 137q-16 52 -16 124q0 43 6 94
q21 205 116.5 313t258.5 108q182 0 232 -132q16 21 66.5 59.5t105.5 62.5l36 15l38 -138q-43 -9 -117 -36.5t-92 -41.5q11 -36 15 -102q2 -29 2 -55q0 -33 -3 -60q-20 -194 -107.5 -302t-262.5 -108q-19 0 -63 6.5t-49 8.5q0 -1 -14 -20.5t-19 -27t-12.5 -23t-8.5 -26.5
q-1 -22 21.5 -34t73.5 -17q6 -2 92.5 -10t89.5 -9q249 -26 249 -243q0 -21 -2 -43q-17 -157 -110.5 -225.5t-273.5 -68.5zM403 -201q97 0 147 28.5t57 91.5q1 9 1 17q0 44 -28 68q-32 28 -127 40l-182 15q-35 -24 -70 -67t-40 -92q-1 -7 -1 -14q0 -28 13 -44
q16 -20 70.5 -31.5t159.5 -11.5zM428 514q38 0 66.5 12.5t46.5 33.5t31 56.5t19.5 72.5t12.5 91q6 66 6 118v26q-2 60 -31.5 94.5t-90.5 34.5q-89 0 -126.5 -66.5t-52.5 -206.5q-5 -56 -5 -104q0 -16 1 -30q2 -59 32.5 -95.5t90.5 -36.5z" />
    <glyph glyph-name="uni0200" unicode="&#x200;" horiz-adv-x="1004" 
d="M459 1797l-190 345h215l81 -345h-106zM717 1797l-115 345h175l47 -345h-107zM-9 0l528 1658h217l180 -1658h-214l-32 421h-343l-123 -421h-213zM373 581h285l-63 763z" />
    <glyph glyph-name="uni0201" unicode="&#x201;" horiz-adv-x="866" 
d="M342 1323l-190 345h215l81 -345h-106zM600 1323l-115 345h175l47 -345h-107zM272 -17q-101 1 -161 83q-51 70 -51 158q0 16 2 33q6 60 26 111.5t39.5 88t66.5 75t73 58.5t95.5 53t98 45t114.5 46q5 2 7 3l9 85q5 49 5 86q0 54 -11 84q-19 50 -92 49q-129 0 -146 -171
l-7 -58l-209 8q1 5 3 20.5t3 22.5q28 177 125 257.5t261 80.5q170 1 235 -93q50 -72 50 -200q0 -39 -5 -84l-57 -545q-11 -103 -11 -215q0 -32 1 -64h-193q-10 101 -10 174q-34 -81 -101 -136t-160 -55zM375 167q44 0 89 33.5t69 68.5l36 338q-7 -3 -19 -10
q-53 -28 -79 -42.5t-66.5 -43t-61 -52.5t-38.5 -60.5t-22 -77.5q-2 -17 -2 -32q0 -51 19 -82q24 -40 75 -40z" />
    <glyph glyph-name="uni0202" unicode="&#x202;" horiz-adv-x="1004" 
d="M374 1797q8 68 25.5 119t51 93.5t89.5 64.5t134 22q77 0 128.5 -23t74.5 -63t32 -95q4 -28 4.5 -57.5t-4.5 -60.5h-125q3 25 3 47q1 61 -21 91q-28 41 -104.5 41t-113.5 -41.5t-48 -137.5h-126zM-9 0l528 1658h217l180 -1658h-214l-32 421h-343l-123 -421h-213zM373 581
h285l-63 763z" />
    <glyph glyph-name="uni0203" unicode="&#x203;" horiz-adv-x="866" 
d="M257 1323q8 68 25.5 119t51 93.5t89.5 64.5t134 22q77 0 128.5 -23t74.5 -63t32 -95q4 -28 4.5 -57.5t-4.5 -60.5h-125q3 25 3 47q1 61 -21 91q-28 41 -104.5 41t-113.5 -41.5t-48 -137.5h-126zM272 -17q-101 1 -161 83q-51 70 -51 158q0 16 2 33q6 60 26 111.5t39.5 88
t66.5 75t73 58.5t95.5 53t98 45t114.5 46q5 2 7 3l9 85q5 49 5 86q0 54 -11 84q-19 50 -92 49q-129 0 -146 -171l-7 -58l-209 8q1 5 3 20.5t3 22.5q28 177 125 257.5t261 80.5q170 1 235 -93q50 -72 50 -200q0 -39 -5 -84l-57 -545q-11 -103 -11 -215q0 -32 1 -64h-193
q-10 101 -10 174q-34 -81 -101 -136t-160 -55zM375 167q44 0 89 33.5t69 68.5l36 338q-7 -3 -19 -10q-53 -28 -79 -42.5t-66.5 -43t-61 -52.5t-38.5 -60.5t-22 -77.5q-2 -17 -2 -32q0 -51 19 -82q24 -40 75 -40z" />
    <glyph glyph-name="uni0204" unicode="&#x204;" 
d="M409 1797l-190 345h215l81 -345h-106zM667 1797l-115 345h175l47 -345h-107zM82 0l174 1658h638l-17 -166h-414l-59 -555h337l-16 -161h-337l-65 -615h420l-18 -161h-643z" />
    <glyph glyph-name="uni0205" unicode="&#x205;" horiz-adv-x="856" 
d="M337 1323l-190 345h215l81 -345h-106zM595 1323l-115 345h175l47 -345h-107zM386 -17q-102 0 -167 30t-97 89q-32 60 -40 148q-3 32 -2 68q0 63 8 137l29 274q13 123 38.5 208t71.5 146t116.5 89.5t169.5 28.5q107 0 171.5 -34.5t90.5 -100.5q25 -66 29 -162q1 -18 1 -37
q0 -81 -12 -180l-11 -97h-468l-17 -160q-3 -34 -4.5 -49t-3.5 -44t-1.5 -42.5t1 -37t4.5 -34.5t9.5 -27.5t14.5 -24.5t20.5 -16.5t27.5 -11.5t36 -3q71 0 104 49t43 149l8 73h207l-6 -48q-39 -380 -371 -380zM327 705h260l10 107q6 56 6 100q-1 14 -1 26q-2 52 -27.5 79
t-79.5 27q-80 0 -112.5 -57t-49.5 -216z" />
    <glyph glyph-name="uni0206" unicode="&#x206;" 
d="M324 1797q8 68 25.5 119t51 93.5t89.5 64.5t134 22q77 0 128.5 -23t74.5 -63t32 -95q4 -28 4.5 -57.5t-4.5 -60.5h-125q3 25 3 47q1 61 -21 91q-28 41 -104.5 41t-113.5 -41.5t-48 -137.5h-126zM82 0l174 1658h638l-17 -166h-414l-59 -555h337l-16 -161h-337l-65 -615
h420l-18 -161h-643z" />
    <glyph glyph-name="uni0207" unicode="&#x207;" horiz-adv-x="856" 
d="M252 1323q8 68 25.5 119t51 93.5t89.5 64.5t134 22q77 0 128.5 -23t74.5 -63t32 -95q4 -28 4.5 -57.5t-4.5 -60.5h-125q3 25 3 47q1 61 -21 91q-28 41 -104.5 41t-113.5 -41.5t-48 -137.5h-126zM386 -17q-102 0 -167 30t-97 89q-32 60 -40 148q-3 32 -2 68q0 63 8 137
l29 274q13 123 38.5 208t71.5 146t116.5 89.5t169.5 28.5q107 0 171.5 -34.5t90.5 -100.5q25 -66 29 -162q1 -18 1 -37q0 -81 -12 -180l-11 -97h-468l-17 -160q-3 -34 -4.5 -49t-3.5 -44t-1.5 -42.5t1 -37t4.5 -34.5t9.5 -27.5t14.5 -24.5t20.5 -16.5t27.5 -11.5t36 -3
q71 0 104 49t43 149l8 73h207l-6 -48q-39 -380 -371 -380zM327 705h260l10 107q6 56 6 100q-1 14 -1 26q-2 52 -27.5 79t-79.5 27q-80 0 -112.5 -57t-49.5 -216z" />
    <glyph glyph-name="uni0208" unicode="&#x208;" horiz-adv-x="502" 
d="M209 1797l-190 345h215l81 -345h-106zM467 1797l-115 345h175l47 -345h-107zM94 0l174 1658h219l-174 -1658h-219z" />
    <glyph glyph-name="uni0209" unicode="&#x209;" horiz-adv-x="454" 
d="M138 1323l-190 345h215l81 -345h-106zM396 1323l-115 345h175l47 -345h-107zM77 0l124 1184h212l-124 -1184h-212z" />
    <glyph glyph-name="uni020A" unicode="&#x20a;" horiz-adv-x="502" 
d="M124 1797q8 68 25.5 119t51 93.5t89.5 64.5t134 22q77 0 128.5 -23t74.5 -63t32 -95q4 -28 4.5 -57.5t-4.5 -60.5h-125q3 25 3 47q1 61 -21 91q-28 41 -104.5 41t-113.5 -41.5t-48 -137.5h-126zM94 0l174 1658h219l-174 -1658h-219z" />
    <glyph glyph-name="uni020B" unicode="&#x20b;" horiz-adv-x="454" 
d="M53 1323q8 68 25.5 119t51 93.5t89.5 64.5t134 22q77 0 128.5 -23t74.5 -63t32 -95q4 -28 4.5 -57.5t-4.5 -60.5h-125q3 25 3 47q1 61 -21 91q-28 41 -104.5 41t-113.5 -41.5t-48 -137.5h-126zM77 0l124 1184h212l-124 -1184h-212z" />
    <glyph glyph-name="uni020C" unicode="&#x20c;" horiz-adv-x="1101" 
d="M509 1797l-190 345h215l81 -345h-106zM767 1797l-115 345h175l47 -345h-107zM519 158q69 0 116.5 21t75.5 65t42.5 96t22.5 128l76 729q6 48 6 90q0 19 -1 36q-4 56 -22.5 95.5t-62 60.5t-112.5 21t-116.5 -20t-75.5 -62.5t-42.5 -93.5t-22.5 -127l-76 -729
q-5 -52 -5 -96q0 -38 4 -68q8 -68 55 -107t138 -39zM500 -18q-124 0 -208.5 37.5t-127.5 107.5q-43 71 -58 169q-8 49 -8 104.5t8 116.5l67 634q27 257 145.5 390.5t359.5 133.5q123 0 207 -36t129 -105.5t59 -163.5q7 -49 7 -106q0 -53 -6 -113l-68 -635
q-13 -125 -47 -220.5t-93 -167.5t-151 -109t-215 -37z" />
    <glyph glyph-name="uni020D" unicode="&#x20d;" horiz-adv-x="863" 
d="M339 1323l-190 345h215l81 -345h-106zM597 1323l-115 345h175l47 -345h-107zM397 140q27 0 48.5 8.5t36.5 19.5t26.5 34t18.5 40.5t13 51.5t8.5 54t6.5 59l39 368q4 38 5.5 59t2.5 54.5t-2 51.5t-10 41t-19.5 34.5t-32 20t-46.5 8.5q-31 0 -55 -9.5t-40 -30.5
t-26.5 -41.5t-18 -56.5t-11 -61.5t-7.5 -69.5l-39 -368q-4 -39 -5.5 -59.5t-2.5 -53.5t2 -51t10 -41t19.5 -34.5t32 -19.5t46.5 -8zM380 -17q-96 0 -160.5 30.5t-96 87.5t-41.5 138q-4 35 -4 74q0 51 7 108l35 341q23 215 112.5 327t275.5 112q96 0 161 -31t97 -88t42 -138
q5 -36 4 -76q0 -50 -7 -106l-36 -341q-11 -105 -36.5 -182.5t-70.5 -136.5t-115.5 -89t-166.5 -30z" />
    <glyph glyph-name="uni020E" unicode="&#x20e;" horiz-adv-x="1101" 
d="M424 1797q8 68 25.5 119t51 93.5t89.5 64.5t134 22q77 0 128.5 -23t74.5 -63t32 -95q4 -28 4.5 -57.5t-4.5 -60.5h-125q3 25 3 47q1 61 -21 91q-28 41 -104.5 41t-113.5 -41.5t-48 -137.5h-126zM519 158q69 0 116.5 21t75.5 65t42.5 96t22.5 128l76 729q6 48 6 90
q0 19 -1 36q-4 56 -22.5 95.5t-62 60.5t-112.5 21t-116.5 -20t-75.5 -62.5t-42.5 -93.5t-22.5 -127l-76 -729q-5 -52 -5 -96q0 -38 4 -68q8 -68 55 -107t138 -39zM500 -18q-124 0 -208.5 37.5t-127.5 107.5q-43 71 -58 169q-8 49 -8 104.5t8 116.5l67 634
q27 257 145.5 390.5t359.5 133.5q123 0 207 -36t129 -105.5t59 -163.5q7 -49 7 -106q0 -53 -6 -113l-68 -635q-13 -125 -47 -220.5t-93 -167.5t-151 -109t-215 -37z" />
    <glyph glyph-name="uni020F" unicode="&#x20f;" horiz-adv-x="863" 
d="M254 1323q8 68 25.5 119t51 93.5t89.5 64.5t134 22q77 0 128.5 -23t74.5 -63t32 -95q4 -28 4.5 -57.5t-4.5 -60.5h-125q3 25 3 47q1 61 -21 91q-28 41 -104.5 41t-113.5 -41.5t-48 -137.5h-126zM397 140q27 0 48.5 8.5t36.5 19.5t26.5 34t18.5 40.5t13 51.5t8.5 54
t6.5 59l39 368q4 38 5.5 59t2.5 54.5t-2 51.5t-10 41t-19.5 34.5t-32 20t-46.5 8.5q-31 0 -55 -9.5t-40 -30.5t-26.5 -41.5t-18 -56.5t-11 -61.5t-7.5 -69.5l-39 -368q-4 -39 -5.5 -59.5t-2.5 -53.5t2 -51t10 -41t19.5 -34.5t32 -19.5t46.5 -8zM380 -17q-96 0 -160.5 30.5
t-96 87.5t-41.5 138q-4 35 -4 74q0 51 7 108l35 341q23 215 112.5 327t275.5 112q96 0 161 -31t97 -88t42 -138q5 -36 4 -76q0 -50 -7 -106l-36 -341q-11 -105 -36.5 -182.5t-70.5 -136.5t-115.5 -89t-166.5 -30z" />
    <glyph glyph-name="uni0210" unicode="&#x210;" horiz-adv-x="1061" 
d="M512 1797l-190 345h215l81 -345h-106zM770 1797l-115 345h175l47 -345h-107zM82 0l174 1658h339q248 0 353 -104q85 -84 85 -252q0 -38 -4 -81q-35 -323 -249 -388l151 -833h-217l-138 782h-187l-83 -782h-224zM406 942h99q152 0 221.5 60.5t86.5 218.5q4 37 4 69
q0 98 -37 145q-49 62 -203 62h-113z" />
    <glyph glyph-name="uni0211" unicode="&#x211;" horiz-adv-x="653" 
d="M280 1323l-190 345h215l81 -345h-106zM538 1323l-115 345h175l47 -345h-107zM69 0l124 1184h212l-17 -168q128 183 281 183q5 0 35 -2l-25 -234q-51 22 -112 22q-56 0 -102 -25t-93 -90l-91 -870h-212z" />
    <glyph glyph-name="uni0212" unicode="&#x212;" horiz-adv-x="1061" 
d="M427 1797q8 68 25.5 119t51 93.5t89.5 64.5t134 22q77 0 128.5 -23t74.5 -63t32 -95q4 -28 4.5 -57.5t-4.5 -60.5h-125q3 25 3 47q1 61 -21 91q-28 41 -104.5 41t-113.5 -41.5t-48 -137.5h-126zM82 0l174 1658h339q248 0 353 -104q85 -84 85 -252q0 -38 -4 -81
q-35 -323 -249 -388l151 -833h-217l-138 782h-187l-83 -782h-224zM406 942h99q152 0 221.5 60.5t86.5 218.5q4 37 4 69q0 98 -37 145q-49 62 -203 62h-113z" />
    <glyph glyph-name="uni0213" unicode="&#x213;" horiz-adv-x="653" 
d="M195 1323q8 68 25.5 119t51 93.5t89.5 64.5t134 22q77 0 128.5 -23t74.5 -63t32 -95q4 -28 4.5 -57.5t-4.5 -60.5h-125q3 25 3 47q1 61 -21 91q-28 41 -104.5 41t-113.5 -41.5t-48 -137.5h-126zM69 0l124 1184h212l-17 -168q128 183 281 183q5 0 35 -2l-25 -234
q-51 22 -112 22q-56 0 -102 -25t-93 -90l-91 -870h-212z" />
    <glyph glyph-name="uni0214" unicode="&#x214;" horiz-adv-x="1112" 
d="M513 1797l-190 345h215l81 -345h-106zM771 1797l-115 345h175l47 -345h-107zM506 -18q-132 0 -216.5 40.5t-122.5 115.5q-39 74 -49 178q-4 40 -4 83q0 70 11 149l117 1110h212l-117 -1120q-9 -63 -9 -119q0 -15 1 -30q3 -69 19 -120.5t60.5 -81t116.5 -29.5
q57 0 100.5 20t71 52t47 83.5t29.5 103t17 121.5l118 1120h213l-117 -1110q-11 -108 -31 -190t-57 -155.5t-90.5 -120t-134 -73.5t-185.5 -27z" />
    <glyph glyph-name="uni0215" unicode="&#x215;" horiz-adv-x="895" 
d="M349 1323l-190 345h215l81 -345h-106zM607 1323l-115 345h175l47 -345h-107zM230 -17q-50 0 -83.5 21.5t-48 55.5t-20.5 78q-3 20 -3 41q0 24 4 48l100 957h212l-94 -896q-2 -21 -2 -38q0 -42 12 -66q17 -34 72 -34q69 0 166 78l100 956h212l-124 -1184h-212l13 118
q-155 -135 -304 -135z" />
    <glyph glyph-name="uni0216" unicode="&#x216;" horiz-adv-x="1112" 
d="M428 1797q8 68 25.5 119t51 93.5t89.5 64.5t134 22q77 0 128.5 -23t74.5 -63t32 -95q4 -28 4.5 -57.5t-4.5 -60.5h-125q3 25 3 47q1 61 -21 91q-28 41 -104.5 41t-113.5 -41.5t-48 -137.5h-126zM506 -18q-132 0 -216.5 40.5t-122.5 115.5q-39 74 -49 178q-4 40 -4 83
q0 70 11 149l117 1110h212l-117 -1120q-9 -63 -9 -119q0 -15 1 -30q3 -69 19 -120.5t60.5 -81t116.5 -29.5q57 0 100.5 20t71 52t47 83.5t29.5 103t17 121.5l118 1120h213l-117 -1110q-11 -108 -31 -190t-57 -155.5t-90.5 -120t-134 -73.5t-185.5 -27z" />
    <glyph glyph-name="uni0217" unicode="&#x217;" horiz-adv-x="895" 
d="M264 1323q8 68 25.5 119t51 93.5t89.5 64.5t134 22q77 0 128.5 -23t74.5 -63t32 -95q4 -28 4.5 -57.5t-4.5 -60.5h-125q3 25 3 47q1 61 -21 91q-28 41 -104.5 41t-113.5 -41.5t-48 -137.5h-126zM230 -17q-50 0 -83.5 21.5t-48 55.5t-20.5 78q-3 20 -3 41q0 24 4 48
l100 957h212l-94 -896q-2 -21 -2 -38q0 -42 12 -66q17 -34 72 -34q69 0 166 78l100 956h212l-124 -1184h-212l13 118q-155 -135 -304 -135z" />
    <glyph glyph-name="Scommaaccent" unicode="&#x218;" horiz-adv-x="966" 
d="M330 -595l-43 105q61 7 90 38t35 90h-110l24 222h217l-23 -206q-13 -121 -53 -182t-137 -67zM467 -18q-208 0 -303 128q-86 116 -86 309q0 20 1 42l205 54q-1 -24 -1 -46q1 -48 5 -87q6 -58 26.5 -111.5t63.5 -83t108 -29.5q92 0 145 50.5t63 148.5q2 20 2 38q0 22 -3 44
q-6 39 -16.5 67.5t-34 61.5t-42.5 54.5t-54 57.5l-253 250q-75 76 -105 160q-21 59 -21 135q0 33 4 69q19 179 133.5 279t294.5 102h7q192 -1 279 -103q84 -100 84 -307v-19l-195 -52q1 23 1 45q0 43 -4 77q-6 52 -25 98t-60 68q-35 19 -85 19q-9 0 -19 -1
q-191 -11 -209 -185q-2 -19 -2 -36q0 -49 15 -86q20 -50 73 -105l255 -249q100 -99 152 -211q41 -88 41 -195q0 -28 -3 -58q-19 -182 -139.5 -287.5t-297.5 -105.5z" />
    <glyph glyph-name="scommaaccent" unicode="&#x219;" horiz-adv-x="762" 
d="M215 -594l-43 105q61 7 90 38t35 90h-110l24 222h217l-23 -206q-13 -121 -53 -182t-137 -67zM334 -17q-144 0 -222 91q-75 87 -75 228v15l182 53q1 -118 34.5 -174t106.5 -56q61 0 102.5 39.5t44.5 99.5q1 7 1 13q0 84 -82 160l-180 169q-67 63 -98 129q-22 48 -22 111
q0 24 3 50q18 138 106.5 214t226.5 76q134 1 202 -87q65 -84 64 -213v-12l-149 -53q-2 102 -30.5 155t-94.5 53q-56 0 -93 -35.5t-42 -87.5q-1 -7 -1 -14q0 -64 51 -113l186 -188q71 -70 109 -144q30 -58 30 -136q0 -21 -2 -42q-15 -147 -111.5 -224t-246.5 -77z" />
    <glyph glyph-name="uni021A" unicode="&#x21a;" horiz-adv-x="817" 
d="M244 -577l-43 105q61 7 90 38t35 90h-110l24 222h217l-23 -206q-13 -121 -53 -182t-137 -67zM254 0l156 1492h-305l17 166h825l-17 -166h-296l-157 -1492h-223z" />
    <glyph glyph-name="uni021B" unicode="&#x21b;" horiz-adv-x="625" 
d="M143 -593l-43 105q61 7 90 38t35 90h-110l24 222h217l-23 -206q-13 -121 -53 -182t-137 -67zM372 -16q-134 0 -184 70q-40 56 -41 156q0 26 3 54l82 778h-126l15 142h125l37 347h212l-37 -347h191l-14 -142h-191l-81 -763q-2 -20 -2 -37q0 -45 14 -66q19 -29 82 -29
q49 0 83 6l-17 -158q-86 -11 -151 -11z" />
    <glyph glyph-name="uni0237" unicode="&#x237;" horiz-adv-x="468" 
d="M-119 -313l16 154q24 -6 56 -6q68 0 100.5 38t39.5 107l126 1204h212l-129 -1226q-14 -137 -97 -210.5t-217 -73.5q-74 0 -107 13z" />
    <glyph glyph-name="uni02BC" unicode="&#x2bc;" horiz-adv-x="733" 
d="M247 1152l53 506h191l-130 -506h-114z" />
    <glyph glyph-name="circumflex" unicode="&#x2c6;" horiz-adv-x="699" 
d="M150 1274l216 384h217l138 -384h-159l-98 278l-156 -278h-158z" />
    <glyph glyph-name="caron" unicode="&#x2c7;" horiz-adv-x="682" 
d="M327 1307l-139 351h161l93 -239l144 239h162l-214 -351h-207z" />
    <glyph glyph-name="breve" unicode="&#x2d8;" horiz-adv-x="714" 
d="M452 1359q-77 0 -128 22t-75.5 64.5t-31.5 93.5q-4 27 -4 60q0 28 3 59h126q-3 -26 -3 -47q0 -61 21 -91q28 -41 104 -41t113 41.5t48 137.5h126q-7 -68 -24.5 -119t-51 -93.5t-89.5 -64.5t-134 -22z" />
    <glyph glyph-name="dotaccent" unicode="&#x2d9;" horiz-adv-x="463" 
d="M-94 122l25 241h215l-26 -241h-214z" />
    <glyph glyph-name="ring" unicode="&#x2da;" horiz-adv-x="591" 
d="M388 1336q53 0 88 31t41 87q1 8 1 16q0 44 -24 70q-28 31 -82 31t-88.5 -31t-39.5 -86q-1 -10 -1 -19q0 -42 23 -68q28 -31 82 -31zM377 1228q-101 0 -157 62q-46 51 -46 131q0 16 2 33q10 102 78 163t169 61t157 -60q48 -51 48 -134q0 -15 -2 -30q-11 -103 -80 -164.5
t-169 -61.5z" />
    <glyph glyph-name="ogonek" unicode="&#x2db;" horiz-adv-x="487" 
d="M233 -462q-71 0 -117 3t-93 13t-73 28q-25 20 -39 52q-10 24 -10 55q0 11 1 24q9 94 88 180.5t165 113.5h108q-4 -5 -37 -39t-45 -48t-39 -47t-40 -54t-25.5 -49t-14.5 -52q-2 -19 4 -33t21 -21.5t30.5 -12.5t40 -6t42 -1t44 1t38.5 1z" />
    <glyph glyph-name="tilde" unicode="&#x2dc;" horiz-adv-x="860" 
d="M664 1436q-40 0 -89 25t-92 50t-68 26q-27 2 -42.5 -18t-19.5 -65h-122q9 98 57 159q45 58 133 58h9q52 -1 140 -49.5t109 -48.5q26 -2 39.5 17.5t18.5 67.5h120q-5 -48 -16.5 -85.5t-33 -70t-57.5 -50.5q-35 -17 -81 -16h-5z" />
    <glyph glyph-name="hungarumlaut" unicode="&#x2dd;" horiz-adv-x="581" 
d="M281 1314l116 348h175l-184 -348h-107zM535 1314l154 348h216l-262 -348h-108z" />
    <glyph glyph-name="gravecomb" unicode="&#x300;" horiz-adv-x="0" 
d="M208 1254l-181 404h213l75 -404h-107z" />
    <glyph glyph-name="acutecomb" unicode="&#x301;" horiz-adv-x="51" 
d="M43 1254l164 404h212l-268 -404h-108z" />
    <glyph glyph-name="uni0302" unicode="&#x302;" horiz-adv-x="699" 
d="M152 1300l214 358h217l140 -358h-159l-100 252l-153 -252h-159z" />
    <glyph glyph-name="tildecomb" unicode="&#x303;" horiz-adv-x="860" 
d="M664 1436q-40 0 -89 25t-92 50t-68 26q-27 2 -42.5 -18t-19.5 -65h-122q9 98 57 159q45 58 133 58h9q52 -1 140 -49.5t109 -48.5q26 -2 39.5 17.5t18.5 67.5h120q-5 -48 -16.5 -85.5t-33 -70t-57.5 -50.5q-35 -17 -81 -16h-5z" />
    <glyph glyph-name="uni0304" unicode="&#x304;" horiz-adv-x="623" 
d="M244 1529l13 129h392l-14 -129h-391z" />
    <glyph glyph-name="uni0306" unicode="&#x306;" horiz-adv-x="714" 
d="M452 1359q-256 0 -256 247q0 25 3 52h125q-2 -19 -2 -36q0 -66 28 -100q36 -42 114 -43q79 0 123 42.5t55 136.5h127q-33 -299 -317 -299z" />
    <glyph glyph-name="uni0307" unicode="&#x307;" horiz-adv-x="0" 
d="M23 1417l25 241h215l-26 -241h-214z" />
    <glyph glyph-name="uni0308" unicode="&#x308;" horiz-adv-x="712" 
d="M177 1437l23 221h213l-23 -221h-213zM526 1437l24 221h214l-23 -221h-215z" />
    <glyph glyph-name="uni030A" unicode="&#x30a;" horiz-adv-x="591" 
d="M388 1336q53 0 88 31t41 87q1 8 1 16q0 44 -24 70q-28 31 -82 31t-88.5 -31t-39.5 -86q-1 -10 -1 -19q0 -42 23 -68q28 -31 82 -31zM377 1228q-101 0 -157 62q-46 51 -46 131q0 16 2 33q10 102 78 163t169 61t157 -60q48 -51 48 -134q0 -15 -2 -30q-11 -103 -80 -164.5
t-169 -61.5z" />
    <glyph glyph-name="uni030C" unicode="&#x30c;" horiz-adv-x="0" 
d="M64 1307l-140 351h162l93 -239l144 239h162l-214 -351h-207z" />
    <glyph glyph-name="uni030F" unicode="&#x30f;" horiz-adv-x="583" 
d="M331 1313l-190 345h215l81 -345h-106zM589 1313l-115 345h175l47 -345h-107z" />
    <glyph glyph-name="uni0311" unicode="&#x311;" horiz-adv-x="714" 
d="M184 1359q8 68 25.5 119t51 93.5t89.5 64.5t134 22q77 0 128.5 -23t74.5 -63t32 -95q4 -28 4.5 -57.5t-4.5 -60.5h-125q3 25 3 47q1 61 -21 91q-28 41 -104.5 41t-113.5 -41.5t-48 -137.5h-126z" />
    <glyph glyph-name="uni0326" unicode="&#x326;" horiz-adv-x="331" 
d="M5 -530l-43 105q61 7 90 38t35 90h-110l24 222h217l-23 -206q-13 -121 -53 -182t-137 -67z" />
    <glyph glyph-name="Pi" unicode="&#x3a0;" horiz-adv-x="1142" 
d="M82 0l174 1658h881l-174 -1658h-214l158 1498h-454l-158 -1498h-213z" />
    <glyph glyph-name="pi" unicode="&#x3c0;" horiz-adv-x="1067" 
d="M120 0l107 1024h-133l16 160h955l-17 -160h-161l-70 -667q-5 -47 -5 -82q0 -63 16 -88q25 -40 117 -40l-31 -164q-101 0 -166.5 18t-101.5 57q-36 40 -46 94q-6 31 -5 71q0 30 3 65l77 736h-236l-107 -1024h-212z" />
    <glyph glyph-name="uni0400" unicode="&#x400;" 
d="M538 1797l-181 404h213l75 -404h-107zM82 0l174 1658h638l-17 -166h-414l-59 -555h337l-16 -161h-337l-65 -615h420l-18 -161h-643z" />
    <glyph glyph-name="afii10023" unicode="&#x401;" 
d="M310 1797l23 221h213l-23 -221h-213zM659 1797l24 221h214l-23 -221h-215zM82 0l174 1658h638l-17 -166h-414l-59 -555h337l-16 -161h-337l-65 -615h420l-18 -161h-643z" />
    <glyph glyph-name="afii10051" unicode="&#x402;" horiz-adv-x="1112" 
d="M209 0l157 1492h-241l17 166h729l-17 -166h-269l-62 -593q84 70 217 70q62 0 118 -19.5t102 -57.5q46 -40 68 -106q16 -48 16 -103q0 -23 -3 -47l-21 -203q-23 -224 -130.5 -328.5t-295.5 -104.5h-37l17 161q63 0 107.5 21t69.5 61t38 85t19 105l20 197q1 14 1 27
q1 63 -31 107q-38 54 -122 54q-76 0 -167 -45l-81 -773h-219z" />
    <glyph glyph-name="afii10052" unicode="&#x403;" horiz-adv-x="788" 
d="M529 1797l164 404h212l-268 -404h-108zM82 0l174 1658h626l-17 -166h-402l-157 -1492h-224z" />
    <glyph glyph-name="afii10053" unicode="&#x404;" horiz-adv-x="1029" 
d="M492 -18q-103 0 -178 27.5t-118.5 76.5t-68 117.5t-26.5 150.5v33q0 67 6 142l63 594q14 132 44.5 228t87 171.5t148.5 114t220 38.5q114 0 192 -32t119 -95.5t54 -149.5q7 -44 7 -96q0 -48 -6 -104l-7 -61h-212l5 46q4 37 6 60.5t3.5 54.5t-0.5 50.5t-6.5 43.5t-13 38
t-22 29t-32.5 23t-45 13t-58 5q-58 0 -100.5 -17t-68.5 -44t-44 -74.5t-26.5 -93.5t-16.5 -117l-22 -214h411l-17 -157h-410l-31 -290q-7 -62 -7 -111q0 -100 28 -150q40 -74 162 -74q47 0 82 10t59.5 33t40.5 48t27 68t17 79.5t12 94.5l6 68h212l-7 -68q-12 -119 -41 -208
t-82.5 -159t-140 -106t-205.5 -36z" />
    <glyph glyph-name="afii10054" unicode="&#x405;" horiz-adv-x="966" 
d="M467 -18q-208 0 -303 128q-86 116 -86 309q0 20 1 42l205 54q-1 -24 -1 -46q1 -48 5 -87q6 -58 26.5 -111.5t63.5 -83t108 -29.5q92 0 145 50.5t63 148.5q2 20 2 38q0 22 -3 44q-6 39 -16.5 67.5t-34 61.5t-42.5 54.5t-54 57.5l-253 250q-75 76 -105 160q-21 59 -21 135
q0 33 4 69q19 179 133.5 279t294.5 102h7q192 -1 279 -103q84 -100 84 -307v-19l-195 -52q1 23 1 45q0 43 -4 77q-6 52 -25 98t-60 68q-35 19 -85 19q-9 0 -19 -1q-191 -11 -209 -185q-2 -19 -2 -36q0 -49 15 -86q20 -50 73 -105l255 -249q100 -99 152 -211q41 -88 41 -195
q0 -28 -3 -58q-19 -182 -139.5 -287.5t-297.5 -105.5z" />
    <glyph glyph-name="afii10055" unicode="&#x406;" horiz-adv-x="502" 
d="M94 0l174 1658h219l-174 -1658h-219z" />
    <glyph glyph-name="afii10056" unicode="&#x407;" horiz-adv-x="502" 
d="M109 1797l23 221h213l-23 -221h-213zM458 1797l24 221h214l-23 -221h-215zM94 0l174 1658h219l-174 -1658h-219z" />
    <glyph glyph-name="afii10057" unicode="&#x408;" horiz-adv-x="613" 
d="M-38 -43l16 161q79 0 125 9.5t77 39.5t44.5 77t22.5 130l134 1284h224l-134 -1289q-12 -111 -36 -184.5t-69.5 -126.5t-118 -77t-179.5 -24h-106z" />
    <glyph glyph-name="afii10058" unicode="&#x409;" horiz-adv-x="1709" 
d="M-20 -1l18 168q12 -1 23 -1q73 0 122 40q56 46 99 168t83 356l152 928h724l-73 -691h41q138 0 230.5 -22.5t154.5 -77t84 -148.5q13 -56 13 -128q0 -49 -6 -106q-27 -253 -163 -369t-403 -116h-276l157 1492h-304l-126 -762q-32 -199 -71.5 -332t-98.5 -228
q-58 -94 -140 -136q-74 -38 -175 -37h-20zM1044 162h52q83 0 137.5 13t98 48t67.5 99.5t35 164.5q4 40 4 74q0 116 -46 172q-60 73 -233 73h-48z" />
    <glyph glyph-name="afii10059" unicode="&#x40a;" horiz-adv-x="1597" 
d="M977 0h-277l85 804h-394l-85 -804h-224l174 1660h224l-72 -694h394l72 694h224l-72 -693h42q138 0 230.5 -22.5t154.5 -76.5q61 -55 83 -149q13 -55 13 -127q0 -50 -6 -107q-26 -253 -162.5 -369t-403.5 -116zM941 162h54q83 0 137.5 13t98 48t67.5 99.5t34 164.5
q4 40 4 75q0 115 -46 171q-60 73 -232 73h-50z" />
    <glyph glyph-name="afii10060" unicode="&#x40b;" horiz-adv-x="1016" 
d="M181 0l157 1492h-247l17 166h738l-17 -166h-272l-62 -593q11 8 34 20.5t79.5 29t115.5 16.5q106 1 168 -53q54 -46 54 -119q0 -12 -1 -24l-81 -769h-212l76 720q1 13 1 25q-1 39 -15 59q-20 28 -74 27q-34 0 -72.5 -13.5t-56.5 -24.5t-30 -20l-81 -773h-219z" />
    <glyph glyph-name="afii10061" unicode="&#x40c;" horiz-adv-x="1035" 
d="M656 1797l164 404h212l-268 -404h-108zM82 0l174 1658h224l-77 -739h90l377 739h225l-413 -789l281 -869h-225l-256 809h-91l-85 -809h-224z" />
    <glyph glyph-name="uni040D" unicode="&#x40d;" horiz-adv-x="1113" 
d="M642 1797l-181 404h213l75 -404h-107zM82 0l174 1658h198l-123 -1165l614 1165h162l-174 -1658h-197l124 1183l-611 -1183h-167z" />
    <glyph glyph-name="afii10062" unicode="&#x40e;" horiz-adv-x="925" 
d="M610 1797q-256 0 -256 247q0 25 3 52h125q-2 -19 -2 -36q0 -66 28 -100q36 -42 114 -43q79 0 123 42.5t55 136.5h127q-33 -299 -317 -299zM35 -248l19 173q52 -5 91 -5h27q48 2 81.5 14t51.5 33.5t27 53t10 73.5v44v49l-175 1471h211l69 -710l31 -526l131 523l202 713
h215l-454 -1475q-10 -32 -27 -91q-35 -123 -56 -173t-75 -102q-53 -53 -140 -63q-49 -6 -120 -5q-53 0 -119 3z" />
    <glyph glyph-name="afii10145" unicode="&#x40f;" horiz-adv-x="1115" 
d="M399 -300l17 300h-334l174 1658h224l-157 -1498h405l157 1498h224l-174 -1658h-322l-46 -300h-168z" />
    <glyph glyph-name="afii10017" unicode="&#x410;" horiz-adv-x="1004" 
d="M-9 0l528 1658h217l180 -1658h-214l-32 421h-343l-123 -421h-213zM373 581h285l-63 763z" />
    <glyph glyph-name="afii10018" unicode="&#x411;" horiz-adv-x="1009" 
d="M82 0l174 1658h707l-16 -162h-484l-55 -529h60q138 0 230.5 -22.5t154.5 -76.5q61 -55 83 -149q13 -55 13 -127q0 -50 -6 -107q-26 -253 -162.5 -369t-403.5 -116h-295zM323 162h72q83 0 137.5 13t98 48t67.5 99.5t34 164.5q4 40 4 75q0 115 -46 171q-60 73 -232 73h-67z
" />
    <glyph glyph-name="afii10019" unicode="&#x412;" horiz-adv-x="1068" 
d="M82 0l174 1658h377q225 0 322 -102q79 -83 79 -239q0 -35 -4 -74q-33 -316 -271 -350q141 -35 197 -139q42 -78 42 -198q0 -38 -4 -81q-24 -224 -141 -349.5t-332 -125.5h-439zM324 161h163q150 0 212.5 72t80.5 242q4 35 4 66q0 111 -44 173q-56 80 -205 79h-145z
M408 963h145q142 0 204 65t78 215q3 30 3 56q0 31 -4 56q-8 45 -28 72.5t-63 41.5t-90.5 18.5t-126.5 4.5h-63z" />
    <glyph glyph-name="afii10020" unicode="&#x413;" horiz-adv-x="788" 
d="M82 0l174 1658h626l-17 -166h-402l-157 -1492h-224z" />
    <glyph glyph-name="afii10021" unicode="&#x414;" horiz-adv-x="1276" 
d="M-59 -300l49 461h75q45 34 76.5 67.5t73 105.5t74 172.5t70.5 267t73 389.5l78 495h689l-157 -1497h157l-49 -461h-173l13 300h-825l-50 -300h-174zM275 161h543l140 1331h-274l-57 -382q-18 -123 -37.5 -226.5t-36.5 -182t-38.5 -146t-37 -112.5t-39.5 -87.5
t-38.5 -65.5t-41.5 -51t-40 -40.5t-43 -37.5z" />
    <glyph glyph-name="afii10022" unicode="&#x415;" 
d="M82 0l174 1658h638l-17 -166h-414l-59 -555h337l-16 -161h-337l-65 -615h420l-18 -161h-643z" />
    <glyph glyph-name="afii10024" unicode="&#x416;" horiz-adv-x="1377" 
d="M-39 0l478 849l-265 809h217l231 -798h13l84 798h190l-84 -798h14l398 798h217l-435 -809l300 -849h-220l-261 831h-16l-87 -831h-190l87 831h-15l-436 -831h-220z" />
    <glyph glyph-name="afii10025" unicode="&#x417;" horiz-adv-x="981" 
d="M440 -18q-198 0 -288 111q-73 90 -73 239q0 35 4 73l6 54h211q-4 -32 -5 -58q-1 -22 -1 -42q0 -88 28 -139q35 -63 137 -63q112 0 161.5 76.5t66.5 231.5q3 31 3 59q0 102 -42 166q-54 82 -204 91q-28 2 -64 2l18 170q47 0 62 1q153 9 223.5 80.5t84.5 211.5q4 32 4 60
q0 195 -179 195q-201 0 -242 -251q-1 -5 -3.5 -23.5t-3.5 -27.5h-212l7 53q20 199 141 311t323 112q201 0 301 -115q81 -94 81 -245q0 -33 -4 -69q-15 -149 -89 -244t-187 -127q109 -35 161 -139q39 -77 39 -188q0 -39 -5 -82q-24 -230 -136 -357t-324 -127z" />
    <glyph glyph-name="afii10026" unicode="&#x418;" horiz-adv-x="1113" 
d="M82 0l174 1658h198l-123 -1165l614 1165h162l-174 -1658h-197l124 1183l-611 -1183h-167z" />
    <glyph glyph-name="afii10027" unicode="&#x419;" horiz-adv-x="1113" 
d="M695 1797q-256 0 -256 247q0 25 3 52h125q-2 -19 -2 -36q0 -66 28 -100q36 -42 114 -43q79 0 123 42.5t55 136.5h127q-33 -299 -317 -299zM82 0l174 1658h198l-123 -1165l614 1165h162l-174 -1658h-197l124 1183l-611 -1183h-167z" />
    <glyph glyph-name="afii10028" unicode="&#x41a;" horiz-adv-x="1035" 
d="M82 0l174 1658h224l-77 -739h90l377 739h225l-413 -789l281 -869h-225l-256 809h-91l-85 -809h-224z" />
    <glyph glyph-name="afii10029" unicode="&#x41b;" horiz-adv-x="1186" 
d="M-42 -1l19 168q33 -1 55 1t48.5 11t44.5 26.5t39.5 48.5t38.5 77t36 111t37 152t37 199l145 865h722l-174 -1658h-224l157 1492h-304l-113 -699q-19 -112 -36 -196t-39 -166.5t-46 -141t-55.5 -111.5t-69 -86.5t-84.5 -57.5q-48 -24 -106 -32q-37 -5 -78 -5q-24 0 -50 2z
" />
    <glyph glyph-name="afii10030" unicode="&#x41c;" horiz-adv-x="1348" 
d="M77 0l206 1658h201l179 -1290l452 1290h201l-142 -1658h-177l105 1132l-413 -1132h-127l-174 1132l-133 -1132h-178z" />
    <glyph glyph-name="afii10031" unicode="&#x41d;" horiz-adv-x="1145" 
d="M82 0l174 1658h224l-75 -718h436l75 718h224l-174 -1658h-224l82 780h-436l-82 -780h-224z" />
    <glyph glyph-name="afii10032" unicode="&#x41e;" horiz-adv-x="1101" 
d="M519 158q69 0 116.5 21t75.5 65t42.5 96t22.5 128l76 729q6 48 6 90q0 19 -1 36q-4 56 -22.5 95.5t-62 60.5t-112.5 21t-116.5 -20t-75.5 -62.5t-42.5 -93.5t-22.5 -127l-76 -729q-5 -52 -5 -96q0 -38 4 -68q8 -68 55 -107t138 -39zM500 -18q-124 0 -208.5 37.5
t-127.5 107.5q-43 71 -58 169q-8 49 -8 104.5t8 116.5l67 634q27 257 145.5 390.5t359.5 133.5q123 0 207 -36t129 -105.5t59 -163.5q7 -49 7 -106q0 -53 -6 -113l-68 -635q-13 -125 -47 -220.5t-93 -167.5t-151 -109t-215 -37z" />
    <glyph glyph-name="afii10033" unicode="&#x41f;" horiz-adv-x="1168" 
d="M82 0l174 1658h906l-174 -1658h-224l158 1498h-458l-158 -1498h-224z" />
    <glyph glyph-name="afii10034" unicode="&#x420;" horiz-adv-x="980" 
d="M82 0l174 1658h411q215 0 299 -116q66 -92 67 -249q0 -43 -5 -91q-22 -201 -137.5 -315t-315.5 -114h-187l-82 -773h-224zM405 934h114q152 0 215.5 56t79.5 211q8 59 8 104v18q-2 51 -11.5 84.5t-39.5 53.5t-74 28t-115 8h-118z" />
    <glyph glyph-name="afii10035" unicode="&#x421;" horiz-adv-x="1050" 
d="M492 -18q-103 0 -178 27.5t-118.5 76.5t-68 117.5t-26.5 150.5v33q0 67 6 142l63 594q14 132 44.5 228t87 171.5t148.5 114t220 38.5q114 0 192 -32t119 -95.5t54 -149.5q7 -44 7 -96q0 -48 -6 -104l-14 -129h-212l12 114q4 37 6 60.5t3.5 54.5t-0.5 50.5t-6.5 43.5
t-13 38t-22 29t-32.5 23t-45 13t-58 5q-58 0 -100.5 -17t-68.5 -44t-44 -74.5t-26.5 -93.5t-16.5 -117l-69 -661q-7 -62 -7 -111q0 -100 28 -150q40 -74 162 -74q47 0 82 10t59.5 33t40.5 48t27 68t17 79.5t12 94.5l12 121h212l-13 -121q-12 -119 -41 -208t-82.5 -159
t-140 -106t-205.5 -36z" />
    <glyph glyph-name="afii10036" unicode="&#x422;" horiz-adv-x="817" 
d="M254 0l156 1492h-305l17 166h825l-17 -166h-296l-157 -1492h-223z" />
    <glyph glyph-name="afii10037" unicode="&#x423;" horiz-adv-x="925" 
d="M35 -248l19 173q52 -5 91 -5h27q48 2 81.5 14t51.5 33.5t27 53t10 73.5v44v49l-175 1471h211l69 -710l31 -526l131 523l202 713h215l-454 -1475q-10 -32 -27 -91q-35 -123 -56 -173t-75 -102q-53 -53 -140 -63q-49 -6 -120 -5q-53 0 -119 3z" />
    <glyph glyph-name="afii10038" unicode="&#x424;" horiz-adv-x="1347" 
d="M501 -76l30 279q-18 -3 -73 -3q-24 -2 -47 -2q-157 0 -232 90q-66 79 -66 242q0 49 6 105l43 418q26 241 134 345q98 94 265 94q18 0 36 -1q1 0 34 -0.5t35 -0.5l33 318h224l-33 -318q10 2 79 2q19 1 36 1q166 1 244 -93q66 -79 66 -242q0 -49 -6 -105l-44 -418
q-25 -243 -133 -347q-94 -91 -249 -90q-24 0 -49 2q-64 0 -79 3l-30 -279h-224zM507 335q1 0 17.5 1t19.5 1l107 1018q-2 0 -18 0.5t-17 0.5q-17 1 -33 1q-49 1 -83 -9q-44 -12 -71.5 -52t-40 -93.5t-22.5 -149.5l-43 -418q-9 -72 -9 -126q0 -33 3 -59q9 -68 51 -94
q36 -22 109 -22q15 0 30 1zM813 335q19 -1 36 -1q26 0 47 2q35 4 61 20t42.5 36.5t28.5 58.5t19 79t14 105l44 418q9 73 9 127q0 33 -3 59q-9 69 -52 95q-36 22 -111 23q-14 0 -29 -1q-1 0 -21 -0.5t-23 -0.5l-107 -1018q3 0 23.5 -1t21.5 -1z" />
    <glyph glyph-name="afii10039" unicode="&#x425;" horiz-adv-x="984" 
d="M-22 0l438 868l-258 790h207l195 -593l297 593h209l-435 -809l277 -849h-209l-207 632l-305 -632h-209z" />
    <glyph glyph-name="afii10040" unicode="&#x426;" horiz-adv-x="1264" 
d="M959 -300l13 300h-890l174 1658h224l-157 -1498h478l157 1498h224l-157 -1498h156l-49 -460h-173z" />
    <glyph glyph-name="afii10041" unicode="&#x427;" horiz-adv-x="1097" 
d="M694 0l80 765q-139 -30 -248 -30q-360 0 -360 316q0 32 4 67l56 540h203l-57 -539q-3 -26 -3 -49q-1 -88 39 -132q50 -56 177 -56q91 0 204 25l79 751h224l-174 -1658h-224z" />
    <glyph glyph-name="afii10042" unicode="&#x428;" horiz-adv-x="1530" 
d="M82 0l174 1658h224l-157 -1496h306l157 1496h224l-157 -1496h291l157 1496h224l-174 -1658h-1269z" />
    <glyph glyph-name="afii10043" unicode="&#x429;" horiz-adv-x="1608" 
d="M1302 -300l13 300h-1233l174 1658h224l-157 -1498h306l157 1498h223l-156 -1498h292l157 1498h224l-157 -1498h155l-48 -460h-174z" />
    <glyph glyph-name="afii10044" unicode="&#x42a;" horiz-adv-x="1159" 
d="M233 0l156 1488h-272l18 170h496l-73 -691h72q138 0 230.5 -22.5t155 -77t84.5 -148.5q13 -55 12 -127q0 -50 -6 -107q-27 -253 -163 -369t-403 -116h-307zM474 162h83q83 0 137.5 13t98 48t67.5 99.5t35 164.5q4 40 4 74q-1 116 -47 172q-60 73 -232 73h-79z" />
    <glyph glyph-name="afii10045" unicode="&#x42b;" horiz-adv-x="1482" 
d="M82 0l174 1658h224l-72 -691h72q138 0 230.5 -22.5t154.5 -76.5q61 -55 83 -149q13 -55 13 -127q0 -50 -6 -107q-26 -253 -162.5 -369t-403.5 -116h-307zM323 162h84q83 0 137.5 13t98 48t67.5 99.5t34 164.5q4 40 4 75q0 115 -46 171q-60 73 -232 73h-79zM1079 0
l174 1658h224l-174 -1658h-224z" />
    <glyph glyph-name="afii10046" unicode="&#x42c;" horiz-adv-x="1008" 
d="M82 0l174 1658h224l-72 -691h72q138 0 230.5 -22.5t154.5 -76.5q61 -55 83 -149q13 -55 13 -127q0 -50 -6 -107q-26 -253 -162.5 -369t-403.5 -116h-307zM324 162h83q83 0 137.5 13t98 48t67.5 99.5t34 164.5q4 40 4 75q0 115 -46 171q-60 73 -232 73h-79z" />
    <glyph glyph-name="afii10047" unicode="&#x42d;" horiz-adv-x="1060" 
d="M470 4q-114 0 -192 32t-120 95t-54 149q-6 44 -6 94q0 49 6 106l8 82h213l-8 -67q-4 -38 -6 -60.5t-3 -54.5t1 -51t6.5 -43t13 -38t22 -29t32.5 -23t45 -13t58 -5q58 0 100.5 17t68.5 44t43.5 74.5t26.5 94t16 116.5l29 268h-298l16 147h297l25 246q7 62 7 111
q1 100 -27 150q-40 74 -163 75q-46 0 -81.5 -10t-59.5 -33t-40.5 -48.5t-27 -68t-16.5 -80t-12 -94.5l-7 -71h-212l7 71q13 120 42 208.5t82 158.5t140 106t206 36q103 0 178 -27.5t118.5 -76.5t68 -117.5t26.5 -150.5v-33q0 -67 -6 -142l-63 -593q-11 -105 -32 -186.5
t-59 -152t-92.5 -116t-134 -71.5t-182.5 -26z" />
    <glyph glyph-name="afii10048" unicode="&#x42e;" horiz-adv-x="1466" 
d="M896 -18q-117 0 -196 38.5t-117.5 109t-50.5 170.5q-6 45 -6 95q0 60 8 127l25 240h-187l-80 -762h-210l174 1658h210l-76 -727h187l22 214q14 127 45 221.5t86 165.5t141 107t203 36q116 0 195 -37.5t118.5 -106.5t52.5 -167q6 -46 6 -96q0 -58 -8 -123l-66 -624
q-13 -126 -44.5 -221.5t-86.5 -168.5t-141.5 -111t-203.5 -38zM916 158q53 0 93 14.5t66.5 40t45 66t28.5 85t16 104.5l76 729q5 50 5 92q0 37 -4 69q-8 68 -53.5 105t-132.5 37q-127 0 -180.5 -74.5t-69.5 -228.5l-76 -729q-6 -48 -6 -91q0 -19 1 -37q4 -58 22 -98
t60.5 -62t108.5 -22z" />
    <glyph glyph-name="afii10049" unicode="&#x42f;" horiz-adv-x="1115" 
d="M-21 0l425 746q-109 50 -160 166q-38 86 -38 203q0 41 5 87q48 456 561 456h337l-174 -1658h-224l73 691h-140q-3 0 -27 0.5t-26 0.5l-362 -692h-250zM705 852h96l68 645h-102q-159 0 -243.5 -70t-100.5 -224q-4 -42 -4 -78q0 -123 49 -189q64 -84 237 -84z" />
    <glyph glyph-name="afii10065" unicode="&#x430;" horiz-adv-x="866" 
d="M272 -17q-101 1 -161 83q-51 70 -51 158q0 16 2 33q6 60 26 111.5t39.5 88t66.5 75t73 58.5t95.5 53t98 45t114.5 46q5 2 7 3l9 85q5 49 5 86q0 54 -11 84q-19 50 -92 49q-129 0 -146 -171l-7 -58l-209 8q1 5 3 20.5t3 22.5q28 177 125 257.5t261 80.5q170 1 235 -93
q50 -72 50 -200q0 -39 -5 -84l-57 -545q-11 -103 -11 -215q0 -32 1 -64h-193q-10 101 -10 174q-34 -81 -101 -136t-160 -55zM375 167q44 0 89 33.5t69 68.5l36 338q-7 -3 -19 -10q-53 -28 -79 -42.5t-66.5 -43t-61 -52.5t-38.5 -60.5t-22 -77.5q-2 -17 -2 -32q0 -51 19 -82
q24 -40 75 -40z" />
    <glyph glyph-name="afii10066" unicode="&#x431;" horiz-adv-x="897" 
d="M391 -17h-3q-155 0 -231 104q-61 82 -61 224q0 38 5 81l65 621q13 121 27.5 208.5t35 152t41.5 105t54 68.5t65 42.5t82.5 28t98 23t119.5 29.5t140 46l34 -173q-76 -32 -151.5 -50.5t-116 -24t-80 -19t-59.5 -43t-36 -88.5t-27 -162l-15 -139q113 70 226 70
q46 0 83.5 -13.5t69 -44t49.5 -80t26 -121.5q3 -29 3 -62q0 -49 -7 -106l-23 -224q-11 -108 -37.5 -188.5t-62.5 -130.5t-87 -80.5t-104.5 -42t-122.5 -11.5zM427 140q71 1 108 53.5t50 178.5l38 352q5 44 5 79q0 59 -13 89q-20 50 -80 49q-73 0 -171 -63l-52 -493
q-5 -46 -5 -83q-1 -70 17 -106q26 -56 103 -56z" />
    <glyph glyph-name="afii10067" unicode="&#x432;" horiz-adv-x="845" 
d="M63 0l124 1184h326q87 0 148 -23t92 -64t42 -89q8 -33 8 -72q0 -17 -2 -36q-18 -205 -180 -254q155 -33 155 -236q0 -31 -4 -65q-17 -168 -101 -256.5t-270 -88.5h-338zM286 160h85q83 0 132.5 41.5t60.5 150.5q1 34 3 61t-4 47.5t-11 35.5t-17 25t-22.5 16t-27 9.5
t-30.5 4.5t-34 1h-93zM343 705h112q68 0 108 40t50 130q1 14 1 27q0 60 -31 90q-38 36 -116 36h-89z" />
    <glyph glyph-name="afii10068" unicode="&#x433;" horiz-adv-x="593" 
d="M63 0l124 1184h472l-16 -152h-260l-109 -1032h-211z" />
    <glyph glyph-name="afii10069" unicode="&#x434;" horiz-adv-x="1011" 
d="M-75 -300l47 442q70 49 123 110.5t103.5 161t88 250t60.5 352.5l23 168h532l-107 -1033h140l-47 -451h-155l13 300h-615l-50 -300h-156zM182 151h408l93 880h-163l-11 -58q-24 -207 -58.5 -355.5t-79 -239t-88 -140.5t-101.5 -87z" />
    <glyph glyph-name="afii10070" unicode="&#x435;" horiz-adv-x="856" 
d="M386 -17q-102 0 -167 30t-97 89q-32 60 -40 148q-3 32 -2 68q0 63 8 137l29 274q13 123 38.5 208t71.5 146t116.5 89.5t169.5 28.5q107 0 171.5 -34.5t90.5 -100.5q25 -66 29 -162q1 -18 1 -37q0 -81 -12 -180l-11 -97h-468l-17 -160q-3 -34 -4.5 -49t-3.5 -44
t-1.5 -42.5t1 -37t4.5 -34.5t9.5 -27.5t14.5 -24.5t20.5 -16.5t27.5 -11.5t36 -3q71 0 104 49t43 149l8 73h207l-6 -48q-39 -380 -371 -380zM327 705h260l10 107q6 56 6 100q-1 14 -1 26q-2 52 -27.5 79t-79.5 27q-80 0 -112.5 -57t-49.5 -216z" />
    <glyph glyph-name="afii10072" unicode="&#x436;" horiz-adv-x="1177" 
d="M-41 0l365 604l-223 580h203l196 -570h17l60 570h175l-60 -570h16l315 570h202l-343 -580l238 -604h-197l-217 581h-17l-61 -581h-175l61 581h-18l-339 -581h-198z" />
    <glyph glyph-name="afii10073" unicode="&#x437;" horiz-adv-x="765" 
d="M338 -20q-162 0 -228 92q-51 71 -51 203q0 40 5 85h181q-4 -37 -4 -68q-1 -68 19 -106q28 -55 96 -55q32 0 55.5 11t38.5 29t25.5 48t16 60t9.5 73q3 23 3 43q0 76 -36 105q-46 36 -187 36l16 150q138 0 192.5 42t66.5 144q2 20 2 38q0 56 -24 90q-32 44 -93 44
q-68 0 -107.5 -43t-50.5 -154h-182q20 188 113 271t252 83q79 0 137.5 -26.5t90.5 -72.5q31 -44 43 -100q8 -35 8 -73q0 -22 -3 -45q-7 -72 -31 -125.5t-58 -82.5t-68 -43.5t-71 -17.5q17 -4 27.5 -7t27 -8.5t27 -11.5t24.5 -15t22.5 -21t18.5 -27.5t15 -35.5t9 -44.5t4 -55
t-4 -66.5q-17 -168 -104 -255.5t-243 -87.5z" />
    <glyph glyph-name="afii10074" unicode="&#x438;" horiz-adv-x="929" 
d="M63 0l124 1184h178l-84 -808l445 808h167l-124 -1184h-176l86 814l-445 -814h-171z" />
    <glyph glyph-name="afii10075" unicode="&#x439;" horiz-adv-x="929" 
d="M553 1323q-256 0 -256 247q0 25 3 52h125q-2 -19 -2 -36q0 -66 28 -100q36 -42 114 -43q79 0 123 42.5t55 136.5h127q-33 -299 -317 -299zM63 0l124 1184h178l-84 -808l445 808h167l-124 -1184h-176l86 814l-445 -814h-171z" />
    <glyph glyph-name="afii10076" unicode="&#x43a;" horiz-adv-x="843" 
d="M63 0l124 1184h211l-51 -501h65l278 501h218l-312 -573l192 -611h-222l-169 554h-64l-59 -554h-211z" />
    <glyph glyph-name="afii10077" unicode="&#x43b;" horiz-adv-x="987" 
d="M-16 -10l17 160q31 0 55 5t45 20t36 32t29.5 51.5t25 67.5t22.5 91t21.5 111.5t23.5 139.5l82 516h610l-124 -1184h-212l108 1022h-214l-56 -354q-22 -143 -42.5 -239.5t-47.5 -176.5t-57 -127t-74.5 -79t-97 -44t-126.5 -12h-24z" />
    <glyph glyph-name="afii10078" unicode="&#x43c;" horiz-adv-x="1076" 
d="M56 0l136 1184h156l188 -736l342 736h157l-112 -1184h-178l75 719l-286 -602h-65l-159 599l-76 -716h-178z" />
    <glyph glyph-name="afii10079" unicode="&#x43d;" horiz-adv-x="935" 
d="M63 0l124 1184h211l-51 -499h289l52 499h212l-124 -1184h-212l56 529h-290l-56 -529h-211z" />
    <glyph glyph-name="afii10080" unicode="&#x43e;" horiz-adv-x="863" 
d="M397 140q27 0 48.5 8.5t36.5 19.5t26.5 34t18.5 40.5t13 51.5t8.5 54t6.5 59l39 368q4 38 5.5 59t2.5 54.5t-2 51.5t-10 41t-19.5 34.5t-32 20t-46.5 8.5q-31 0 -55 -9.5t-40 -30.5t-26.5 -41.5t-18 -56.5t-11 -61.5t-7.5 -69.5l-39 -368q-4 -39 -5.5 -59.5t-2.5 -53.5
t2 -51t10 -41t19.5 -34.5t32 -19.5t46.5 -8zM380 -17q-96 0 -160.5 30.5t-96 87.5t-41.5 138q-4 35 -4 74q0 51 7 108l35 341q23 215 112.5 327t275.5 112q96 0 161 -31t97 -88t42 -138q5 -36 4 -76q0 -50 -7 -106l-36 -341q-11 -105 -36.5 -182.5t-70.5 -136.5t-115.5 -89
t-166.5 -30z" />
    <glyph glyph-name="afii10081" unicode="&#x43f;" horiz-adv-x="904" 
d="M63 0l124 1184h681l-124 -1184h-211l107 1022h-258l-108 -1022h-211z" />
    <glyph glyph-name="afii10082" unicode="&#x440;" horiz-adv-x="908" 
d="M22 -390l165 1574h212l-9 -95q108 112 236 112q51 0 90.5 -17.5t64 -44.5t41 -67t23.5 -79t9 -86q1 -27 1 -50q-1 -17 -1 -32q-2 -35 -5 -73l-30 -282q-51 -487 -344 -487q-106 0 -191 106l-50 -479h-212zM451 150q34 0 59 17t40 42t27 70.5t17.5 85.5t12.5 104l30 283
q7 80 7 143t-26.5 101t-81.5 38q-73 0 -159 -64l-81 -764q69 -56 155 -56z" />
    <glyph glyph-name="afii10083" unicode="&#x441;" horiz-adv-x="836" 
d="M381 -17q-106 0 -172.5 34t-94.5 95q-28 62 -34 148q-2 27 -2 57q0 63 10 136l29 275q13 120 35.5 201.5t66 146t115 95t175.5 30.5q95 0 156 -24.5t91 -71.5t38 -117q4 -31 3 -65q0 -45 -6 -96l-8 -69h-192l8 70q5 45 5 80q0 58 -14 88q-22 48 -94 48q-82 0 -114 -57
t-48 -216l-39 -370q-7 -64 -7 -110q0 -65 14 -97q22 -54 100 -54q33 0 57 10.5t39 27t25.5 46t15.5 58t10 72.5l10 92h192l-8 -79q-10 -95 -32 -162.5t-63 -119t-107.5 -77t-159.5 -25.5z" />
    <glyph glyph-name="afii10084" unicode="&#x442;" horiz-adv-x="706" 
d="M197 0l108 1025h-225l17 159h664l-17 -159h-227l-108 -1025h-212z" />
    <glyph glyph-name="afii10085" unicode="&#x443;" horiz-adv-x="809" 
d="M18 -301l19 175q133 2 177 48q32 33 32 112q0 29 -4 63l-133 1087h198l54 -616l22 -377l91 375l164 618h207l-383 -1191q-29 -92 -71 -151.5t-101 -90t-120.5 -41t-151.5 -11.5z" />
    <glyph glyph-name="afii10086" unicode="&#x444;" horiz-adv-x="1232" 
d="M427 -390l48 457h-22q-363 0 -363 363q0 42 5 89l22 213q12 112 52.5 196.5t101 134t133 74t156.5 24.5h30l52 497h196l-52 -497h38q84 0 150.5 -24.5t115.5 -74.5t71 -134q14 -55 14 -120q0 -36 -4 -76l-22 -213q-48 -452 -447 -452h-30l-49 -457h-196zM474 217h16
l85 805h-23q-52 0 -89.5 -11t-70 -39t-52.5 -80t-28 -130l-26 -242q-6 -45 -6 -82q0 -22 2 -42q6 -52 18.5 -87t39 -55t58 -28.5t76.5 -8.5zM687 217h15q115 0 176 65t80 238l25 242q4 35 4 65q1 37 -5 65q-10 52 -37.5 80t-63 39t-87.5 11h-23z" />
    <glyph glyph-name="afii10087" unicode="&#x445;" horiz-adv-x="794" 
d="M-28 0l331 622l-202 562h205l136 -381l197 381h209l-332 -588l213 -596h-202l-147 408l-208 -408h-200z" />
    <glyph glyph-name="afii10088" unicode="&#x446;" horiz-adv-x="984" 
d="M732 -300l13 300h-682l124 1184h211l-107 -1033h290l108 1033h212l-108 -1033h140l-47 -451h-154z" />
    <glyph glyph-name="afii10089" unicode="&#x447;" horiz-adv-x="879" 
d="M507 0l49 472q-98 -13 -161 -13q-70 0 -123 13.5t-95 45.5q-43 32 -61 91q-12 40 -12 91q0 25 3 52l45 432h212l-45 -435q-1 -13 -1 -26q0 -51 24 -79q30 -34 118 -34q52 0 112 10l59 564h212l-124 -1184h-212z" />
    <glyph glyph-name="afii10090" unicode="&#x448;" horiz-adv-x="1270" 
d="M63 0l124 1184h205l-108 -1033h212l108 1033h205l-108 -1033h220l108 1033h205l-124 -1184h-1047z" />
    <glyph glyph-name="afii10091" unicode="&#x449;" horiz-adv-x="1361" 
d="M1067 -300l13 300h-1017l124 1184h204l-108 -1033h214l108 1033h205l-108 -1033h221l108 1033h205l-108 -1033h141l-48 -451h-154z" />
    <glyph glyph-name="afii10092" unicode="&#x44a;" horiz-adv-x="979" 
d="M189 0l108 1027h-246l17 157h457l-51 -489h40q125 -1 204 -17t129 -56q51 -40 67 -106q10 -39 9 -91q0 -35 -4 -76q-20 -192 -131.5 -270.5t-367.5 -78.5h-231zM415 126h18q157 0 219 46.5t75 177.5q3 27 3 50q0 46 -11 76q-16 45 -70.5 68.5t-160.5 24.5h-27z" />
    <glyph glyph-name="afii10093" unicode="&#x44b;" horiz-adv-x="1263" 
d="M63 0l124 1184h211l-50 -489h39q125 -1 204 -17t129.5 -56t66.5 -106q9 -39 9 -90q0 -35 -4 -77q-20 -192 -131.5 -270.5t-367.5 -78.5h-230zM288 126h19q156 0 218 46.5t76 177.5q4 30 3.5 55t-3.5 45q-7 39 -33.5 66.5t-76.5 39.5t-130 13h-27zM891 0l124 1184h212
l-124 -1184h-212z" />
    <glyph glyph-name="afii10094" unicode="&#x44c;" horiz-adv-x="843" 
d="M63 0l124 1184h211l-50 -489h39q125 -1 204 -17t129.5 -56t66.5 -106q9 -39 9 -90q0 -35 -4 -77q-20 -192 -131.5 -270.5t-367.5 -78.5h-230zM288 126h19q156 0 218 46.5t76 177.5q4 30 3.5 55t-3.5 45q-7 39 -33.5 66.5t-76.5 39.5t-130 13h-27z" />
    <glyph glyph-name="afii10095" unicode="&#x44d;" horiz-adv-x="841" 
d="M359 -17q-95 0 -156 23.5t-91 69.5q-30 48 -38 116q-4 30 -4 63q0 44 6 95l4 32h192l-4 -32q-4 -40 -4 -72q0 -61 15 -92q23 -47 95 -47q82 0 113 57t47 216l13 120h-287l13 120h286l14 127q8 64 8 110q0 29 -3 51q-8 58 -33 79t-78 21q-77 0 -107 -50.5t-41 -154.5
l-5 -57h-193l5 43q19 188 100 282.5t262 94.5q106 0 172 -33.5t94 -94.5q28 -62 34 -149q2 -28 2 -57q0 -64 -10 -137l-29 -272q-13 -120 -35.5 -201.5t-66 -145.5t-115 -94.5t-175.5 -30.5z" />
    <glyph glyph-name="afii10096" unicode="&#x44e;" horiz-adv-x="1165" 
d="M717 -17q-87 0 -145 30.5t-85 87.5t-35 138q-3 31 -2 65q0 55 7 117l10 101h-163l-54 -522h-187l124 1184h187l-55 -522h164l10 100q11 106 33.5 183t63 136.5t104.5 89.5t151 30t144.5 -31t85 -88t35.5 -138q3 -31 3 -65q0 -55 -8 -117l-36 -341q-11 -105 -34 -182.5
t-63.5 -136.5t-104 -89t-150.5 -30zM734 140q25 0 44.5 8.5t33.5 19.5t25 34t17 40.5t12 51.5t8.5 54t6.5 59l39 368q5 45 6.5 69t1.5 62q0 3 1 6q1 33 -5 51q-6 20 -16.5 41t-30.5 30.5t-49 9.5q-28 0 -50 -9.5t-37 -30.5t-25 -41.5t-17 -56.5t-10.5 -62t-7.5 -69l-39 -368
q-6 -72 -9 -131v-13q-1 -51 21 -85q24 -38 80 -38z" />
    <glyph glyph-name="afii10097" unicode="&#x44f;" horiz-adv-x="878" 
d="M-27 0l277 503q-133 51 -133 250q0 36 4 76q19 188 130.5 271t362.5 84h228l-124 -1184h-211l49 468q-61 0 -109 4l-245 -472h-229zM542 591h27l49 470h-27q-144 0 -204.5 -52.5t-74.5 -180.5q-2 -24 -2 -46q0 -89 39 -134q49 -56 193 -57z" />
    <glyph glyph-name="uni0450" unicode="&#x450;" horiz-adv-x="856" 
d="M466 1323l-181 404h213l75 -404h-107zM386 -17q-102 0 -167 30t-97 89q-32 60 -40 148q-3 32 -2 68q0 63 8 137l29 274q13 123 38.5 208t71.5 146t116.5 89.5t169.5 28.5q107 0 171.5 -34.5t90.5 -100.5q25 -66 29 -162q1 -18 1 -37q0 -81 -12 -180l-11 -97h-468
l-17 -160q-3 -34 -4.5 -49t-3.5 -44t-1.5 -42.5t1 -37t4.5 -34.5t9.5 -27.5t14.5 -24.5t20.5 -16.5t27.5 -11.5t36 -3q71 0 104 49t43 149l8 73h207l-6 -48q-39 -380 -371 -380zM327 705h260l10 107q6 56 6 100q-1 14 -1 26q-2 52 -27.5 79t-79.5 27q-80 0 -112.5 -57
t-49.5 -216z" />
    <glyph glyph-name="afii10071" unicode="&#x451;" horiz-adv-x="856" 
d="M238 1323l23 221h213l-23 -221h-213zM587 1323l24 221h214l-23 -221h-215zM386 -17q-102 0 -167 30t-97 89q-32 60 -40 148q-3 32 -2 68q0 63 8 137l29 274q13 123 38.5 208t71.5 146t116.5 89.5t169.5 28.5q107 0 171.5 -34.5t90.5 -100.5q25 -66 29 -162q1 -18 1 -37
q0 -81 -12 -180l-11 -97h-468l-17 -160q-3 -34 -4.5 -49t-3.5 -44t-1.5 -42.5t1 -37t4.5 -34.5t9.5 -27.5t14.5 -24.5t20.5 -16.5t27.5 -11.5t36 -3q71 0 104 49t43 149l8 73h207l-6 -48q-39 -380 -371 -380zM327 705h260l10 107q6 56 6 100q-1 14 -1 26q-2 52 -27.5 79
t-79.5 27q-80 0 -112.5 -57t-49.5 -216z" />
    <glyph glyph-name="afii10099" unicode="&#x452;" horiz-adv-x="929" 
d="M311 -299l15 142h25q45 0 71.5 3t53 15t40.5 32t28 57.5t22 88t16 127.5l62 590q1 14 1 27q1 38 -13 59q-18 28 -74 28q-47 0 -105.5 -22t-73.5 -34l-85 -814h-212l132 1265h-149l13 127h150l28 266h212l-28 -266h288l-13 -127h-288l-36 -340q15 11 43.5 26.5t95 36.5
t129.5 21q115 -1 163 -59q42 -50 41 -119q0 -12 -1 -24l-64 -598q-11 -108 -23 -178.5t-33 -132t-48.5 -95.5t-72.5 -59t-102.5 -34t-139.5 -9h-68z" />
    <glyph glyph-name="afii10100" unicode="&#x453;" horiz-adv-x="593" 
d="M383 1323l164 404h212l-268 -404h-108zM63 0l124 1184h472l-16 -152h-260l-109 -1032h-211z" />
    <glyph glyph-name="afii10101" unicode="&#x454;" horiz-adv-x="811" 
d="M382 -17q-105 0 -171.5 34t-94.5 95q-28 62 -34 148q-2 27 -2 57q0 63 10 136l29 275q10 95 25.5 164.5t44.5 130.5t70.5 98.5t104.5 58.5t146 21q95 0 156.5 -24t91.5 -71q30 -46 38 -116q3 -29 3 -63q0 -45 -6 -98l-3 -33h-192l3 34q5 44 5 78q0 59 -14 89
q-22 47 -95 47q-82 0 -114 -57t-48 -216l-11 -99h293l-15 -140h-292l-13 -131q-7 -65 -7 -112q0 -65 13 -95q22 -54 101 -54q77 0 106 51t41 162l5 53h192l-4 -40q-10 -95 -32 -162.5t-63 -119t-107 -76.5t-160 -25z" />
    <glyph glyph-name="afii10102" unicode="&#x455;" horiz-adv-x="762" 
d="M334 -17q-144 0 -222 91q-75 87 -75 228v15l182 53q1 -118 34.5 -174t106.5 -56q61 0 102.5 39.5t44.5 99.5q1 7 1 13q0 84 -82 160l-180 169q-67 63 -98 129q-22 48 -22 111q0 24 3 50q18 138 106.5 214t226.5 76q134 1 202 -87q65 -84 64 -213v-12l-149 -53
q-2 102 -30.5 155t-94.5 53q-56 0 -93 -35.5t-42 -87.5q-1 -7 -1 -14q0 -64 51 -113l186 -188q71 -70 109 -144q30 -58 30 -136q0 -21 -2 -42q-15 -147 -111.5 -224t-246.5 -77z" />
    <glyph glyph-name="afii10103" unicode="&#x456;" horiz-adv-x="474" 
d="M82 0l124 1184h212l-124 -1184h-212zM223 1337l23 225h216l-23 -225h-216z" />
    <glyph glyph-name="afii10104" unicode="&#x457;" horiz-adv-x="454" 
d="M39 1323l23 221h213l-23 -221h-213zM388 1323l24 221h214l-23 -221h-215zM77 0l124 1184h212l-124 -1184h-212z" />
    <glyph glyph-name="afii10105" unicode="&#x458;" horiz-adv-x="457" 
d="M-117 -287l17 153q30 -5 56 -5q68 0 100 38t39 107l124 1178h212l-126 -1200q-15 -137 -98 -210.5t-217 -73.5q-73 0 -107 13zM237 1358l24 227h214l-24 -227h-214z" />
    <glyph glyph-name="afii10106" unicode="&#x459;" horiz-adv-x="1342" 
d="M-39 -10l17 159q41 0 71 10t54.5 37.5t41 61t32.5 97.5t28 128t29 171l84 530h611l-52 -502h34q225 0 306 -73q65 -59 65 -194q0 -34 -4 -72q-13 -125 -60.5 -197.5t-143.5 -107.5t-257 -38h-224l108 1022h-214l-65 -399q-27 -170 -57.5 -283.5t-64.5 -183.5t-84 -106.5
t-101.5 -48t-131.5 -11.5h-22zM819 126h16q132 0 185 47t67 171q3 28 3 51q0 77 -32 113q-42 48 -178 48h-17z" />
    <glyph glyph-name="afii10107" unicode="&#x45a;" horiz-adv-x="1284" 
d="M63 0l124 1184h211l-51 -492h258l51 492h212l-52 -501q27 0 33 -1q233 -3 316 -74q67 -57 67 -194q0 -33 -4 -71q-13 -125 -61.5 -198t-146 -108t-260.5 -37h-228l58 547h-258l-58 -547h-211zM758 126q22 0 24 1q135 2 188 47.5t67 169.5q3 26 3 49q0 78 -32 113
q-42 46 -178 50q-24 0 -28 1z" />
    <glyph glyph-name="afii10108" unicode="&#x45b;" horiz-adv-x="929" 
d="M82 0l132 1265h-149l13 127h150l28 266h212l-28 -266h288l-13 -127h-288l-36 -340q15 11 43.5 26.5t95 36.5t129.5 21q115 -1 163 -59q42 -50 41 -119q0 -12 -1 -24l-85 -807h-212l79 756q1 14 1 27q1 38 -13 59q-18 28 -74 28q-37 0 -101.5 -22.5t-77.5 -33.5l-85 -814
h-212z" />
    <glyph glyph-name="afii10109" unicode="&#x45c;" horiz-adv-x="843" 
d="M509 1323l164 404h212l-268 -404h-108zM63 0l124 1184h211l-51 -501h65l278 501h218l-312 -573l192 -611h-222l-169 554h-64l-59 -554h-211z" />
    <glyph glyph-name="uni045d" unicode="&#x45d;" horiz-adv-x="929" 
d="M500 1323l-181 404h213l75 -404h-107zM63 0l124 1184h178l-84 -808l445 808h167l-124 -1184h-176l86 814l-445 -814h-171z" />
    <glyph glyph-name="afii10110" unicode="&#x45e;" horiz-adv-x="809" 
d="M490 1323q-256 0 -256 247q0 25 3 52h125q-2 -19 -2 -36q0 -66 28 -100q36 -42 114 -43q79 0 123 42.5t55 136.5h127q-33 -299 -317 -299zM18 -301l19 175q133 2 177 48q32 33 32 112q0 29 -4 63l-133 1087h198l54 -616l22 -377l91 375l164 618h207l-383 -1191
q-29 -92 -71 -151.5t-101 -90t-120.5 -41t-151.5 -11.5z" />
    <glyph glyph-name="afii10193" unicode="&#x45f;" horiz-adv-x="908" 
d="M308 -300l13 300h-258l124 1184h211l-107 -1032h261l108 1032h212l-124 -1184h-254l-42 -300h-144z" />
    <glyph glyph-name="uni0490" unicode="&#x490;" horiz-adv-x="771" 
d="M82 0l174 1658h488l22 220h141l-40 -386h-404l-157 -1492h-224z" />
    <glyph glyph-name="afii10098" unicode="&#x491;" horiz-adv-x="661" 
d="M77 0l124 1184h389l21 191h107l-34 -329h-301l-110 -1046h-196z" />
    <glyph glyph-name="uni04AF" unicode="&#x4af;" horiz-adv-x="792" 
d="M217 -347l43 416l-159 1115h215l80 -796l242 796h215l-400 -1108l-44 -423h-192z" />
    <glyph glyph-name="uni04B0" unicode="&#x4b0;" horiz-adv-x="969" 
d="M84 618l16 154h293l-249 886h209l112 -421l73 -279l130 279l196 421h212l-432 -886h256l-17 -154h-273l-65 -618h-214l65 618h-312z" />
    <glyph glyph-name="uni04B1" unicode="&#x4b1;" horiz-adv-x="802" 
d="M34 -28l14 142h206l-153 1070h215l80 -796l242 796h215l-386 -1070h204l-15 -142h-214l-33 -319h-192l33 319h-216z" />
    <glyph glyph-name="uni04E8" unicode="&#x4e8;" horiz-adv-x="1104" 
d="M373 913h449l30 284q6 48 6 90q0 19 -1 36q-4 56 -22.5 95.5t-62 60.5t-112.5 21t-116.5 -20t-75.5 -62.5t-42.5 -93.5t-22.5 -127zM519 158q69 0 116.5 21t75.5 65t42.5 96t22.5 128l30 292h-449l-30 -292q-5 -52 -5 -96q0 -38 4 -68q8 -68 55 -107t138 -39zM500 -18
q-124 0 -208.5 37.5t-127.5 107.5q-43 71 -58 169q-8 49 -8 104.5t8 116.5l67 634q27 257 145.5 390.5t359.5 133.5q123 0 207 -36t129 -105.5t59 -163.5q7 -49 7 -106q0 -53 -6 -113l-68 -635q-13 -125 -47 -220.5t-93 -167.5t-151 -109t-215 -37z" />
    <glyph glyph-name="uni04E9" unicode="&#x4e9;" horiz-adv-x="863" 
d="M324 683h260l10 92q4 38 5.5 59t2.5 54.5t-2 51.5t-10 41t-19.5 34.5t-32 20t-46.5 8.5q-31 0 -55 -9.5t-40 -30.5t-26.5 -41.5t-18 -56.5t-11 -61.5t-7.5 -69.5zM397 140q27 0 48.5 8.5t36.5 19.5t26.5 34t18.5 40.5t13 51.5t8.5 54t6.5 59l15 142h-260l-15 -142
q-4 -39 -5.5 -59.5t-2.5 -53.5t2 -51t10 -41t19.5 -34.5t32 -19.5t46.5 -8zM380 -17q-96 0 -160.5 30.5t-96 87.5t-41.5 138q-4 35 -4 74q0 51 7 108l35 341q23 215 112.5 327t275.5 112q96 0 161 -31t97 -88t42 -138q5 -36 4 -76q0 -50 -7 -106l-36 -341
q-11 -105 -36.5 -182.5t-70.5 -136.5t-115.5 -89t-166.5 -30z" />
    <glyph glyph-name="uni1E02" unicode="&#x1e02;" horiz-adv-x="1068" 
d="M594 1797l25 241h215l-26 -241h-214zM82 0l174 1658h377q225 0 322 -102q79 -83 79 -239q0 -35 -4 -74q-33 -316 -271 -350q141 -35 197 -139q42 -78 42 -198q0 -38 -4 -81q-24 -224 -141 -349.5t-332 -125.5h-439zM324 161h163q150 0 212.5 72t80.5 242q4 35 4 66
q0 111 -44 173q-56 80 -205 79h-145zM408 963h145q142 0 204 65t78 215q3 30 3 56q0 31 -4 56q-8 45 -28 72.5t-63 41.5t-90.5 18.5t-126.5 4.5h-63z" />
    <glyph glyph-name="uni1E03" unicode="&#x1e03;" horiz-adv-x="910" 
d="M499 1780l25 241h215l-26 -241h-214zM477 -17q-106 0 -190 105l-9 -88h-212l174 1658h212l-59 -568q107 111 236 111q58 0 102 -22t68 -61.5t38.5 -83.5t17.5 -99q2 -41 2 -75v-22q-1 -42 -6 -86l-30 -282q-51 -487 -344 -487zM453 150q28 0 50 10.5t37.5 32.5t26.5 47.5
t19 66t13 75.5t10 87l30 283q7 80 7 143t-26.5 101t-81.5 38q-75 0 -158 -64l-81 -765q67 -55 154 -55z" />
    <glyph glyph-name="uni1E0A" unicode="&#x1e0a;" horiz-adv-x="1078" 
d="M586 1797l25 241h215l-26 -241h-214zM324 161h137q75 0 126.5 20.5t81.5 48.5t49.5 91t27.5 112.5t18 147.5l58 547q9 80 9 142q0 35 -3 65q-8 81 -61.5 119t-170.5 38h-133zM82 0l174 1658h361q136 0 227 -31.5t140 -96.5q50 -64 65 -156q8 -47 8 -105q0 -53 -7 -115
l-64 -615q-29 -271 -152 -405t-374 -134h-378z" />
    <glyph glyph-name="uni1E0B" unicode="&#x1e0b;" horiz-adv-x="899" 
d="M470 1780l25 241h215l-26 -241h-214zM334 -17h-3q-151 0 -209 111q-40 77 -41 223q0 67 9 149l24 229q9 89 23 159t40 137t62 111.5t91 71.5t125 27q106 -1 189 -93l57 550h212l-174 -1658h-212l8 76q-96 -93 -201 -93zM405 150q65 0 143 48l82 780q-69 56 -136 56
q-39 0 -68 -19.5t-47 -56t-28.5 -80t-16.5 -101.5l-35 -329q-7 -78 -7 -139v-15q1 -66 28.5 -105t84.5 -39z" />
    <glyph glyph-name="uni1E1E" unicode="&#x1e1e;" horiz-adv-x="799" 
d="M481 1797l25 241h215l-26 -241h-214zM82 0l174 1658h636l-16 -161h-412l-59 -558h322l-17 -161h-322l-82 -778h-224z" />
    <glyph glyph-name="uni1E1F" unicode="&#x1e1f;" horiz-adv-x="584" 
d="M332 1723l25 241h215l-26 -241h-214zM133 0l108 1026h-143l16 158h143l8 68q7 70 17 119t30.5 95.5t50.5 74t78 44t113 16.5q47 0 138 -12l-17 -158q-8 1 -37 5.5t-43 4.5q-60 0 -83.5 -37.5t-31.5 -116.5l-12 -103h182l-16 -158h-182l-108 -1026h-211z" />
    <glyph glyph-name="uni1E40" unicode="&#x1e40;" horiz-adv-x="1348" 
d="M706 1797l25 241h215l-26 -241h-214zM77 0l206 1658h219l154 -1354l442 1354h218l-142 -1658h-181l109 1217l-413 -1217h-127l-155 1216l-147 -1216h-183z" />
    <glyph glyph-name="uni1E41" unicode="&#x1e41;" horiz-adv-x="1359" 
d="M666 1323l25 241h215l-26 -241h-214zM63 0l124 1184h211l-11 -116q153 133 301 133q133 0 152 -145q162 145 315 145q50 0 84 -21.5t48.5 -55.5t20.5 -78q3 -20 3 -41q0 -24 -4 -48l-101 -957h-212l94 896q2 21 2 39q0 42 -12 66q-16 33 -71 33q-69 0 -168 -78
q0 -2 -0.5 -10t-0.5 -10l-99 -936h-212l94 896q2 21 2 39q1 42 -11 66q-16 33 -72 33q-68 0 -165 -76l-101 -958h-211z" />
    <glyph glyph-name="uni1E56" unicode="&#x1e56;" horiz-adv-x="984" 
d="M573 1797l25 241h215l-26 -241h-214zM82 0l174 1658h411q215 0 299 -116q66 -92 67 -249q0 -43 -5 -91q-22 -201 -137.5 -315t-315.5 -114h-187l-82 -773h-224zM405 934h114q152 0 215.5 56t79.5 211q8 59 8 104v18q-2 51 -11.5 84.5t-39.5 53.5t-74 28t-115 8h-118z" />
    <glyph glyph-name="uni1E57" unicode="&#x1e57;" horiz-adv-x="908" 
d="M448 1323l25 241h215l-26 -241h-214zM22 -390l165 1574h212l-9 -95q108 112 236 112q51 0 90.5 -17.5t64 -44.5t41 -67t23.5 -79t9 -86q1 -27 1 -50q-1 -17 -1 -32q-2 -35 -5 -73l-30 -282q-51 -487 -344 -487q-106 0 -191 106l-50 -479h-212zM451 150q34 0 59 17t40 42
t27 70.5t17.5 85.5t12.5 104l30 283q7 80 7 143t-26.5 101t-81.5 38q-73 0 -159 -64l-81 -764q69 -56 155 -56z" />
    <glyph glyph-name="uni1E60" unicode="&#x1e60;" horiz-adv-x="966" 
d="M529 1797l25 241h215l-26 -241h-214zM467 -18q-208 0 -303 128q-86 116 -86 309q0 20 1 42l205 54q-1 -24 -1 -46q1 -48 5 -87q6 -58 26.5 -111.5t63.5 -83t108 -29.5q92 0 145 50.5t63 148.5q2 20 2 38q0 22 -3 44q-6 39 -16.5 67.5t-34 61.5t-42.5 54.5t-54 57.5
l-253 250q-75 76 -105 160q-21 59 -21 135q0 33 4 69q19 179 133.5 279t294.5 102h7q192 -1 279 -103q84 -100 84 -307v-19l-195 -52q1 23 1 45q0 43 -4 77q-6 52 -25 98t-60 68q-35 19 -85 19q-9 0 -19 -1q-191 -11 -209 -185q-2 -19 -2 -36q0 -49 15 -86q20 -50 73 -105
l255 -249q100 -99 152 -211q41 -88 41 -195q0 -28 -3 -58q-19 -182 -139.5 -287.5t-297.5 -105.5z" />
    <glyph glyph-name="uni1E61" unicode="&#x1e61;" horiz-adv-x="762" 
d="M365 1323l25 241h215l-26 -241h-214zM334 -17q-144 0 -222 91q-75 87 -75 228v15l182 53q1 -118 34.5 -174t106.5 -56q61 0 102.5 39.5t44.5 99.5q1 7 1 13q0 84 -82 160l-180 169q-67 63 -98 129q-22 48 -22 111q0 24 3 50q18 138 106.5 214t226.5 76q134 1 202 -87
q65 -84 64 -213v-12l-149 -53q-2 102 -30.5 155t-94.5 53q-56 0 -93 -35.5t-42 -87.5q-1 -7 -1 -14q0 -64 51 -113l186 -188q71 -70 109 -144q30 -58 30 -136q0 -21 -2 -42q-15 -147 -111.5 -224t-246.5 -77z" />
    <glyph glyph-name="uni1E6A" unicode="&#x1e6a;" horiz-adv-x="817" 
d="M441 1797l25 241h215l-26 -241h-214zM254 0l156 1492h-305l17 166h825l-17 -166h-296l-157 -1492h-223z" />
    <glyph glyph-name="uni1E6B" unicode="&#x1e6b;" horiz-adv-x="625" 
d="M328 1653l25 241h215l-26 -241h-214zM372 -16q-134 0 -184 70q-40 56 -41 156q0 26 3 54l82 778h-126l15 142h125l37 347h212l-37 -347h191l-14 -142h-191l-81 -763q-2 -20 -2 -37q0 -45 14 -66q19 -29 82 -29q49 0 83 6l-17 -158q-86 -11 -151 -11z" />
    <glyph glyph-name="Wgrave" unicode="&#x1e80;" horiz-adv-x="1490" 
d="M830 1797l-181 404h213l75 -404h-107zM296 0l-98 1658h189l54 -1208l353 1201h159l102 -1205l303 1212h184l-441 -1658h-163l-104 1242l-367 -1242h-171z" />
    <glyph glyph-name="wgrave" unicode="&#x1e81;" horiz-adv-x="1201" 
d="M636 1323l-181 404h213l75 -404h-107zM200 0l-66 1184h175l33 -884l253 884h163l68 -881l218 881h174l-319 -1184h-181l-74 848l-251 -848h-193z" />
    <glyph glyph-name="Wacute" unicode="&#x1e82;" horiz-adv-x="1490" 
d="M830 1797l164 404h212l-268 -404h-108zM296 0l-98 1658h189l54 -1208l353 1201h159l102 -1205l303 1212h184l-441 -1658h-163l-104 1242l-367 -1242h-171z" />
    <glyph glyph-name="wacute" unicode="&#x1e83;" horiz-adv-x="1201" 
d="M636 1323l164 404h212l-268 -404h-108zM200 0l-66 1184h175l33 -884l253 884h163l68 -881l218 881h174l-319 -1184h-181l-74 848l-251 -848h-193z" />
    <glyph glyph-name="Wdieresis" unicode="&#x1e84;" horiz-adv-x="1490" 
d="M602 1797l23 221h213l-23 -221h-213zM951 1797l24 221h214l-23 -221h-215zM296 0l-98 1658h189l54 -1208l353 1201h159l102 -1205l303 1212h184l-441 -1658h-163l-104 1242l-367 -1242h-171z" />
    <glyph glyph-name="wdieresis" unicode="&#x1e85;" horiz-adv-x="1201" 
d="M408 1323l23 221h213l-23 -221h-213zM757 1323l24 221h214l-23 -221h-215zM200 0l-66 1184h175l33 -884l253 884h163l68 -881l218 881h174l-319 -1184h-181l-74 848l-251 -848h-193z" />
    <glyph glyph-name="Ygrave" unicode="&#x1ef2;" horiz-adv-x="983" 
d="M577 1797l-181 404h213l75 -404h-107zM337 0l61 582l-247 1076h209l173 -811l338 811h212l-471 -1076l-61 -582h-214z" />
    <glyph glyph-name="ygrave" unicode="&#x1ef3;" horiz-adv-x="799" 
d="M437 1323l-181 404h213l75 -404h-107zM12 -296l17 161q76 0 120.5 6t70 23.5t32.5 43.5q4 15 4 38q0 16 -2 34q-9 77 -20 163l-133 1011h215l70 -897l252 897h215l-415 -1251q-42 -125 -137.5 -177t-260.5 -52h-28z" />
    <glyph glyph-name="endash" unicode="&#x2013;" horiz-adv-x="1007" 
d="M19 418l16 163h965l-17 -163h-964z" />
    <glyph glyph-name="emdash" unicode="&#x2014;" horiz-adv-x="1948" 
d="M32 546l16 156h1905l-16 -156h-1905z" />
    <glyph glyph-name="quoteleft" unicode="&#x2018;" horiz-adv-x="759" 
d="M180 1192l21 196q17 163 71 247.5t162 90.5l29 -79q-62 -6 -91 -58t-41 -170h106l-24 -227h-233z" />
    <glyph glyph-name="quoteright" unicode="&#x2019;" horiz-adv-x="419" 
d="M227 1125l-30 78q62 7 91 58.5t41 169.5h-106l24 227h233l-20 -195q-18 -164 -72 -248t-161 -90z" />
    <glyph glyph-name="quotesinglbase" unicode="&#x201a;" horiz-adv-x="572" 
d="M168 -266l-29 78q62 6 91 58t41 170h-106l24 227h233l-21 -196q-16 -162 -70.5 -246.5t-162.5 -90.5z" />
    <glyph glyph-name="quotedblleft" unicode="&#x201c;" horiz-adv-x="915" 
d="M185 1192l21 196q17 163 71 247.5t162 90.5l29 -79q-62 -6 -91 -58t-41 -170h106l-24 -227h-233zM594 1192l21 196q17 163 71 247.5t162 90.5l29 -79q-62 -6 -91 -58t-41 -170h106l-24 -227h-233z" />
    <glyph glyph-name="quotedblright" unicode="&#x201d;" horiz-adv-x="970" 
d="M321 1124l-29 78q62 7 91 59t41 169h-106l24 227h232l-20 -195q-17 -163 -71.5 -247.5t-161.5 -90.5zM678 1124l-28 78q62 7 90.5 58.5t40.5 169.5h-106l24 227h233l-20 -195q-18 -164 -72.5 -248t-161.5 -90z" />
    <glyph glyph-name="quotedblbase" unicode="&#x201e;" horiz-adv-x="928" 
d="M153 -265l-29 78q62 7 91 59t41 169h-106l24 227h233l-21 -195q-16 -163 -70.5 -247.5t-162.5 -90.5zM563 -265l-30 78q62 7 91 59t41 169h-105l23 227h233l-21 -195q-16 -163 -70.5 -247.5t-161.5 -90.5z" />
    <glyph glyph-name="dagger" unicode="&#x2020;" horiz-adv-x="766" 
d="M232 0l116 1106h-199l18 165h199l39 372h207l-39 -372h198l-18 -165h-198l-116 -1106h-207z" />
    <glyph glyph-name="daggerdbl" unicode="&#x2021;" horiz-adv-x="777" 
d="M240 0l55 520h-219l16 143h218l40 378h-218l14 143h218l49 460h202l-49 -460h219l-15 -143h-218l-40 -378h218l-15 -143h-218l-55 -520h-202z" />
    <glyph glyph-name="bullet" unicode="&#x2022;" horiz-adv-x="731" 
d="M375 562q-107 0 -160 64q-44 53 -44 136q0 17 2 36q11 108 78 172t174 64t161 -64q44 -54 45 -137q0 -17 -2 -35q-11 -108 -78.5 -172t-175.5 -64z" />
    <glyph glyph-name="ellipsis" unicode="&#x2026;" horiz-adv-x="1128" 
d="M33 0l25 241h214l-25 -241h-214zM411 0l25 241h215l-26 -241h-214zM789 0l26 241h214l-25 -241h-215z" />
    <glyph glyph-name="perthousand" unicode="&#x2030;" horiz-adv-x="2536" 
d="M442 944q71 0 102.5 57t41.5 154l17 156q3 38 3 71v31q-2 45 -28 72t-76 27q-38 0 -64.5 -15t-41.5 -45.5t-22.5 -63t-12.5 -79.5l-17 -156q-3 -38 -3 -71q1 -16 1 -32q2 -46 27 -76t73 -30zM426 784q-279 0 -279 299q0 37 4 79l15 138q19 185 103 279.5t250 94.5
t231 -91q50 -70 50 -195q0 -37 -4 -78l-17 -154q-19 -182 -104 -277t-249 -95zM1374 150q70 0 101 56.5t42 154.5l16 156q4 41 4 75q0 14 -1 27q-2 45 -27.5 72t-75.5 27q-38 0 -64.5 -15t-42 -45.5t-23 -63t-12.5 -79.5l-16 -156q-2 -35 -2 -66q1 -19 1 -37q2 -46 27 -76
t73 -30zM1357 -11q-279 0 -279 299q0 37 4 79l15 139q19 185 103 279.5t250 94.5t230 -92q50 -71 50 -194q0 -37 -4 -78l-16 -155q-40 -372 -353 -372zM2111 150q37 0 64 16.5t42.5 48t23.5 65.5t13 80l17 157q4 41 4 75q0 14 -1 26q-2 44 -27.5 71.5t-75.5 27.5
q-38 0 -64.5 -15t-42 -45.5t-23 -62.5t-12.5 -79l-17 -156q-2 -35 -2 -66v-37q2 -46 27.5 -76t73.5 -30zM2094 -11q-279 0 -279 299q0 37 4 79l15 139q19 185 103.5 279.5t250.5 94.5t230 -92q50 -71 50 -194q0 -37 -4 -78l-17 -155q-38 -372 -353 -372zM529 0l637 1662h184
l-637 -1662h-184z" />
    <glyph glyph-name="guilsinglleft" unicode="&#x2039;" horiz-adv-x="574" 
d="M465 92l-355 465l10 103l453 465l-27 -266l-268 -249l215 -252z" />
    <glyph glyph-name="guilsinglright" unicode="&#x203a;" horiz-adv-x="604" 
d="M97 195l28 266l267 250l-215 250l28 267l355 -465l-10 -104z" />
    <glyph glyph-name="fraction" unicode="&#x2044;" horiz-adv-x="474" 
d="M-49 0l467 1658h181l-465 -1658h-183z" />
    <glyph glyph-name="uni2074" unicode="&#x2074;" horiz-adv-x="715" 
d="M400 563l31 299h-325l12 110l412 686h147l-72 -686h120l-12 -110h-120l-31 -299h-162zM253 972h191l43 416z" />
    <glyph glyph-name="Euro" unicode="&#x20ac;" horiz-adv-x="1016" 
d="M492 -18q-103 0 -178 27.5t-118.5 76.5t-68 117.5t-26.5 150.5v33q0 67 6 142l10 89h-121l12 117h121l22 211h-121l13 118h121l6 59q14 132 44.5 228t87 171.5t148.5 114t220 38.5q114 0 192 -32t119 -95.5t54 -149.5q7 -44 7 -96q0 -48 -6 -104l-9 -86h-213l8 71
q4 37 6 60.5t3.5 54.5t-0.5 50.5t-6.5 43.5t-13 38t-22 29t-32.5 23t-45 13t-58 5q-58 0 -100.5 -17t-68.5 -44t-44 -74.5t-26.5 -93.5t-16.5 -117l-9 -90h211l-13 -118h-210l-23 -211h211l-12 -117h-210l-14 -125q-7 -62 -7 -111q0 -100 28 -150q40 -74 162 -74q47 0 82 10
t59.5 33t40.5 48t27 68t17 79.5t12 94.5l8 78h212l-9 -78q-12 -119 -41 -208t-82.5 -159t-140 -106t-205.5 -36z" />
    <glyph glyph-name="afii61289" unicode="&#x2113;" horiz-adv-x="1024" 
d="M773 148q-67 -72 -143 -116q-76 -46 -142 -52q-11 -1 -21 -1q-52 1 -93 29q-48 34 -60 116q-3 22 -3 47q0 71 24 168l48 191l-184 -228l-67 67l310 390l226 894q34 132 140 203q69 46 136 46q22 0 44 -5q87 -20 114 -112q10 -36 10 -79q0 -150 -127 -379
q-101 -181 -277 -398l-145 -179l-110 -420q-20 -83 -20 -137q0 -45 14 -69q20 -35 59 -35q21 0 47 10q75 29 161 124zM626 991q53 66 99 130q136 188 198 328.5t62 224.5q0 82 -49 99q-11 4 -22 4q-32 0 -65 -33q-34 -35 -49 -89z" />
    <glyph glyph-name="afii61352" unicode="&#x2116;" horiz-adv-x="1942" 
d="M1476 140q27 0 48.5 8.5t36.5 19.5t26.5 34t18.5 40.5t13 51.5t8.5 54t6.5 59l39 368q4 38 5.5 59t2.5 54.5t-2 51.5t-10 41t-19.5 34.5t-32 20t-46.5 8.5q-31 0 -55 -9.5t-40 -30.5t-26.5 -41.5t-18 -56.5t-11 -61.5t-7.5 -69.5l-39 -368q-4 -39 -5.5 -59.5t-2.5 -53.5
t2 -51t10 -41t19.5 -34.5t32 -19.5t46.5 -8zM1459 -17q-96 0 -160.5 30.5t-96 87.5t-41.5 138q-4 35 -4 74q0 51 7 108l35 341q23 215 112.5 327t275.5 112q96 0 161 -31t97 -88t42 -138q5 -36 4 -76q0 -50 -7 -106l-36 -341q-11 -105 -36.5 -182.5t-70.5 -136.5t-115.5 -89
t-166.5 -30zM82 0l174 1658h154l359 -1119l117 1119h188l-174 -1658h-145l-362 1150l-122 -1150h-189z" />
    <glyph glyph-name="trademark" unicode="&#x2122;" horiz-adv-x="1499" 
d="M724 756l95 902h147l132 -634l280 634h135l-95 -902h-125l59 568l-244 -568h-67l-132 565l-59 -565h-126zM307 756l81 770h-167l13 132h483l-13 -132h-157l-81 -770h-159z" />
    <glyph glyph-name="estimated" unicode="&#x212e;" horiz-adv-x="861" 
d="M415 -17q-205 1 -279 101q-55 76 -55 229q0 50 6 108l36 338q25 240 113.5 338.5t286.5 98.5q143 0 209 -52q68 -52 76 -158q3 -34 2 -75q0 -84 -12 -194l-14 -129h-464l-27 -257q-9 -75 -9 -128q0 -17 1 -33q4 -62 40.5 -89t121.5 -27q56 0 92 13.5t57.5 47t31.5 77
t18 118.5l11 101h108l-10 -94q-10 -93 -28.5 -152.5t-57 -102.5t-99.5 -61t-155 -18zM327 660h271l21 203q9 80 9 134q0 55 -28 87q-28 33 -87 33q-36 0 -62 -11.5t-43.5 -32t-29.5 -58.5t-19.5 -81.5t-14.5 -111.5z" />
    <glyph glyph-name="partialdiff" unicode="&#x2202;" horiz-adv-x="970" 
d="M391 -25q-74 0 -135.5 23.5t-107.5 68t-68 118.5q-15 51 -14 111q0 28 3 58q4 42 8 62l69 352q31 168 131.5 262t252.5 94q151 0 261 -113q15 65 21 124q3 30 3 58q0 315 -401 350l54 136q36 0 69.5 -3t72.5 -10t73.5 -19t71.5 -30.5t65.5 -44t57 -59.5t46.5 -77.5
t32 -97.5q16 -53 16 -118v-10q0 -61 -6 -133l-105 -580q-19 -97 -44.5 -174.5t-53.5 -131.5t-63.5 -93.5t-70 -62.5t-77 -37t-79.5 -18.5t-82 -4.5zM418 133q46 0 78 10.5t63.5 39.5t55.5 87t43 148l97 465q-121 81 -214 81q-169 0 -211 -227l-67 -349q-2 -10 -3.5 -25.5
t-2.5 -19.5q-2 -22 -2 -41q1 -70 31 -114q40 -56 132 -55z" />
    <glyph glyph-name="product" unicode="&#x220f;" horiz-adv-x="1142" 
d="M41 -390l215 2048h881l-215 -2048h-214l199 1888h-454l-199 -1888h-213z" />
    <glyph glyph-name="summation" unicode="&#x2211;" horiz-adv-x="828" 
d="M-34 -390l440 1033l-225 1015h665l-17 -166h-413l192 -849l-379 -872h425l-17 -161h-671z" />
    <glyph glyph-name="minus" unicode="&#x2212;" horiz-adv-x="791" 
d="M121 751l14 127h609l-14 -127h-609z" />
    <glyph glyph-name="uni2215" unicode="&#x2215;" horiz-adv-x="751" 
d="M9 0l624 1658h184l-624 -1658h-184z" />
    <glyph glyph-name="uni2219" unicode="&#x2219;" horiz-adv-x="363" 
d="M101 661l23 221h212l-22 -221h-213z" />
    <glyph glyph-name="radical" unicode="&#x221a;" horiz-adv-x="1040" 
d="M392 0l-121 1058l-215 -1l13 127h390q2 -14 23 -245t22 -239q2 -14 15 -197t14 -193q6 18 62 211t62 212q6 18 136.5 462.5t136.5 462.5h209l-532 -1658h-215z" />
    <glyph glyph-name="infinity" unicode="&#x221e;" horiz-adv-x="1291" 
d="M318 260q-144 0 -210 87q-54 71 -55 180q0 25 3 51q16 143 100.5 230t228.5 87q99 0 168 -44t136 -128q79 80 149 120q66 37 152 37h13q137 -4 204 -84q55 -66 55 -172q0 -22 -2 -46q-15 -139 -99 -219t-222 -84h-9q-88 0 -147 38q-62 40 -124 119q-85 -84 -163.5 -128
t-177.5 -44zM333 442q44 2 93.5 32t121.5 104q-57 74 -100 104t-87 32h-8q-53 0 -91 -36q-42 -39 -48 -100q-1 -10 -1 -20q0 -48 28 -80q31 -36 82 -36h10zM967 458h3q50 0 88 32t45 88q1 9 1 17q0 43 -27 71q-31 32 -82 31h-3q-37 -1 -77.5 -25.5t-109.5 -93.5
q54 -69 90 -94t72 -26z" />
    <glyph glyph-name="integral" unicode="&#x222b;" horiz-adv-x="656" 
d="M74 -389q-55 0 -138 12l17 158q55 -10 80 -10q60 0 84 37.5t32 117.5l149 1416q9 86 24.5 142.5t46.5 104t85 69.5t133 22q56 0 137 -12l-16 -158q-8 1 -24.5 4t-30.5 4.5t-24 1.5q-61 0 -85 -37.5t-32 -116.5l-149 -1417q-7 -69 -17.5 -117t-30.5 -92.5t-51 -71t-78 -42
t-112 -15.5z" />
    <glyph glyph-name="approxequal" unicode="&#x2248;" horiz-adv-x="911" 
d="M609 518q-42 0 -97 29.5t-107 59t-88 29.5q-53 0 -158 -79l-65 102q60 54 134.5 100.5t121.5 46.5q42 0 96 -29t105.5 -58t87.5 -29q19 0 46 13t47.5 26.5t59.5 41.5l67 -98q-58 -59 -128.5 -107t-121.5 -48zM648 884q-34 0 -76 18.5t-75.5 40t-73 40t-68.5 18.5
q-54 0 -157 -79l-65 102q59 54 133 100.5t122 46.5q42 0 96 -29t106 -58t88 -29q19 0 47 13.5t45.5 25.5t60.5 42l66 -97q-58 -59 -128 -107t-121 -48z" />
    <glyph glyph-name="notequal" unicode="&#x2260;" horiz-adv-x="852" 
d="M68 0l216 573h-162l17 162h205l76 198h-261l17 162h304l212 563h184l-212 -563h139l-17 -162h-183l-75 -198h238l-17 -162h-281l-216 -573h-184z" />
    <glyph glyph-name="lessequal" unicode="&#x2264;" horiz-adv-x="793" 
d="M640 217l-541 414l23 213l628 418l-23 -214l-457 -310l392 -308zM18 0l14 127h609l-14 -127h-609z" />
    <glyph glyph-name="greaterequal" unicode="&#x2265;" horiz-adv-x="787" 
d="M86 230l22 213l459 312l-394 306l23 214l542 -415l-22 -213zM62 0l13 127h610l-14 -127h-609z" />
    <glyph glyph-name="lozenge" unicode="&#x25ca;" horiz-adv-x="948" 
d="M383 0l-295 592l406 593h99l294 -593l-405 -592h-99zM445 143l291 449l-207 437l-290 -437z" />
    <glyph glyph-name="uniFB00" unicode="&#xfb00;" horiz-adv-x="1057" 
d="M133 0l108 1026h-143l16 158h143l8 68q7 70 17 119t30.5 95.5t50.5 74t78 44t113 16.5q47 0 138 -12l-17 -158q-8 1 -37 5.5t-43 4.5q-60 0 -83.5 -37.5t-31.5 -116.5l-12 -103h182l-16 -158h-182l-108 -1026h-211zM610 0l108 1026h-143l16 158h143l8 68q7 70 17 119
t30.5 95.5t50.5 74t78 44t113 16.5q47 0 138 -12l-17 -158q-8 1 -37 5.5t-43 4.5q-60 0 -83.5 -37.5t-31.5 -116.5l-12 -103h182l-16 -158h-182l-108 -1026h-211z" />
    <glyph glyph-name="uniFB01" unicode="&#xfb01;" horiz-adv-x="998" 
d="M133 0l108 1026h-143l16 158h143l8 68q19 180 88 263.5t223 83.5q57 0 116 -10l-17 -158q-39 7 -76 7q-62 0 -86 -33t-33 -118l-12 -103h481l-124 -1184h-212l108 1026h-269l-108 -1026h-211zM774 1358l24 227h194l-24 -227h-194z" />
    <glyph glyph-name="uniFB02" unicode="&#xfb02;" horiz-adv-x="1045" 
d="M133 0l108 1026h-143l16 158h143l8 68q4 36 7 59t10.5 58.5t16.5 59.5t25.5 54.5t37 51t51.5 42t68.5 34t87.5 20.5t110 8q154 0 365 -50l-167 -1589h-213l155 1472q-74 9 -125 9q-40 0 -71.5 -6t-53 -15t-37.5 -27t-25 -33t-15.5 -43t-9 -47t-6.5 -55l-8 -71h182
l-16 -158h-182l-108 -1026h-211z" />
    <glyph glyph-name="uniFB03" unicode="&#xfb03;" horiz-adv-x="1500" 
d="M133 0l108 1026h-143l16 158h143l8 68q7 70 17 119t30.5 95.5t50.5 74t78 44t113 16.5q47 0 138 -12l-17 -158q-8 1 -37 5.5t-43 4.5q-60 0 -83.5 -37.5t-31.5 -116.5l-12 -103h280l7 68q8 70 18 119t30.5 95.5t50.5 74t78 44t113 16.5q45 0 138 -12l-17 -158
q-8 1 -37.5 5.5t-42.5 4.5q-60 0 -83.5 -37.5t-31.5 -116.5l-12 -103h491l-124 -1184h-211l107 1026h-279l-108 -1026h-211l108 1026h-280l-108 -1026h-211zM1257 1358l24 227h213l-24 -227h-213z" />
    <glyph glyph-name="uniFB04" unicode="&#xfb04;" horiz-adv-x="1589" 
d="M618 0l108 1026h-143l16 158h143l8 68q7 70 17 119t30.5 95.5t50.5 74t78 44t113 16.5q47 0 138 -12l-17 -158q-8 1 -37 5.5t-43 4.5q-60 0 -83.5 -37.5t-31.5 -116.5l-12 -103h182l-16 -158h-182l-108 -1026h-211zM133 0l108 1026h-143l16 158h143l8 68q7 70 17 119
t30.5 95.5t50.5 74t78 44t113 16.5q47 0 138 -12l-17 -158q-8 1 -37 5.5t-43 4.5q-60 0 -83.5 -37.5t-31.5 -116.5l-12 -103h182l-16 -158h-182l-108 -1026h-211zM1121 0l124 1184h212l-124 -1184h-212zM1264 1358l24 227h213l-24 -227h-213z" />
    <glyph glyph-name="foundryicon" horiz-adv-x="1413" 
d="M251 259l210 507l-394 326h535l219 508l123 -508h535l-465 -326l105 -507l-406 305z" />
    <glyph glyph-name="uni04AE" horiz-adv-x="969" 
d="M331 0l76 724l-263 934h209l112 -421l73 -279l130 279l196 421h212l-455 -934l-76 -724h-214z" />
    </font>
</defs>
</svg>
